<svg width="184" height="99" xmlns="http://www.w3.org/2000/svg"><g fill="none" fill-rule="evenodd"><path fill="#FEFEFE" d="M0 99h184V0H0z"/><path fill="#0074BB" d="M4 96h102V68H4zM152 32h28V4h-28z"/><g fill="#231F20"><path d="M104.228 46.437c0 1.015-.074 2.228-1.402 2.228h-1.477v-4.431h1.477c1.328 0 1.402 1.189 1.402 2.203zm4.06 12.254l-2.559-7.624c1.699-1.065 1.994-2.749 1.994-4.63 0-3.366-1.059-5.371-4.873-5.371h-4.996V58.69h3.495v-6.857h1.157l2.141 6.857h3.641zM50.545 46.437c0 1.015-.073 2.228-1.403 2.228h-1.476v-4.431h1.476c1.33 0 1.403 1.189 1.403 2.203zm4.061 12.254l-2.56-7.624c1.699-1.065 1.994-2.749 1.994-4.63 0-3.366-1.059-5.371-4.873-5.371h-4.996V58.69h3.495v-6.857h1.157l2.14 6.857h3.643zm-39.64-12.006c0 1.114-.074 2.475-1.402 2.475h-1.478v-4.926h1.478c1.328 0 1.402 1.337 1.402 2.45zm3.494-.024c0-3.441-1.131-5.595-4.921-5.595H8.593V58.69h3.493V52.33h1.453c3.79 0 4.921-2.203 4.921-5.668zm67.997 3.217c0 2.129-.05 4.332-.468 5.15-.197.395-.566.692-1.206.692s-.96-.297-1.157-.693c-.418-.817-.467-3.02-.467-5.149s.05-4.331.467-5.148c.197-.396.517-.694 1.157-.694s1.009.298 1.206.694c.419.817.468 3.02.468 5.148zm3.494 0c0-2.376.098-5.569-1.304-7.253-.812-.965-1.895-1.758-3.864-1.758-1.968 0-3.002.793-3.815 1.758-1.402 1.684-1.304 4.877-1.304 7.253 0 2.377-.098 5.57 1.304 7.254.813.965 1.847 1.757 3.815 1.757 1.969 0 3.052-.792 3.864-1.757 1.402-1.684 1.304-4.877 1.304-7.254zm67.891 8.813V41.066h-3.495v8.615l-3.642-8.615h-3.051V58.69h3.495v-8.615l3.716 8.615h2.977zm-29.717 0V41.066h-3.101l-3.2 8.64-3.198-8.64h-3.077V58.69h3.495v-9.16l1.87 6.016h1.796l1.92-6.04v9.184h3.495zm8.042 0h3.495V41.066h-3.495V58.69zm39.495-5.223v-4.48h-4.945v2.846h1.45v1.832c0 .966-.319 2.054-1.475 2.054-.64 0-.96-.297-1.157-.693-.418-.817-.467-3.02-.467-5.149s.049-4.331.467-5.148c.197-.396.516-.694 1.157-.694 1.328 0 1.451 1.338 1.475 2.079h3.495c-.073-1.609-.565-2.995-1.5-3.935-.837-.817-1.995-1.313-3.47-1.313-1.97 0-3.002.793-3.814 1.758-1.403 1.684-1.305 4.877-1.305 7.253 0 2.377-.098 5.57 1.305 7.254.812.965 1.845 1.757 3.814 1.757 3.002 0 4.97-1.906 4.97-5.421zM71.33 44.234v-3.168h-8.072V58.69h3.494v-7.303h3.938V48.22h-3.938v-3.986h4.578zM35.444 58.691v-3.169h-4.577v-4.134h3.937V48.22h-3.937v-3.986h4.577v-3.168h-8.072V58.69h8.072zM4.284 63.78H179.59V35.997H4.285V63.78zM68.44 14.503c0 1.015-.075 2.228-1.403 2.228h-1.476v-4.432h1.476c1.328 0 1.403 1.19 1.403 2.204zm4.06 12.254l-2.56-7.625c1.699-1.064 1.994-2.748 1.994-4.63 0-3.365-1.058-5.37-4.872-5.37h-4.996v17.625h3.495v-6.858h1.157l2.14 6.858H72.5zm71.085 0V9.13h-3.494v8.615l-3.642-8.615h-3.051v17.626h3.494v-8.615l3.716 8.615h2.977zm-18.67 0v-3.17h-4.576v-4.133h3.937v-3.168h-3.937v-3.987h4.577V9.131h-8.071v17.626h8.07zm-17.893 0v-3.17h-4.577v-4.133h3.937v-3.168h-3.937v-3.987h4.577V9.131H98.95v17.626h8.072zm-53.683 0v-3.17h-4.577v-4.133H52.7v-3.168h-3.938v-3.987h4.577V9.131h-8.071v17.626h8.071zm33.278-8.838c0 1.956 0 4.084-.418 4.902-.222.445-.665.767-1.304.767h-1.378V12.299h1.378c.64 0 1.082.322 1.304.768.418.817.418 2.896.418 4.852zm3.495.025c0-2.302.098-5.47-1.305-7.104-.787-.916-1.87-1.709-3.838-1.709h-4.947v17.626h4.947c1.968 0 3.051-.793 3.838-1.709 1.403-1.634 1.305-4.802 1.305-7.104zM32.688 21.31c0 1.609-.393 2.278-1.795 2.278h-1.109v-4.555h1.109c1.352 0 1.795.669 1.795 2.277zm0-7.13c0 1.313-.467 1.883-1.845 1.883h-1.059v-3.764h1.059c1.402 0 1.845.545 1.845 1.881zm3.495 7.155c0-.99-.05-2.302-.862-3.218a3.371 3.371 0 00-.787-.62c.344-.172.59-.37.812-.593.738-.742.837-1.708.837-2.847 0-1.683-.32-2.97-1.157-3.787-.762-.743-1.92-1.139-3.666-1.139h-5.07v17.626h5.07c1.747 0 2.904-.397 3.641-1.165.887-.915 1.182-2.35 1.182-4.257zm-21.598-.495h-2.707l1.353-6.535 1.354 6.535zm4.872 5.917L14.954 9.13h-3.445L7.005 26.757h3.643l.565-2.749h4.036l.566 2.749h3.642zM4.284 31.845H147.44V4.062H4.284v27.783zM158.371 76.17V73h-9.4v3.168h2.953v14.457h3.494V76.169h2.953zm17.193 9.431c0-3.194-.639-4.184-2.854-5.1l-2.19-.89c-1.01-.422-1.206-.744-1.206-1.858 0-.593.074-.965.295-1.261.197-.273.517-.471 1.01-.471.516 0 .811.173 1.008.445.295.397.295.966.295 1.585h3.495c0-1.783-.394-3.193-1.354-4.085-.762-.718-1.895-1.114-3.444-1.114-1.33 0-2.388.396-3.225 1.114-1.058.916-1.575 2.277-1.575 3.911 0 2.748.738 3.689 2.511 4.431l2.214.917c1.255.52 1.526.816 1.526 2.5 0 .717-.099 1.187-.344 1.484-.222.298-.566.446-1.107.446-.543 0-.886-.198-1.084-.42-.32-.371-.369-.892-.369-1.61h-3.494c0 1.808.295 3.045 1.156 3.912.788.792 2.068 1.287 3.79 1.287 1.699 0 3.027-.545 3.814-1.312.911-.891 1.132-2.13 1.132-3.91zm-37.34-7.228c0 1.015-.073 2.227-1.402 2.227h-1.476v-4.43h1.476c1.329 0 1.403 1.187 1.403 2.203zm4.061 12.253L139.725 83c1.699-1.064 1.994-2.747 1.994-4.628 0-3.367-1.058-5.372-4.872-5.372h-4.996v17.625h3.495v-6.857h1.156l2.142 6.857h3.641zm-22.127-5.917h-2.707l1.354-6.534 1.353 6.534zm4.873 5.917L120.527 73h-3.445l-4.503 17.625h3.642l.566-2.747h4.036l.566 2.747h3.642zm-15.173 5.088h69.731V67.931h-69.73v27.783z"/></g></g></svg>