<svg width="361" height="99" viewBox="0 0 361 99" fill="none" xmlns="http://www.w3.org/2000/svg">
<path fill-rule="evenodd" clip-rule="evenodd" d="M106.119 76.403C103.512 76.217 104.211 70.119 98.695 70.794C94.785 71.259 94.366 75.914 94.041 79.544C93.645 83.593 93.18 87.038 91.993 86.526C90.806 86.014 91.248 84.199 90.806 78.544C90.317 72.074 88.735 68.514 84.872 67.885C80.218 67.14 78.332 74.262 77.518 77.031C76.703 79.8 75.191 81.034 74.376 81.034C73.561 81.034 72.281 80.662 71.909 77.404C71.537 74.146 74.236 68.537 77.937 64.604C89.108 52.828 105.166 44.52 105.166 26.321C105.143 9.099 92.878 0 81.405 0C75.608 0.016 70.078 2.47599 66.185 6.77199C63.462 9.44799 62.299 12.45 61.251 12.45C60.204 12.45 59.063 9.44799 56.364 6.77199C52.468 2.48099 46.941 0.021 41.144 0C29.764 0 17.406 9.07599 17.406 26.275C17.406 44.474 33.441 52.782 44.635 64.558C48.335 68.491 50.965 74.076 50.663 77.358C50.36 80.639 48.964 80.732 48.336 80.709C47.708 80.686 46.218 80.081 45.148 76.055C44.077 72.029 42.96 69.073 38.888 68.794C34.35 68.515 33.163 74.752 32.767 79.709C32.441 83.968 32.325 91.974 30.719 91.345C29.788 90.949 29.323 81.78 28.555 74.752C27.973 69.306 27.252 57.67 24.087 55.599C20.247 53.086 16.873 55.902 15.825 60.37C15.034 63.698 14.917 66.467 13.917 70.936C13.172 74.264 12.334 76.358 9.1 76.358H0V81.245H2.118C13.894 81.734 17.199 80.524 18.618 75.217C19.491 71.375 20.166 67.491 20.643 63.581C21.062 61.254 22.482 60.113 23.11 66.537C23.413 69.725 23.715 73.798 24.204 77.917C25.647 90.065 26.019 98.467 31.325 98.862C37.213 99.374 37.259 88.552 37.655 84.27C37.888 81.547 38.237 73.774 39.61 74.612C41.518 75.752 40.797 85.527 49.85 85.922C55.04 86.178 56.948 82.245 57.297 77.87C57.646 73.495 53.69 67.653 48.337 62.394C35.444 49.711 26.484 43.171 26.484 29.208C26.484 15.245 36.421 7.84399 45.102 7.84399C47.01 7.84399 52.875 7.518 59.95 18.968C60.229 19.45 60.744 19.748 61.3 19.748C61.856 19.748 62.371 19.45 62.65 18.968C69.632 7.518 75.566 7.84399 77.498 7.84399C86.179 7.84399 96.116 14.826 96.116 29.208C96.116 43.59 87.063 49.432 74.263 62.115C68.934 67.375 65.28 73.751 65.373 77.94C65.466 82.129 67.7 86.248 72.82 85.992C81.57 85.596 81.082 78.428 82.874 74.542C83.851 72.471 85.201 72.471 85.411 75.589C85.62 78.708 85.737 79.801 86.086 83.129C86.505 87.411 88.041 92.229 91.904 91.856C95.232 91.53 97.14 89.529 97.769 83.315C97.932 81.523 98.072 80.708 98.304 78.102C98.444 76.613 98.886 75.495 99.537 75.775C100.189 76.054 100.794 77.52 101.236 78.544C102.218 80.517 104.324 81.688 106.519 81.476H120.157V76.589C114.828 76.589 107.776 76.589 106.194 76.426L106.119 76.403ZM153.041 12.567C158.696 12.567 161.931 15.802 161.931 19.549C162.182 22.316 160.211 24.834 157.463 25.251C156.555 25.507 156.462 26.531 157.463 26.694C160.803 27.083 163.262 30.094 162.979 33.443C162.979 37.818 158.93 40.751 154.112 40.751H141.173V12.568H153.042L153.041 12.567ZM146.408 36.258H153.39C156.02 36.258 157.532 35.094 157.532 32.86C157.532 30.114 154.949 29.672 153.017 28.764C151.953 28.378 151.241 27.358 151.241 26.227C151.241 25.096 151.953 24.077 153.017 23.69C154.623 23.015 156.531 22.573 156.578 20.106C156.578 18.174 155.182 16.941 152.738 16.941H146.408V36.257V36.258ZM170.751 21.503V23.644C172.18 21.878 174.398 20.935 176.662 21.131V25.925C173.008 25.925 171.193 27.601 171.193 30.579V40.749H165.91V21.503H170.751ZM178.989 16.313C178.989 14.612 180.383 13.206 182.084 13.194C183.795 13.194 185.203 14.602 185.203 16.313C185.203 18.024 183.795 19.432 182.084 19.432C180.383 19.42 178.989 18.015 178.989 16.313ZM184.598 21.503V40.656H179.315V21.503H184.598ZM202.262 37.375C201.257 39.67 198.948 41.129 196.444 41.052C196.274 41.068 196.102 41.078 195.93 41.078C193.007 41.078 190.601 38.672 190.601 35.749C190.601 35.577 190.61 35.405 190.627 35.235V25.81H187.462V21.505H190.627V15.105H195.793V21.505H200.168V25.81H195.839V35.259C195.839 36.26 196.281 36.748 196.956 36.748C197.631 36.748 198.073 36.329 198.678 35.235L199.19 34.258L202.751 36.259L202.262 37.376V37.375ZM204.357 16.313C204.357 14.612 205.751 13.206 207.452 13.194C209.163 13.194 210.571 14.602 210.571 16.313C210.571 18.024 209.163 19.432 207.452 19.432C205.751 19.42 204.357 18.015 204.357 16.313ZM209.966 21.503V40.656H204.776V21.503H209.966ZM218.67 35.187C218.67 36.188 219.834 36.7 221.579 36.7C223.324 36.7 224.302 36.141 224.302 35.094C224.302 31.557 214.365 33.907 214.365 27.042C214.365 23.574 217.321 21.224 222.254 21.224C224.856 21.108 227.39 22.087 229.236 23.924L226.653 27.089C225.503 25.963 223.958 25.327 222.348 25.32C220.393 25.32 219.625 25.995 219.625 26.856C219.625 29.835 229.609 28.159 229.609 34.862C229.609 38.609 226.49 40.959 221.51 40.959C216.856 40.959 213.597 38.981 213.597 35.699C213.616 34.68 213.923 33.688 214.481 32.836L218.996 34.349C218.824 34.6 218.712 34.887 218.67 35.187V35.187ZM250.716 28.322C250.716 29.905 250.32 31.952 250.32 34.536C250.311 36.603 250.576 38.66 251.111 40.657H245.921C245.39 38.716 245.125 36.712 245.13 34.699C245.13 32.372 245.479 30.603 245.479 29.23C245.505 29.065 245.519 28.9 245.519 28.732C245.519 26.956 244.057 25.497 242.284 25.497C242.13 25.497 241.977 25.509 241.826 25.53L241.44 25.511C239.18 25.511 237.321 27.37 237.321 29.63C237.321 29.816 237.333 30 237.358 30.184V40.773H232.168V11.962H237.288V23.598C238.763 21.925 240.923 21.008 243.153 21.108C243.348 21.092 243.544 21.082 243.739 21.082C247.57 21.082 250.721 24.235 250.721 28.064L250.716 28.322ZM287.812 12.567V40.657H282.506V28.16H279.062C272.918 28.16 269.893 31.162 269.893 36.189V40.657H264.564V12.567H269.893V27.159C272.623 24.734 276.207 23.487 279.854 23.691H282.484V12.567H287.813H287.812ZM308.804 38.143C306.575 40.231 303.565 41.287 300.519 41.052C300.265 41.073 300.009 41.085 299.753 41.085C294.647 41.085 290.444 36.882 290.444 31.776C290.444 31.571 290.451 31.366 290.465 31.162L290.46 30.89C290.46 25.528 294.872 21.116 300.234 21.116L300.797 21.132C305.963 21.132 308.337 24.181 308.337 27.322C308.337 32.558 301.914 34.304 295.956 34.304C296.631 35.863 298.027 36.631 300.61 36.631C302.663 36.668 304.664 35.984 306.265 34.699L308.802 38.143H308.804ZM295.353 30.673C300.17 30.673 303.242 29.905 303.242 27.554C303.242 26.321 302.404 25.413 300.449 25.413H300.375C297.617 25.413 295.348 27.682 295.348 30.44L295.353 30.673ZM324.769 40.657C324.49 39.773 324.257 38.935 324.048 38.05C322.5 40.068 320.047 41.194 317.508 41.052C313.226 41.052 310.712 38.608 310.712 35.094C310.712 31.58 313.039 29.485 319.253 29.346C321.092 29.346 322.977 29.23 322.977 27.717C322.977 26.204 321.883 25.576 319.579 25.576C317.899 25.446 316.267 26.195 315.274 27.554L311.271 25.087C313.137 22.413 316.279 20.91 319.533 21.131C324.723 21.131 328.167 23.644 328.19 29.16C328.022 33.042 328.486 36.924 329.563 40.657H324.769ZM323.442 34.699C323.442 33.954 323.442 33.093 323.256 32.232C322.141 32.607 320.961 32.758 319.788 32.674C318.252 32.674 315.878 32.907 315.878 35.211V35.22C315.878 36.498 316.928 37.547 318.205 37.547L318.414 37.538C320.439 37.422 322.298 36.372 323.441 34.699H323.442ZM337.056 21.504V23.645C338.466 21.907 340.642 20.966 342.874 21.132V25.926C339.22 25.926 337.428 27.602 337.428 30.58V40.75H332.238V21.504H337.055H337.056ZM359.444 37.376C358.439 39.671 356.13 41.13 353.626 41.053L353.233 41.067C350.296 41.067 347.88 38.651 347.88 35.714L347.901 35.235V25.81H344.713V21.505H347.901V15.105H353.091V21.505H357.396V25.81H353.091V35.259C353.091 36.26 353.533 36.748 354.208 36.748C354.883 36.748 355.325 36.329 355.93 35.235L356.442 34.258L360.003 36.259L359.444 37.376ZM146.408 57.646V66.303C148.456 64.907 150.916 64.234 153.39 64.395H157.183V68.817H152.529C148.363 68.817 146.548 70.656 146.548 73.681V81.245H141.172V53.318H158.743V57.74L146.409 57.647L146.408 57.646ZM159.301 71.796L159.294 71.424C159.294 65.78 163.937 61.138 169.58 61.138C175.224 61.138 179.866 65.781 179.866 71.424C179.866 77.03 175.284 81.657 169.68 81.71C169.454 81.726 169.229 81.733 169.003 81.733C163.678 81.733 159.298 77.353 159.298 72.028L159.3 71.795L159.301 71.796ZM174.614 71.796C174.614 68.282 172.752 66.164 169.587 66.164L169.375 66.159C166.668 66.159 164.441 68.386 164.441 71.093C164.441 71.375 164.464 71.656 164.513 71.935C164.497 72.096 164.49 72.258 164.49 72.421C164.49 75.202 166.78 77.494 169.563 77.494C172.346 77.494 174.636 75.202 174.636 72.421C174.636 72.258 174.629 72.095 174.613 71.935V71.795L174.614 71.796ZM182.364 74.472C182.364 72.889 182.76 70.818 182.76 68.305C182.774 66.231 182.509 64.165 181.969 62.161H187.159C187.694 64.109 187.962 66.122 187.95 68.142C187.95 70.469 187.578 72.215 187.578 73.564C187.578 75.891 188.672 77.264 191.022 77.264L191.436 77.285C193.696 77.285 195.555 75.426 195.555 73.166L195.536 72.773V62.161H200.726V81.244H195.885V79.149C194.219 80.848 191.908 81.762 189.532 81.662L189.171 81.671C185.431 81.671 182.352 78.592 182.352 74.852L182.364 74.47V74.472ZM223.021 68.98C223.021 70.563 222.625 72.61 222.625 75.194C222.616 77.261 222.881 79.318 223.416 81.315H218.226C217.695 79.374 217.43 77.37 217.435 75.357C217.435 73.03 217.784 71.238 217.784 69.888C217.81 69.725 217.821 69.56 217.821 69.392C217.821 67.619 216.362 66.157 214.586 66.157C214.442 66.157 214.297 66.169 214.153 66.187L213.781 66.171C211.521 66.171 209.662 68.03 209.662 70.29L209.685 70.725V81.244H204.588V62.161H209.242V64.256C210.885 62.66 213.094 61.773 215.386 61.789C215.605 61.768 215.824 61.759 216.042 61.759C219.873 61.759 223.024 64.91 223.024 68.741L223.019 68.981L223.021 68.98ZM241.825 81.245C241.569 80.412 241.399 79.553 241.313 78.685C239.791 80.703 237.368 81.845 234.843 81.734H234.82C229.714 81.734 225.511 77.531 225.511 72.425C225.511 72.209 225.518 71.99 225.534 71.773L225.532 71.517C225.532 66.188 229.91 61.801 235.239 61.789C237.026 61.733 238.769 62.366 240.103 63.558V52.62H245.363V68.701C245.316 72.946 245.784 77.181 246.759 81.315L241.825 81.245ZM240.336 71.657C240.336 68.096 238.428 66.118 235.472 66.118C232.516 66.118 230.655 68.096 230.655 71.657C230.655 75.218 232.517 77.196 235.472 77.196C238.428 77.196 240.406 75.311 240.406 71.727L240.336 71.657ZM263.189 81.245C262.91 80.361 262.677 79.523 262.491 78.638C260.932 80.656 258.474 81.782 255.928 81.64C251.669 81.64 249.156 79.196 249.156 75.682C249.156 72.168 251.483 70.073 257.697 69.934C259.536 69.934 261.397 69.818 261.397 68.305C261.397 66.792 260.326 66.141 258.023 66.141C256.333 66.02 254.697 66.776 253.694 68.142L249.714 65.675C251.58 63.001 254.722 61.498 257.976 61.719C263.166 61.719 266.587 64.232 266.633 69.748C266.458 73.628 266.915 77.512 267.983 81.245H263.189ZM261.886 75.171C261.886 74.403 261.77 73.565 261.677 72.704C260.562 73.083 259.382 73.228 258.209 73.123C256.696 73.123 254.299 73.379 254.299 75.683V75.695C254.299 76.973 255.349 78.022 256.626 78.022L256.859 78.01C258.87 77.91 260.727 76.888 261.886 75.241V75.171ZM284.46 78.034C283.455 80.329 281.146 81.788 278.642 81.711L278.244 81.725C275.321 81.725 272.915 79.321 272.915 76.396C272.915 76.221 272.924 76.045 272.941 75.87V66.561H269.753V62.163H272.941V55.763H278.131V62.163H282.436V66.468H278.131V75.917C278.131 76.918 278.573 77.383 279.248 77.383C279.923 77.383 280.365 76.987 280.947 75.87L281.482 74.916L285.019 76.917L284.46 78.034ZM286.624 56.972C286.624 55.261 288.032 53.853 289.743 53.853L290.013 53.841C291.724 53.841 293.132 55.249 293.132 56.96C293.132 58.671 291.724 60.079 290.013 60.079L289.743 60.067C288.042 60.067 286.636 58.673 286.624 56.972ZM292.256 62.162V81.245H287.066V62.162H292.256ZM295.77 71.797L295.763 71.448C295.763 65.818 300.397 61.185 306.026 61.185C311.658 61.185 316.289 65.819 316.289 71.448C316.289 77.068 311.676 81.695 306.056 81.711L305.472 81.73C300.147 81.73 295.767 77.348 295.767 72.025L295.769 71.797H295.77ZM311.083 71.797C311.083 68.283 309.198 66.165 306.056 66.165L305.844 66.16C303.137 66.16 300.91 68.387 300.91 71.094C300.91 71.376 300.933 71.657 300.982 71.936C300.966 72.097 300.959 72.259 300.959 72.422C300.959 75.203 303.249 77.495 306.032 77.495C308.815 77.495 311.105 75.203 311.105 72.422C311.105 72.259 311.098 72.096 311.082 71.936V71.796L311.083 71.797ZM338.288 68.981C338.288 70.564 337.892 72.611 337.892 75.195C337.883 77.262 338.148 79.319 338.683 81.316H333.493C332.972 79.373 332.706 77.369 332.702 75.358C332.702 73.031 333.074 71.239 333.074 69.889C333.1 69.726 333.111 69.561 333.111 69.393C333.111 67.62 331.652 66.158 329.876 66.158C329.732 66.158 329.587 66.17 329.443 66.188L329.071 66.172C326.811 66.172 324.952 68.031 324.952 70.291L324.975 70.726V81.245H319.785V62.162H324.602V64.257C326.245 62.661 328.454 61.774 330.746 61.79C330.932 61.776 331.121 61.767 331.309 61.767C335.137 61.767 338.291 64.918 338.291 68.749L338.286 68.982L338.288 68.981Z" fill="#EF0C2D"/>
</svg>
