<svg height="196.214169" viewBox="0 0 200 77.388046" width="509.647191" xmlns="http://www.w3.org/2000/svg"><path d="m0 0c-.08225.03675-.0885.11825-.0885.13625.001.1.056625.18875.1315.20475 0-.006.078125-.0235.078125-.0295.03524442-.09732964.18317881-.09525798-.121125-.3115" fill="#202267" transform="matrix(1.5003761 0 0 -1.5003761 29.93004212569 40.63146113523)"/><path d="m0 0c-.48927146-.86535192-2.8995.7715-2.183 1.59.227.35725 1.028.2645 1.055.2645 1.001 0 1.41375-1.07925 1.128-1.8545" fill="#b00062" transform="matrix(1.5003761 0 0 -1.5003761 79.10771951778 64.59696858053)"/><path d="m-.075-.23125c-.122 0-.165.24825-.277.27925-.2805.90725 1.182 1.34075 1.614.926.356-.4235.271-1.13025-.337-1.13025" fill="#b00062" transform="matrix(1.5003761 0 0 -1.5003761 76.88671277695 58.91504428983)"/><path d="m0 0c-.2155.057-.28775.36275-.28775.47775 0 .398.36025.93525.70275.84825.4799797-.2742156.18741079-1.53838749-.415-1.326" fill="#b00062" transform="matrix(1.5003761 0 0 -1.5003761 75.00269050818 57.47048218075)"/><path d="m0 0c-.1975.699.4905 1.33425 1.0675 1.33425.2 0 .639-.33875.7205-.55725.3080311-.78776996-1.46453168-1.52800898-1.788-.777" fill="#b00062" transform="matrix(1.5003761 0 0 -1.5003761 71.84139806548 59.23402424869)"/><path d="m-.0375-.28125c-.103 0-.1645.29325-.2605.31525-.4315.75925 1.001 1.3045 1.551.932.36225-.48725-.2615-1.291-.8655-1.291" fill="#b00062" transform="matrix(1.5003761 0 0 -1.5003761 69.1650271783 52.99606057533)"/><path d="m0 0c-.67225-.52025-2.105.56475-2.282 1.61675-.24725.16725-.56465 1.9277109.5281 2.1487109 1.066-.213 1.7539-2.5537109 1.7539-3.7504609z" fill="#b00062" transform="matrix(1.5003761 0 0 -1.5003761 70.97583109339 59.15750506759)"/><path d="m0 0c-.087 0-.176.012-.263.036-.153.044-.286.122-.395.223-.23006796-.0432272-.2849398.0412893-.2849398.0992893 0 .256-.1408388.41028932-.0270602.6807107.005.069.016.137.036.206.123.427.513.705.937.705.089 0 .179-.012.269-.037.053-.016.105-.035.153-.058.31142527.0980229.9094902-.3850127.542-1.043-.006-.035-.014-.07-.024-.105-.122-.428-.515-.707-.943-.707" fill="#2e3192" transform="matrix(1.5003761 0 0 -1.5003761 63.45804660673 57.40326533147)"/><path d="m0 0c-.20475.1445-.3675.51475-.3675.68275 0 .716.65025 1.6635 1.1895 1.55625.3175-.2065.4015-1.039.4015-1.298 0-.676-.679-1.2715-1.2235-.941" fill="#5e2590" transform="matrix(1.5003761 0 0 -1.5003761 72.75557722321 66.2199254079)"/><path d="m0 0c-.27194312.03366152-.32063807.30110045-.31813203.46941942.00241169.16198205.09787184.42206601.31213203.44958058.22903495-.04051457.31190679-.27264466.31190679-.43564466 0-.154-.16484077-.39780777-.30590679-.48335534" fill="#202267" transform="matrix(1.5003761 0 0 -1.5003761 68.4193402566 68.08024173429)"/><path d="m0 0c-.18400388.36958058.14064272 1.046134.616.914.20377863-.27461165-.27054757-1.02913397-.616-.914" fill="#b00062" transform="matrix(1.5003761 0 0 -1.5003761 67.45399827386 69.6017731373)"/><path d="m0 0c-.38936301-.18022166-.851125.161875-.714.449.014.001.2395.151.2525.151.304 0 .589-.2985.4615-.6" fill="#b00062" transform="matrix(1.5003761 0 0 -1.5003761 69.07710513884 72.41962949071)"/><path d="m-.8-.25c-.422 0-.1745.3775-.326.625-.06825.436.52725.67875.86925.67875.438 0 .95225-.44925 1.01375-.89475-.01325-.27075-.66925-.434-.93825-.434" fill="#202267" transform="matrix(1.5003761 0 0 -1.5003761 65.68235417498 70.22908038471)"/><path d="m-.86875-.14375c-.526 0-.418.39775-.41525.79075-.01825.44975.699.592 1.117.592.51 0 1.15425-.2655 1.311-.758-.0015-.45325-.56375-.6185-1.01275-.6185" fill="#202267" transform="matrix(1.5003761 0 0 -1.5003761 65.93336709651 66.11159825348)"/><path d="m0 0c-.36342915.35431046-.10545515.93216464.227.863.35178186-.32472009.14224817-.88459238-.227-.863" fill="#202267" transform="matrix(1.5003761 0 0 -1.5003761 62.8634475583 67.35976113107)"/><path d="m0 0c-1.2256152.02225281-1.016.743-1.063 1.388.52875.16075 1.20775-.0135 1.20775-.6625 0-.021.2-.56075-.14475-.7255" fill="#5e2590" transform="matrix(1.5003761 0 0 -1.5003761 50.0682401775 69.0811426306)"/><path d="m-.95 0c-.644 0-.229.445-.37 1.042.11775.209.42275.3655.58275.3655.679 0 1.506-.50825 1.53925-1.1445-.224-.165-.11975-.6505-.42075-.6505" fill="#5e2590" transform="matrix(1.5003761 0 0 -1.5003761 48.0367309381 71.02187911595)"/><path d="m0 0c-.55684403.09973395-1.2457495.85454951-.803 1.308.40203107.2094233 1.11774563-.193899 1.11674563-.69789904-.001-.11-.02-.61716698-.31374563-.61010096" fill="#5e2590" transform="matrix(1.5003761 0 0 -1.5003761 53.22818228171 73.84213607112)"/><path d="m0 0c-.055.15-.086.313-.086.483 0 .034.002.067.004.101-.33475.55575.049.9995.388.868.255.265.613.43 1.009.43.095 0 .187-.009.276-.027.36875-.26175.83925-.94325.66-1.294-.222.082-.463.126-.714.126-.61 0-1.159-.265-1.537-.687" fill="#ec008c" transform="matrix(1.5003761 0 0 -1.5003761 52.76936727033 69.28234306561)"/><path d="m1.1875-.6875c-.014 0-1.2145.6875-1.2285.6875.026375.536.34175.9265.83875.9265.141 0 .527-.151125.71025-.3015" fill="#202267" transform="matrix(1.5003761 0 0 -1.5003761 42.12089801341 66.77431437685)"/><path d="m0 0c-.531.01-1.014.215-1.382.547-.009.043-.5065-.339-.5185-.297-3.9505697-.32894575-.5364123 1.5752927-.4455 1.9375.1429016.5693401-.093.332.37.6255.278.83 1.054 1.432 1.973 1.45.57693072.3801357 1.5319684-.0746647 1.645-.722.331-.375.532-.868.532-1.407 0-.589-.239-1.123-.625-1.51-.127.042-.263.065-.404.065-.497 0-.928-.279-1.145-.689" fill="#2e3192" transform="matrix(1.5003761 0 0 -1.5003761 42.05938259331 66.77371422641)"/><path d="m0 0h-.001c-1.2098546-.03928676-1.9784979.26868293-2.223 1.311-.204.366-.32.788-.32 1.238 0 1.236.884 2.266 2.055 2.494.13.2065.318375.2465.579375.2465.236 0 .475125-.103625.620625-.3005 1.06-.307 1.835-1.283 1.835-2.44 0-1.408-1.139-2.549-2.546-2.549" fill="#2e3192" transform="matrix(1.5003761 0 0 -1.5003761 28.45472230656 64.07813852515)"/><path d="m0 0c-.391.443-.963.722-1.601.722-.015 0-.029 0-.044 0-.159.251-.252.549-.252.869 0 .237.052.462.144.665.07225.63225.58825 1.10425 1.16525 1.10425.23775317 0 .7826162-.2684806 1.18829744-.6054704.12156938-.1009848.23064018-.2081218.31520256-.3160296-.044-.161-.68575-1.12275-.68575-1.29675 0-.354.095-.684.26-.968-.15-.083-.315-.143-.49-.174m.759 2.462c.008.061-.321375.194875-.321375.257875 0 .056.07725.151625.324375.093125.065-.056.125-.116.181-.182-.065-.052-.127-.109-.184-.169" fill="#ec008c" transform="matrix(1.5003761 0 0 -1.5003761 44.52300014951 61.46028230587)"/><path d="m0 0c-.426 0-.808.186-1.071.48.024.101.037.207.037.315 0 .365-.142.694-.373.937.005.026.011.051.017.075.345.234.621.56.794.942.182.083.383.129.596.129.775 0 1.408-.614 1.438-1.382.2164932-.3385825-.0173913-.1584733-.0173913-.6784733 0-.048-.52189608-.67449563-.7246087-.6375267-.206-.115-.444-.18-.696-.18" fill="#2e3192" transform="matrix(1.5003761 0 0 -1.5003761 40.76830895926 57.96995738444)"/><path d="m0 0c-.389.157-.724.418-.971.749-.4241359.00073981-.5403961.4947767-.5403961.6687767 0 .434-.1226117.6824175.1013961.8722233.098 1.16 1.07 2.069 2.254 2.069 1.248 0 2.26-1.011 2.26-2.262 0-.331-.071-.646-.2-.929.2307184-.48735922-.3382854-.87555339-.4492854-1.29555339-.018-.013-.4425864-.078033-.4615864-.090033-.245.238-.6939049-.27007377-1.0609049-.27007377-.459-.00000001-.78445048.02248736-.9322233.48766016" fill="#2e3192" transform="matrix(1.5003761 0 0 -1.5003761 35.51699260926 55.5972626199)"/><path d="m0 0c.081.672.10586745 1.328099.76675 1.31075l.71425-.01875c.177-.001.221-.136.376-.199.2735-.63225-1.4975-1.515-1.857-1.093" fill="#202267" transform="matrix(1.5003761 0 0 -1.5003761 33.18585826269 46.57445086733)"/><path d="m-.1016466-.11490485-.15284077.0265165c-.245.001-.27988763.15338835-.45288763.30138835.008.013.076375.051.084375.064.073007 1.2215016 2.5981076 1.4027221 2.7854.7275609.1872924-.67516107-1.64567085-.95129737-1.55736311-.99991624-.088-.026-.4594233-.11071068-.5564233-.11071068" fill="#202267" transform="matrix(1.5003761 0 0 -1.5003761 31.42666728544 42.05426779086)"/><path d="m0 0c-.2425.04975-.356875.532375-.354875.731375.001.3.237625.6465.468875.676625.24075-.09125.32975-.4485.32875-.6595-.002-.296-.173625-.698-.44275-.7485" fill="#b00062" transform="matrix(1.5003761 0 0 -1.5003761 27.70303388046 45.35029400734)"/><path d="m-.1715-.1375c-.202 0-.2335.1755-.4115.2445.0095.59425.0096 1.0959843.5655 1.061l.7945-.05c.285-.001.38975-.174.579-.386.0235-.45975-.2005-.86325-.7685-.86325" fill="#8e8c8c" transform="matrix(1.5003761 0 0 -1.5003761 33.17085450169 38.45786627916)"/><path d="m0 0c-.101875.0425-.173625.2985-.172625.3545 0 .233.166625.444625.306625.4665.067625-.03375.187375-.282125.187375-.322125-.002-.248-.13125-.481875-.321375-.498875" fill="#202267" transform="matrix(1.5003761 0 0 -1.5003761 30.75599916874 36.26461649618)"/><path d="m0 0c-.34275.09-.4895.65725-.4895 1.00525 0 .248.1145.641.4165.71775.37475.0015.637-.5415.637-.8835 0-.292-.28425-.73375-.564-.8395" fill="#202267" transform="matrix(1.5003761 0 0 -1.5003761 27.90693499245 29.61164879356)"/><path d="m.06375-.19375c-.149.001-.36075.21975-.49275.26775-.065.986 1.24325 1.4605 1.716 1.076-.071-.648-.245-1.275-.912-1.275" fill="#202267" transform="matrix(1.5003761 0 0 -1.5003761 35.49433693015 22.85965626834)"/><path d="m-.3875-.23125c-.231 0-.123.2725-.2485.39725 0 0 .0759378.17462692.18825.5135.029.0875.86331584-.050625.86625-.05.41075.0875.3105-.1625.4935-.2515.04725-.27775-.34975-.6155-.70575-.6155" fill="#8e8c8c" transform="matrix(1.5003761 0 0 -1.5003761 38.73845013357 17.18838464795)"/><path d="m-.01875-.15625c-.057 0-.09525.15925-.15025.16425.02675.329.404.52725.758.52725.109 0 .414.05475.466-.19525.0155-.38275-.2485-.515-.6425-.515" fill="#b00062" transform="matrix(1.5003761 0 0 -1.5003761 37.6301223085 13.87810485852)"/><path d="m-.145.008c-.137375.3685.4326314.44600873.62025.49.1876186.0439913.468625-.040625.4175-.1125.007-.038.04-.135375.049-.173375-.206-.117-.628375-.418375-.882375-.418375" fill="#202267" transform="matrix(1.5003761 0 0 -1.5003761 39.18016085741 20.64270054298)"/><path d="m0 0c-.058.008-.117.013-.177.013-.018.097-.33635922.31632427-.33635922.41832427 0 .545.41909903 1.31726213.97235922 1.21767573.8658583-.2332806.40618018-.82271729.34948737-1.00687766-.003-.456-.36000194-.6301903-.80848737-.64212234" fill="#b00062" transform="matrix(1.5003761 0 0 -1.5003761 40.45728099373 20.21494331687)"/><path d="m0 0c0 .013-.23708609-.12200637-.25-.1235-1.325-.15325-1.796 1.55075-1.004 1.9635.083.177.205.331.355.453.045-.005.091-.007.137-.008h.008c.253 0 .492.067.698.185.11709342.079364.27596306.1821056.27596306.1821056.34407424-.0529237 1.57127234-.8722901.98503694-1.4101056-.023-.663-.545-1.199-1.205-1.242" fill="#2e3192" transform="matrix(1.5003761 0 0 -1.5003761 40.31204458725 24.07120996909)"/><path d="m0 0c-.56125.065-.7775.44525-.7775.93725 0 .029.13225.3455.2895.43075.4695.046.71575-.59475.71575-1.06075 0-.059.00325-.2305-.22775-.30725" fill="#5e2590" transform="matrix(1.5003761 0 0 -1.5003761 45.17911461804 20.01119224249)"/><path d="m-.3875-.20625c-.253 0-.245.169-.3325.33125.08375.59425.89 1.11275 1.573 1.11275.285 0 .68725-.112.849-.39175.02975-.65775-1.131-1.05225-1.827-1.05225" fill="#2f8db4" transform="matrix(1.5003761 0 0 -1.5003761 45.96546173205 16.74337309669)"/><path d="m0 0c-.8375.01775-1.46425.90675-1.285 1.755.06.009.297.18175.359.18175.678 0 1.19575-.69075 1.19575-1.37075 0-.194-.05225-.353-.26975-.566" fill="#202267" transform="matrix(1.5003761 0 0 -1.5003761 44.71204753811 16.48770900925)"/><path d="m-.69375-.14375c-.582 0-.6875.634-.54325 1.05675.095.32725.56175.27575.68775.27575.637 0 1.36425-.478 1.27925-.96275-.0455-.2545-.36525-.401-.63625-.401" fill="#2f8db4" transform="matrix(1.5003761 0 0 -1.5003761 47.26748811163 11.76017395576)"/><path d="m0 0c-.33475.075-.4515.4895-.4515.7915 0 .254.12.668.3795.7095.30575-.0715.41775-.53875.41775-.83975 0-.228-.086-.64275-.34575-.66125" fill="#202267" transform="matrix(1.5003761 0 0 -1.5003761 49.01302566637 14.52371669435)"/><path d="m0 0c-.442 0-.833.224-1.065.564-.5166272.448165-.3486466 1.1837613-.1577883 1.5806505s.91654298.4610076.88449704.5729708c.11-.016.99891261-.090291.99891261-.090291l.48932035-.3254254s.3903961-.7038098.3903961-.9868098c0-.291-.05326-.86593975-.2649106-1.27739412-.1586136-.19093592-.7654272.06729902-.7654272.06729902-.156-.067-.329-.105-.51-.105" fill="#2e3192" transform="matrix(1.5003761 0 0 -1.5003761 66.99953435317 24.18598874074)"/><path d="m0 0c-.497375-.103625-1.002125.1385-.972.759.091.02.219375.184125.316375.184125.446 0 1.0505-.25625 1.036625-.722125-.14-.051-.269-.127-.381-.221" fill="#5e2590" transform="matrix(1.5003761 0 0 -1.5003761 65.75887335608 20.77338330129)"/><path d="m0 0c0 .232.114.361.344.361h.303c.216 0 .346-.129.346-.361v-4.035h1.716l2.579 4.15c.1.174.231.246.418.246h.361c.287 0 .389-.188.244-.433l-2.768-4.351v-.031l2.97-4.899c.157-.229.042-.418-.232-.418h-.402c-.187 0-.316.073-.418.248l-2.752 4.593h-1.716v-4.48c0-.23-.13-.361-.346-.361h-.303c-.23 0-.344.131-.344.361zm-10.207 0c0 .232.129.361.359.361h.289c.23 0 .361-.129.361-.361v-6.225c0-1.745 1.123-2.783 2.868-2.783 1.742 0 2.881 1.038 2.881 2.812v6.196c0 .232.13.361.361.361h.287c.23 0 .346-.129.346-.361v-6.24c0-2.248-1.571-3.703-3.862-3.703-2.305 0-3.89 1.455-3.89 3.703zm60.085 13.779c0 .317.158.475.475.475h.461c.317 0 .475-.158.475-.475v-4.004h5.288v4.004c0 .317.175.475.478.475h.474c.303 0 .46-.158.46-.475v-9.222c0-.317-.157-.478-.46-.478h-.474c-.303 0-.478.161-.478.478v3.991h-5.288v-3.991c0-.317-.158-.478-.475-.478h-.461c-.317 0-.475.161-.475.478zm-5.394.647c1.744 0 2.866-.676 3.372-1.051.231-.173.245-.404.086-.663l-.188-.287c-.171-.26-.387-.289-.662-.115-.431.286-1.326.806-2.55.806-2.363 0-3.762-1.729-3.762-3.878 0-2.159 1.428-4.019 3.777-4.019 1.34 0 2.32.648 2.768.995.242.188.473.188.66-.058l.218-.289c.172-.23.157-.459-.074-.663-.517-.433-1.758-1.296-3.617-1.296-3.14 0-5.201 2.334-5.201 5.316 0 2.954 2.132 5.202 5.173 5.202m-9.81-5.055c1.107 0 1.816.748 1.816 1.887 0 .733-.319 1.309-.951 1.584-.261.116-.562.174-1.21.174h-1.703v-3.645zm-3.459 4.408c0 .317.159.475.476.475h2.737c.994 0 1.485-.087 1.902-.274.965-.434 1.601-1.369 1.601-2.666 0-1.296-.694-2.418-1.815-2.795v-.028s.13-.147.302-.462l1.828-3.385c.189-.335.043-.565-.315-.565h-.578c-.273 0-.446.104-.562.333l-1.988 3.719h-2.177v-3.574c0-.317-.156-.478-.473-.478h-.462c-.317 0-.476.161-.476.478zm-4.064-5.591-1.123 3.229c-.174.517-.389 1.439-.389 1.439h-.028s-.233-.922-.403-1.439l-1.14-3.229zm-2.406 5.678c.087.273.259.388.533.388h.693c.257 0 .446-.115.532-.388l3.344-9.237c.114-.333-.045-.55-.39-.55h-.491c-.272 0-.446.133-.532.391l-.907 2.536h-3.833l-.894-2.536c-.072-.258-.261-.391-.521-.391h-.487c-.361 0-.505.217-.389.55zm-10.507-.087c0 .317.159.475.476.475h4.958c.315 0 .474-.158.474-.475v-.289c0-.302-.159-.474-.474-.474h-4.022v-3.185h3.185c.303 0 .477-.16.477-.476v-.288c0-.317-.174-.477-.477-.477h-3.185v-3.271h4.267c.317 0 .475-.157.475-.473v-.289c0-.317-.158-.478-.475-.478h-5.203c-.317 0-.476.161-.476.478zm-8.166-8.156.245.346c.172.229.374.26.648.086.362-.259 1.139-.822 2.22-.822 1.082 0 1.786.576 1.786 1.454 0 2.25-4.899 1.745-4.899 4.917 0 1.713 1.442 2.822 3.3 2.822 1.21 0 2.163-.473 2.551-.776.245-.174.273-.39.145-.65l-.204-.359c-.171-.304-.401-.275-.647-.131-.39.231-1.01.59-1.875.59-1.051 0-1.828-.545-1.828-1.426 0-2.189 4.9-1.599 4.9-4.87 0-1.6-1.197-2.896-3.229-2.896-1.471 0-2.594.676-3.055 1.051-.187.172-.274.376-.058.664m-7.454 8.156c0 .317.159.475.478.475h4.956c.315 0 .473-.158.473-.475v-.289c0-.302-.158-.474-.473-.474h-4.022v-3.185h3.187c.302 0 .474-.16.474-.476v-.288c0-.317-.172-.477-.474-.477h-3.187v-3.271h4.266c.317 0 .477-.157.477-.473v-.289c0-.317-.16-.478-.477-.478h-5.2c-.319 0-.478.161-.478.478zm-5.338-4.408c1.109 0 1.816.748 1.816 1.887 0 .733-.319 1.309-.951 1.584-.26.116-.562.174-1.211.174h-1.701v-3.645zm-3.459 4.408c0 .317.158.475.477.475h2.737c.994 0 1.484-.087 1.903-.274.966-.434 1.598-1.369 1.598-2.666 0-1.296-.691-2.418-1.815-2.795v-.028s.129-.147.303-.462l1.83-3.385c.188-.335.042-.565-.318-.565h-.576c-.274 0-.447.104-.56.333l-1.991 3.719h-2.176v-3.574c0-.317-.158-.478-.475-.478h-.46c-.319 0-.477.161-.477.478zm50.584 9.637c1.108 0 1.814.749 1.814 1.888 0 .735-.316 1.312-.949 1.584-.26.116-.561.174-1.212.174h-1.7v-3.646zm-3.459 4.41c0 .316.159.474.475.474h2.739c.994 0 1.484-.086 1.902-.272.965-.433 1.6-1.369 1.6-2.666 0-1.296-.693-2.421-1.817-2.796v-.029s.128-.144.304-.462l1.829-3.386c.187-.33.043-.562-.316-.562h-.577c-.274 0-.447.102-.562.331l-1.989 3.719h-2.176v-3.573c0-.319-.159-.477-.474-.477h-.463c-.316 0-.475.158-.475.477zm-13.044.646c1.743 0 2.867-.676 3.373-1.049.231-.174.244-.404.087-.665l-.188-.287c-.174-.259-.391-.288-.663-.115-.432.289-1.326.807-2.552.807-2.363 0-3.76-1.728-3.76-3.877 0-2.161 1.427-4.018 3.776-4.018 1.338 0 2.318.646 2.766.992.244.187.475.187.663-.056l.217-.29c.171-.229.158-.459-.073-.662-.518-.433-1.758-1.297-3.617-1.297-3.141 0-5.202 2.334-5.202 5.317 0 2.955 2.134 5.2 5.173 5.2m-15.018-.646c0 .316.159.474.475.474h.548c.273 0 .432-.086.577-.317l4.335-6.297c.361-.547.837-1.469.837-1.469h.029s-.084.908-.084 1.469v6.14c0 .316.172.474.474.474h.462c.314 0 .475-.158.475-.474v-9.222c0-.319-.161-.477-.475-.477h-.548c-.26 0-.433.087-.563.317l-4.35 6.284c-.363.561-.839 1.484-.839 1.484h-.027s.087-.908.087-1.484v-6.124c0-.319-.16-.477-.475-.477h-.463c-.316 0-.475.158-.475.477zm-4.063-5.591-1.125 3.227c-.173.518-.39 1.44-.39 1.44h-.027s-.231-.922-.403-1.44l-1.138-3.227zm-2.408 5.677c.089.274.26.388.534.388h.691c.259 0 .447-.114.534-.388l3.342-9.237c.116-.332-.043-.548-.388-.548h-.489c-.274 0-.448.129-.534.388l-.908 2.538h-3.832l-.896-2.538c-.07-.259-.257-.388-.518-.388h-.49c-.359 0-.503.216-.387.548zm-8.053.56c1.743 0 2.867-.676 3.373-1.049.229-.174.243-.404.086-.665l-.187-.287c-.173-.259-.39-.288-.663-.115-.433.289-1.326.807-2.55.807-2.364 0-3.762-1.728-3.762-3.877 0-2.161 1.426-4.018 3.776-4.018 1.34 0 2.318.646 2.766.992.247.187.476.187.664-.056l.216-.29c.171-.229.158-.459-.073-.662-.518-.433-1.758-1.297-3.617-1.297-3.142 0-5.202 2.334-5.202 5.317 0 2.955 2.133 5.2 5.173 5.2m34.935-.646c0 .316.158.474.475.474h4.959c.315 0 .473-.158.473-.474v-.289c0-.303-.158-.475-.473-.475h-4.022v-3.185h3.187c.3 0 .475-.159.475-.474v-.289c0-.317-.175-.475-.475-.475h-3.187v-3.271h4.266c.317 0 .475-.16.475-.477v-.287c0-.319-.158-.477-.475-.477h-5.203c-.317 0-.475.158-.475.477z" fill="#2e3192" transform="matrix(1.5003761 0 0 -1.5003761 112.89468891368 52.27047869337)"/><path d="m0 0c-.449 0-.87.121-1.232.332.206.197.334.474.334.78 0 .596-.485 1.084-1.081 1.084-.16 0-.312-.035-.449-.098-.017.116-.026.235-.026.356 0 .19.022.374.062.551.472.212.799.684.799 1.236 0 .027 0 .053-.002.08.429.367.986.589 1.595.589 1.358 0 2.456-1.099 2.456-2.456 0-.151-.014-.299-.04-.442-.38-.228-.633-.644-.633-1.121 0-.04.001-.08.005-.12-.448-.474-1.083-.771-1.788-.771" fill="#2e3192" transform="matrix(1.5003761 0 0 -1.5003761 55.07589544886 19.68050935005)"/><path d="m0 0c-1.496 0-2.762.985-3.187 2.34.136.236.214.51.214.802 0 .342-.106.66-.287.921.331 1.493 1.664 2.612 3.26 2.612.453 0 .885-.09 1.279-.254.6415.14325 1.2161799-.4612649 1.302664-.5444544.39375-.37875.699336-.8050456.713586-1.3487956.0006287-.0239918-.05925-.36675-.05925-.36675.066-.263.102-.539.102-.822 0-1.842-1.494-3.339-3.338-3.339" fill="#2e3192" transform="matrix(1.5003761 0 0 -1.5003761 32.68863362315 33.12222879234)"/><path d="m0 0c-1.142 0-2.068.924-2.068 2.065 0 1.145.926 2.072 2.068 2.072s2.069-.927 2.069-2.072c0-1.141-.927-2.065-2.069-2.065" fill="#2e3192" transform="matrix(1.5003761 0 0 -1.5003761 46.5003458117 6.59647957)"/><path d="m0 0c-.665 0-1.205.541-1.205 1.205 0 .667.54 1.207 1.205 1.207.666 0 1.206-.54 1.206-1.207 0-.664-.54-1.205-1.206-1.205" fill="#ec008c" transform="matrix(1.5003761 0 0 -1.5003761 22.76844692517 15.93121951376)"/><path d="m0 0c-.0625-.2285-.344-.17625-.575-.17625-.117 0-.42475.04425-.416.27125-.374.211-.625.611-.625 1.068 0 .618.451 1.126 1.044 1.214.077-.791.584-1.455 1.284-1.754-.143-.292-.4-.519-.712-.623" fill="#2e3192" transform="matrix(1.5003761 0 0 -1.5003761 43.64317960447 17.42184316911)"/><path d="m0 0c-.126 0-.248.014-.366.04.001.015.001.03.001.046 0 .652-.48 1.193-1.109 1.282.338.256.558.66.561 1.115 0 .189-.036.369-.102.534.196.149.425.256.673.308.178-.101.384-.158.604-.158.135 0 .266.022.388.063.201-.085.383-.207.535-.358-.001-.029-.002-.058-.002-.087 0-.492.186-.941.49-1.281-.088-.845-.803-1.504-1.673-1.504" fill="#ec008c" transform="matrix(1.5003761 0 0 -1.5003761 42.6683852523 22.26760785928)"/><path d="m0 0c-.895 0-1.618.725-1.618 1.613 0 .894.723 1.615 1.618 1.615.549 0 1.034-.274 1.325-.694-.052-.233-.079-.476-.079-.724 0-.348.053-.684.152-.999-.278-.484-.8-.811-1.398-.811" fill="#bdbbbc" transform="matrix(1.5003761 0 0 -1.5003761 25.80910912943 30.82830377305)"/><g fill="#2e3192"><path d="m0 0c-.04 0-.08.002-.12.005-.132.526-.584.924-1.135.981-.024.099-.037.202-.037.308 0 .71.579 1.291 1.292 1.291.712 0 1.292-.581 1.292-1.291 0-.713-.58-1.294-1.292-1.294" transform="matrix(1.5003761 0 0 -1.5003761 61.80028105384 17.87255614955)"/><path d="m0 0c.016.109.024.221.024.335 0 .715-.328 1.355-.843 1.777.187.128.413.202.657.202.641 0 1.164-.517 1.164-1.162 0-.588-.437-1.073-1.002-1.152" transform="matrix(1.5003761 0 0 -1.5003761 65.14446934313 7.58102636682)"/><path d="m0 0c.022.069.033.143.033.219 0 .401-.325.729-.729.729-.274 0-.512-.152-.637-.376-.088.164-.138.351-.138.55 0 .22.061.426.168.602.369-.252.815-.4 1.296-.4.284 0 .556.052.808.146.034-.11.052-.227.052-.348 0-.534-.361-.986-.853-1.122" transform="matrix(1.5003761 0 0 -1.5003761 61.74461710053 12.51291264513)"/><path d="m0 0c-.252.167-.555.265-.881.265-.103 0-.204-.01-.301-.028-.212.203-.343.489-.343.806 0 .115.017.225.049.33.069.11.129.226.179.348.205.268.527.44.888.44.344 0 .651-.153.856-.395-.13-.179-.207-.399-.207-.637 0-.276.104-.528.276-.719-.126-.184-.305-.328-.516-.41" transform="matrix(1.5003761 0 0 -1.5003761 66.86870155725 10.97202639043)"/><path d="m0 0c-.641 0-1.6245.4825-1.6245 1.1255 0 .4.6625.7885.9685.9975.68275-.05325 1.3295-.68075 1.3295-1.39575 0-.114-.4955-.60725-.5115-.71625-.053-.007-.107-.011-.162-.011" transform="matrix(1.5003761 0 0 -1.5003761 64.90125837732 7.59783057914)"/><path d="m-.86875-.19375c-.481 0-.05825.34175-.42725.59375.203.338.597.939 1.02.939.521 0 .936-.72 1.084-1.193-.252-.094-.71775-.37725-1.00175-.37725" transform="matrix(1.5003761 0 0 -1.5003761 61.73411446783 10.52641468873)"/><path d="m0 0c.039.127.1.245.179.348-.05-.122-.11-.238-.179-.348" transform="matrix(1.5003761 0 0 -1.5003761 64.65414643365 8.91276019318)"/><path d="m0 0c-.683 0-1.242.524-1.302 1.19.318.337.542.765.628 1.24.197.118.427.186.674.186.046 0 .092-.002.137-.007.129-.527.582-.929 1.135-.98.025-.102.039-.209.039-.319 0-.275-.085-.53-.23-.741-.053.012-.108.018-.165.018-.348 0-.639-.245-.711-.571-.067-.011-.135-.016-.205-.016" transform="matrix(1.5003761 0 0 -1.5003761 59.71220763547 20.30826671029)"/><path d="m0 0c-.25148737.08761359-.34971456.26903495-.34971456.31003495 0 .477.67284466 1.05109905.97771456.92996505.4045553-.2186738-.18625631-1.33952232-.628-1.24" transform="matrix(1.5003761 0 0 -1.5003761 57.75856791566 18.5229691889)"/><path d="m0 0c-.45577282-.28487572-1.5761048.44858058-1.135.98.49796699.2877146 1.35655339-.56448543 1.135-.98" transform="matrix(1.5003761 0 0 -1.5003761 61.62038595945 17.864304081)"/></g><path d="m0 0c-.205.008-.44925-.1035-.541.207.2535.0415.412625.009.541-.207" fill="#ec008c" transform="matrix(1.5003761 0 0 -1.5003761 63.35872170891 4.0398386956)"/><path d="m0 0c-.556 0-1.006.449-1.006 1.005 0 .361.188.677.472.855.037-.003.074-.005.112-.005.216 0 .421.051.603.142.471-.085.829-.495.829-.992 0-.556-.453-1.005-1.01-1.005" fill="#2e3192" transform="matrix(1.5003761 0 0 -1.5003761 52.8034258078 12.00278477113)"/><path d="m0 0c-1.4619233-1.0101862-1.64825.87475-1.406 1.1.085.471.497.825.99.825.556 0 1.008-.449 1.008-1.007 0-.41-.243-.76-.592-.918" fill="#2e3192" transform="matrix(1.5003761 0 0 -1.5003761 40.14190193751 10.1298652855)"/><path d="m0 0c-.15339029.36135534.22599806.71242136.57399806.71242136.057 0 .24900194-.14742136.30100194-.15942136.1412951-.40932427-.55719417-.84513397-.875-.553" fill="#2e3192" transform="matrix(1.5003761 0 0 -1.5003761 60.02008481119 20.28411065508)"/><path d="m0 0c-.403 0-.729.328-.729.726 0 .403.326.73.729.73s.729-.327.729-.73c0-.398-.326-.726-.729-.726" fill="#bdbbbc" transform="matrix(1.5003761 0 0 -1.5003761 8.6383549282 8.66879903932)"/><path d="m0 0c-.402 0-.728.325-.728.727 0 .128.033.249.091.354.196-.365.581-.614 1.024-.614.107 0 .211.014.309.042-.093-.296-.369-.509-.696-.509" fill="#2e3192" transform="matrix(1.5003761 0 0 -1.5003761 60.70065541015 13.27600392959)"/><path d="m-.73125 0c-.444 0-.09675.249-.29275.613.05525.2865.54425.5885.81825.5885.403 0 .57637718-.48791545.607125-.925875.00480117-.06838593-.0495-.171875-.093375-.233625-.098-.028-.46975-.2045-.57675-.2045" fill="#2e3192" transform="matrix(1.5003761 0 0 -1.5003761 61.28190111129 12.57517825328)"/><path d="m0 0c-.402 0-.727.325-.727.729 0 .398.325.726.727.726.403 0 .729-.328.729-.726 0-.404-.326-.729-.729-.729" fill="#ec008c" transform="matrix(1.5003761 0 0 -1.5003761 27.80325900394 4.09625283696)"/><path d="m0 0c-.039.014-.078.029-.116.046.081.163.126.346.126.54 0 .68-.549 1.228-1.226 1.228-.063 0-.124-.005-.184-.014-.007.069-.01.139-.01.21 0 1.051.76 1.924 1.76 2.099.162-.529.655-.913 1.237-.913.271 0 .523.084.731.227.148-.168.271-.359.361-.568-.122-.204-.192-.442-.192-.697 0-.301.098-.579.264-.804-.074-.23-.187-.444-.33-.633-.243.111-.513.173-.798.173-.684 0-1.284-.356-1.623-.894" fill="#bdbbbc" transform="matrix(1.5003761 0 0 -1.5003761 44.88564105288 16.5559761218)"/><path d="m0 0c-1.177 0-2.132.955-2.132 2.133 0 .655.295 1.24.759 1.63.332.07.632.225.876.442.16.038.326.058.497.058 1.177 0 2.134-.952 2.134-2.13s-.957-2.133-2.134-2.133" fill="#ec008c" transform="matrix(1.5003761 0 0 -1.5003761 31.75149871109 18.81119143771)"/><path d="m0 0c-.393.221-.659.642-.659 1.126 0 .362.148.688.387.922.055-.005.112-.007.169-.007.394 0 .758.126 1.055.339.559-.141.973-.648.973-1.254 0-.358-.144-.681-.378-.914-.183.089-.388.139-.605.139-.003 0-.007 0-.01 0-.358 0-.684-.132-.932-.351" fill="#bdbbbc" transform="matrix(1.5003761 0 0 -1.5003761 37.7846610468 16.93977232818)"/><path d="m0 0c-.715 0-1.294.577-1.294 1.293 0 .218.054.423.149.604.014-.001.027-.001.041-.001.589 0 1.122.239 1.508.625.514-.169.886-.654.886-1.228 0-.716-.578-1.293-1.29-1.293" fill="#bdbbbc" transform="matrix(1.5003761 0 0 -1.5003761 43.77731322781 69.61932753767)"/><path d="m0 0c-.39.441-.961.718-1.598.718-.126 0-.249-.011-.369-.032-.037.12-.057.248-.057.38 0 .715.579 1.29 1.294 1.29.712 0 1.29-.575 1.29-1.29 0-.443-.222-.833-.56-1.066" fill="#40c2f3" transform="matrix(1.5003761 0 0 -1.5003761 48.36276266463 11.42048880672)"/><path d="m0 0c-.713 0-1.292.578-1.292 1.289 0 .716.579 1.294 1.292 1.294.714 0 1.292-.578 1.292-1.294 0-.711-.578-1.289-1.292-1.289" fill="#ec008c" transform="matrix(1.5003761 0 0 -1.5003761 21.67047169519 23.62154725192)"/><path d="m-.778125-.09375c-.3 0-.063625.21275.004125.40675.02925.119.283375.21025.386375.21025.326 0 .762375-.213625.796625-.44625.023-.14375-.499375-.280125-.643375-.280125" fill="#2e3192" transform="matrix(1.5003761 0 0 -1.5003761 66.25549784518 11.08695519969)"/><path d="m0 0c-.692 0-1.249.557-1.249 1.247 0 .692.557 1.247 1.249 1.247.688 0 1.25-.555 1.25-1.247 0-.69-.562-1.247-1.25-1.247" fill="#ec008c" transform="matrix(1.5003761 0 0 -1.5003761 11.25441069616 17.7232687276)"/><path d="m0 0c-.26 1.025-.995 1.861-1.957 2.26.032.174.087.339.162.493.133-.047.276-.073.424-.074h.005c.667 0 1.217.503 1.287 1.15h.008c.233 0 .456-.041.663-.117-.079-.168-.124-.355-.124-.553 0-.713.579-1.29 1.292-1.29.028 0 .057.001.085.003-.02-1.018-.831-1.835-1.845-1.872" fill="#2e3192" transform="matrix(1.5003761 0 0 -1.5003761 37.54325053231 26.87946391546)"/><path d="m0 0c-1.059 0-1.915.858-1.915 1.916s.856 1.916 1.915 1.916c.335 0 .65-.085.923-.236.078-.07.166-.129.262-.173.446-.351.732-.896.732-1.507 0-.57-.248-1.082-.643-1.433-.328-.078-.627-.232-.877-.442-.128-.027-.261-.041-.397-.041" fill="#bdbbbc" transform="matrix(1.5003761 0 0 -1.5003761 29.09553293887 13.2266415559)"/><path d="m0 0c.25.21.548.364.876.442-.244-.217-.544-.372-.876-.442" fill="#b00062" transform="matrix(1.5003761 0 0 -1.5003761 29.6916323634 13.16497609819)"/><path d="m0 0c-.932 0-1.686.755-1.686 1.683 0 .937.754 1.689 1.686 1.689s1.688-.752 1.688-1.689c0-.928-.756-1.683-1.688-1.683" fill="#ec008c" transform="matrix(1.5003761 0 0 -1.5003761 19.45621664681 13.6392449834)"/><path d="m0 0c-.794 0-1.436.647-1.436 1.439 0 .798.642 1.436 1.436 1.436.793 0 1.436-.638 1.436-1.436 0-.792-.643-1.439-1.436-1.439" fill="#bdbbbc" transform="matrix(1.5003761 0 0 -1.5003761 13.91532770951 25.91322170706)"/><path d="m0 0c-.567 0-1.076.247-1.427.638.006.058.009.117.009.177 0 .465-.19.887-.497 1.191.015.343.12.663.292.935.225-.081.467-.125.72-.125.695 0 1.312.332 1.701.846.661-.302 1.119-.967 1.119-1.742 0-1.06-.858-1.92-1.917-1.92" fill="#40c2f3" transform="matrix(1.5003761 0 0 -1.5003761 47.32075146318 20.96873226951)"/><path d="m0 0c-.449 0-.847.216-1.093.55.066.206.102.427.102.655 0 .301-.062.587-.175.846.237.397.67.663 1.166.663.722 0 1.311-.568 1.352-1.28-.392-.337-.677-.794-.796-1.316-.17-.076-.358-.118-.556-.118" fill="#2e3192" transform="matrix(1.5003761 0 0 -1.5003761 50.65368693172 15.34877351174)"/><path d="m-.128125.046875c.119.521.304 1.157125.925125 1.268125.001-.026.230125-.268625.230125-.294625 0-.552-.506125-1.196875-.974-1.039125" fill="#2e3192" transform="matrix(1.5003761 0 0 -1.5003761 51.48744593049 15.17142905672)"/><path d="m0 0c-.698.057-1.245.646-1.245 1.357 0 .364.144.695.379.939.434-.608 1.145-1.005 1.948-1.005.132 0 .261.011.387.032-.013-.519-.317-.967-.754-1.186-.059.011-.119.016-.181.016-.196 0-.379-.056-.534-.153" fill="#2e3192" transform="matrix(1.5003761 0 0 -1.5003761 52.00162481996 9.21268537557)"/><path d="m.034375-.1625c-.038 0-.109375.1645-.146375.1675.155.097.113.2655.309.2655.062 0 .347-.1185.406-.1285-.0445-.10975-.262-.342-.478-.342" fill="#2e3192" transform="matrix(1.5003761 0 0 -1.5003761 52.16981698077 9.21943706802)"/><path d="m0 0c-.005 0-.01 0-.015 0-.714.005-1.291.581-1.287 1.299.006.71.584 1.283 1.296 1.283h.005c.708-.004 1.28-.577 1.284-1.283-.028-.09-.043-.186-.044-.285 0-.019 0-.037.001-.055-.145-.551-.646-.959-1.24-.959" fill="#2e3192" transform="matrix(1.5003761 0 0 -1.5003761 28.06942572408 42.06957162708)"/><path d="m0 0c-.005 0-.01 0-.015 0-.892.003-1.612.731-1.606 1.62.004.897.732 1.614 1.623 1.614h.003c.683-.006 1.265-.431 1.498-1.032-.125-.253-.196-.536-.198-.837-.001-.199.028-.391.084-.571-.281-.475-.797-.794-1.389-.794" fill="#bdbbbc" transform="matrix(1.5003761 0 0 -1.5003761 25.61946159039 46.5409924803)"/><path d="m0 0c-.714.076-1.267.676-1.262 1.409.002.419.186.794.477 1.051.188-.106.405-.166.636-.166.355 0 .678.144.911.378.314-.153.563-.42.693-.746-.402-.307-.663-.792-.663-1.337 0-.102.009-.202.027-.299-.002 0-.004 0-.005 0-.309 0-.592-.109-.814-.29" fill="#bdbbbc" transform="matrix(1.5003761 0 0 -1.5003761 38.9624562853 20.63039745896)"/><path d="m0 0h-.007c-.714.001-1.289.582-1.287 1.3.005.71.584 1.285 1.297 1.285h.006c.71-.009 1.289-.587 1.282-1.302-.002-.709-.581-1.283-1.291-1.283" fill="#2e3192" transform="matrix(1.5003761 0 0 -1.5003761 7.33617851101 35.10797656069)"/><path d="m0 0h-.003c-.537.003-.967.436-.965.974.002.533.437.963.973.963h.002c.534-.004.964-.438.964-.973-.006-.535-.437-.964-.971-.964" fill="#ec008c" transform="matrix(1.5003761 0 0 -1.5003761 1.55237868312 27.0346028042)"/><path d="m0 0c-.003 0-.006 0-.008 0-.533.003-.965.44-.961.974 0 .533.439.963.972.963.533-.003.965-.438.963-.976-.003-.53-.434-.961-.966-.961" fill="#40c2f3" transform="matrix(1.5003761 0 0 -1.5003761 2.24135138824 54.53934743179)"/><path d="m0 0c-.005 0-.009 0-.013 0-.715.001-1.291.585-1.286 1.298.005.712.585 1.286 1.301 1.286.714-.005 1.287-.589 1.284-1.301-.004-.71-.579-1.283-1.286-1.283" fill="#40c2f3" transform="matrix(1.5003761 0 0 -1.5003761 20.32223373173 46.82861457867)"/><path d="m0 0h-.008c-.551.003-.996.453-.992 1.002.004.55.451.992 1.003.992.046 0 .091-.004.135-.01.092-.533.387-.997.803-1.308-.133-.393-.505-.676-.941-.676" fill="#40c2f3" transform="matrix(1.5003761 0 0 -1.5003761 51.816178334 74.85639031472)"/><path d="m0 0c-.293.155-.628.245-.983.248h-.006c-.072 0-.142-.003-.212-.01-.057.225-.192.419-.373.554-.037.118-.057.244-.056.375 0 .116.017.227.047.333.178-.069.372-.107.575-.107.003 0 .005-.001.008-.001.568 0 1.067.291 1.356.732.288-.225.471-.577.469-.973-.003-.533-.348-.986-.825-1.151" fill="#bdbbbc" transform="matrix(1.5003761 0 0 -1.5003761 34.67078048886 40.54713999841)"/><path d="m0 0c-.006 0-.013 0-.019 0-.713 0-1.29.582-1.287 1.297.005.709.583 1.283 1.292 1.283h.009c.712-.003 1.288-.587 1.284-1.299-.003-.708-.574-1.281-1.279-1.281" fill="#2e3192" transform="matrix(1.5003761 0 0 -1.5003761 22.80280553786 37.32088127058)"/><path d="m0 0c-.504.179-.863.663-.86 1.226.004.707.578 1.284 1.287 1.284h.012c.713-.004 1.288-.584 1.284-1.299 0-.045-.002-.09-.007-.135-.754-.003-1.405-.44-1.716-1.076" fill="#bdbbbc" transform="matrix(1.5003761 0 0 -1.5003761 34.85022547042 22.74922858738)"/><path d="m0 0h-.015c-.982.005-1.775.805-1.769 1.79.005.976.796 1.767 1.775 1.767h.014c.982-.004 1.776-.803 1.769-1.787-.003-.98-.797-1.77-1.774-1.77" fill="#2e3192" transform="matrix(1.5003761 0 0 -1.5003761 26.19920691543 22.91877108668)"/><path d="m0 0c-.178.171-.293.408-.306.671.027.104.042.212.043.324v.017c.125.409.507.704.957.704.219-.002.422-.075.586-.197.069-.217.195-.408.362-.555-.659-.068-1.23-.435-1.573-.964-.005 0-.01 0-.014 0-.005 0-.01 0-.015 0-.013 0-.027 0-.04 0" fill="#bdbbbc" transform="matrix(1.5003761 0 0 -1.5003761 30.38900717468 41.63836353594)"/><path d="m0 0c-.167.146-.294.337-.362.555.181-.135.315-.329.372-.554-.003 0-.007-.001-.01-.001" fill="#8e8c8c" transform="matrix(1.5003761 0 0 -1.5003761 32.85307484371 40.19170090032)"/><path d="m0 0c-.003 0-.005 0-.008 0-.145.001-.287.017-.425.046-.67625-.0455-1.80975.3445-1.80575.8575-.347176 1.3231478.0291151 1.9577592.4125705 2.3569692.4459553-.316415.9411795-.2074692.9411795-.2074692.41.12.711.5.714.951 0 .082-.01.162-.028.239.213-.181.488-.291.789-.292h.01c.14 0 .274.023.399.066.68-.36 1.139-1.074 1.136-1.896-.001-.374-.099-.724-.269-1.028-.155.063-.324.098-.501.099h-.008c-.693 0-1.266-.52-1.348-1.192-.003 0-.006 0-.009 0" fill="#2e3192" transform="matrix(1.5003761 0 0 -1.5003761 33.17205480257 46.57460090494)"/><path d="m0 0c-.559.216-.967.735-1.026 1.355.087.217.135.453.136.702.001.039 0 .079-.002.118.252.562.816.952 1.471.952h.014c.895-.004 1.614-.731 1.609-1.625-.002-.324-.098-.625-.263-.877-.207.162-.469.26-.754.261h-.007c-.557 0-1.031-.373-1.178-.886" fill="#bdbbbc" transform="matrix(1.5003761 0 0 -1.5003761 32.29553508495 38.29732603646)"/><path d="m0 0c-.004 0-.008 0-.012 0-1.061.004-1.914.87-1.908 1.929.007 1.055.862 1.904 1.917 1.904h.01c1.019-.006 1.848-.806 1.903-1.808-.089-.2-.14-.421-.141-.654 0-.056.003-.112.008-.167-.283-.707-.973-1.204-1.777-1.204" fill="#2e3192" transform="matrix(1.5003761 0 0 -1.5003761 28.09013091426 38.07106932058)"/><path d="m0 0c-.004 0-.007 0-.011 0-.859.005-1.583.575-1.822 1.356.141.238.222.515.224.811.001.211-.038.412-.109.597.307.62.941 1.051 1.675 1.066.014-.014.029-.027.044-.04-.199-.321-.314-.699-.316-1.105-.006-1.031.721-1.895 1.695-2.099-.349-.362-.838-.586-1.38-.586" fill="#ec008c" transform="matrix(1.5003761 0 0 -1.5003761 30.45307323415 47.38480399894)"/><path d="m0 0c-.015.013-.03.026-.044.04h.041.014.014c-.008-.013-.017-.027-.025-.04" fill="#b00062" transform="matrix(1.5003761 0 0 -1.5003761 30.45457361025 41.6977784295)"/><path d="m0 0c-.004 0-.008 0-.012 0-.749.001-1.352.613-1.35 1.363.001.053.004.105.01.156.797.003 1.493.442 1.857 1.093.499-.203.85-.693.849-1.263-.005-.749-.61-1.349-1.354-1.349" fill="#bdbbbc" transform="matrix(1.5003761 0 0 -1.5003761 35.21406667467 48.8530720504)"/><path d="m0 0c-.517.263-.872.8-.872 1.42 0 .883.715 1.594 1.593 1.594.674 0 1.249-.416 1.483-1.006-.04-.102-.062-.212-.062-.328 0-.187.057-.361.154-.505-.008-.051-.018-.102-.031-.151-.11.016-.223.025-.338.025-.807 0-1.517-.418-1.927-1.049" fill="#2e3192" transform="matrix(1.5003761 0 0 -1.5003761 58.84228957269 5.20623107574)"/><path d="m-.1463163-.43894889c-.259 0-.3586837.50094889-.5746837.61094889.409.631-.07840015 1.3904047.72859985 1.3904047.115 0 1.42640015-.3494047 1.53640015-.3664047-.176-.687-.0893208-1.72552565-.83332084-1.72552565" fill="#2e3192" transform="matrix(1.5003761 0 0 -1.5003761 59.92451085362 5.46504595299)"/><path d="m0 0c-.097.144-.25851164.29361395-.25851164.48161395 0 .115.12651164.24938605.16551164.35138605.072-.182.23393025-.36606511.23393025-.57406511 0-.083-.12893025-.17893489-.14093025-.25893489" fill="#2e3192" transform="matrix(1.5003761 0 0 -1.5003761 62.2873031359 3.44358923346)"/><path d="m0 0c-.14675.026375-.2595.349875-.2595.546875 0 .107.1745.313125.1745.313125s.284625-.306125.284625-.534125c0-.069.025125-.28075-.199625-.325875" fill="#b00062" transform="matrix(1.5003761 0 0 -1.5003761 70.5768810884 17.85605201245)"/><path d="m0 0c-.22.174-.497.278-.798.278-.157 0-.307-.028-.446-.079-.233.343-.626.568-1.071.568-.097 0-.192-.011-.283-.031-.289.388-.461.869-.461 1.39 0 .623.245 1.188.643 1.605.198-.089.418-.138.65-.138.602 0 1.127.335 1.398.829.894-.14 1.619-.788 1.869-1.641-.024-.099-.037-.203-.037-.309 0-.197.044-.384.122-.55-.052-.594-.327-1.124-.741-1.506-.334-.028-.632-.183-.845-.416" fill="#ec008c" transform="matrix(1.5003761 0 0 -1.5003761 68.19758466902 20.7390246886)"/><path d="m-.1875-.24375c-.232 0-.4625.38175-.4625.38175s.3335 1.27625.9945 1.27625c.125 0 .95325-.35375 1.0535-.58525.0675-.568-.60125-.97275-1.20425-.97275" fill="#ec008c" transform="matrix(1.5003761 0 0 -1.5003761 65.54717028837 15.34877351174)"/><path d="m.03125-.1875c-.804 0-1.89625.36575-1.98025 1.1915.247.257.469.55975.854.55975.749 0 1.81325-.46325 1.482-1.49775-.003659-.01142842 0-.023 0-.035-.126-.02-.4675-.4935-.5995-.4935" fill="#2e3192" transform="matrix(1.5003761 0 0 -1.5003761 53.6256319106 7.27509968003)"/><path d="m0 0c.045.0945.124875.18175.289875.18175.025 0 .228125-.09475.252125-.09575-.067875-.207125-.43525-.30175-.542-.086" fill="#202267" transform="matrix(1.5003761 0 0 -1.5003761 71.62924488494 15.2221417689)"/><path d="m0 0c-.576.208-1.022.683-1.191 1.277.335.334.546.791.562 1.297.22-.113.469-.178.734-.178.695 0 1.287.445 1.504 1.067.264-.151.487-.363.653-.616-.913-.214-1.591-1.032-1.591-2.01 0-.053.002-.106.005-.158-.288-.152-.525-.389-.676-.679" fill="#2e3192" transform="matrix(1.5003761 0 0 -1.5003761 75.4065917543 16.29686116933)"/><path d="m-.35625-.175c-.264 0-.37775.353-.37775.353.001.02.001.041.001.061 0 .181-.025.357-.072.523.0335.495.601.783 1.13.783.347 0 .99175-.08575 1.18-.478.06325-.7345-.8475-1.26075-1.5425-1.26075" fill="#2e3192" transform="matrix(1.5003761 0 0 -1.5003761 75.56383116958 12.7015099209)"/><path d="m0 0c-.047.167-.34075.468-.34075.651 0 .372.1935.8315.55775.888.103-.095.5315-.03325.6575-.09825-.016-.506-.4145-1.39425-.8745-1.44075" fill="#2e3192" transform="matrix(1.5003761 0 0 -1.5003761 73.61979385681 14.38058081441)"/><path d="m0 0c-.125.065-.416.197-.52.291.078.125.26375.3025.449.293.25325-.09825.2845-.48575.2845-.66675 0-.021-.40625-.066-.40725-.086" fill="#2e3192" transform="matrix(1.5003761 0 0 -1.5003761 74.4628551874 12.43429293749)"/><path d="m0 0c-.1605-.29775-.983.1435-.878.425.13325.243.81225.0665.89-.321-.005-.034-.009-.069-.012-.104" fill="#202267" transform="matrix(1.5003761 0 0 -1.5003761 73.18138396039 10.11681201343)"/><path d="m-.08125-.153125c-.027 0-.138375.029125-.164375.031125.003.034.141375.403375.146375.437375.048-.032.32625-.3045.37025-.3415-.023-.001-.222-.080125-.246-.080125" fill="#202267" transform="matrix(1.5003761 0 0 -1.5003761 73.30111397317 10.12056295368)"/><path d="m0 0c-.045.037-.091.072-.14.104-.26675.97.69575 1.69925 1.347 1.343.007-.053.185-.28825.185-.34225 0-.687-.6765-1.44275-1.392-1.10475" fill="#b00062" transform="matrix(1.5003761 0 0 -1.5003761 73.40824082671 10.11771223909)"/><path d="m0 0c-.318 0-.604.138-.801.358.124.18.196.398.196.633 0 .275-.099.528-.265.722.026.036.054.07.084.102.286-.296.685-.479 1.129-.479.234 0 .456.051.656.142.049-.124.077-.259.077-.402 0-.103-.015-.203-.042-.298-.355-.162-.651-.43-.85-.762-.06-.011-.121-.016-.184-.016" fill="#2e3192" transform="matrix(1.5003761 0 0 -1.5003761 68.84424676812 10.8935567204)"/><path d="m0 0c-.172.191-.53225.4555-.53225.7315 0 .238.227.57675.46325.6245.3275-.0575.50875-.45325.50875-.72925 0-.235-.31575-.44675-.43975-.62675" fill="#2e3192" transform="matrix(1.5003761 0 0 -1.5003761 67.64259554963 10.35702222704)"/><path d="m0 0c-.14475.3705.36375.90625.85.763.18075-.316-.5295-1.117-.85-.763" fill="#2e3192" transform="matrix(1.5003761 0 0 -1.5003761 69.12016593291 10.87000081563)"/><path d="m0 0c-.77 0-1.398.627-1.398 1.401 0 .772.628 1.4 1.398 1.4.774 0 1.401-.628 1.401-1.4 0-.774-.627-1.401-1.401-1.401" fill="#bdbbbc" transform="matrix(1.5003761 0 0 -1.5003761 56.72375851949 11.86369990666)"/><path d="m0 0c-.773 0-1.399.63-1.399 1.399 0 .774.626 1.399 1.399 1.399s1.398-.625 1.398-1.399c0-.769-.625-1.399-1.398-1.399" fill="#40c2f3" transform="matrix(1.5003761 0 0 -1.5003761 38.957955157 5.69220289453)"/><path d="m0 0c-.157 0-.306.035-.439.097-.083.064-.17.122-.262.173-.213.192-.347.47-.347.779 0 .584.47 1.052 1.048 1.052.581 0 1.052-.468 1.052-1.052 0-.578-.471-1.049-1.052-1.049" fill="#2e3192" transform="matrix(1.5003761 0 0 -1.5003761 31.53319398854 8.23669072252)"/><path d="m0 0c-.096.045-.184.103-.262.173.092-.05.18-.108.262-.173" fill="#202267" transform="matrix(1.5003761 0 0 -1.5003761 30.8739287302 8.09145431604)"/><path d="m0 0c.024.076.055.149.092.218-.025-.075-.056-.148-.092-.218" fill="#b00062" transform="matrix(1.5003761 0 0 -1.5003761 71.45790193432 7.60758302379)"/><path d="m-.7625-.0625c-.1805.06875-.3655.5405-.3655.5405-.029.2975.41875.5775.72875.5775.453 0 1.22125-.4165 1.05525-.9135-.099-.45975-.5345-.3545-.7685-.3545" fill="#2e3192" transform="matrix(1.5003761 0 0 -1.5003761 69.35842565759 8.88875417558)"/><path d="m0 0c-.024 0-.048 0-.071.001-.259.919-1.102 1.592-2.103 1.592-.027 0-.054-.001-.08-.002-.089.25-.137.519-.137.799 0 .544.182 1.045.487 1.446.112-.031.23-.048.352-.048.608 0 1.118.413 1.262.974.095.012.192.017.29.017.591 0 1.132-.213 1.549-.568-.069.012-.139.018-.211.018-.713 0-1.292-.581-1.292-1.294s.579-1.292 1.292-1.292c.427 0 .807.209 1.043.531-.109-1.219-1.132-2.174-2.381-2.174" fill="#bdbbbc" transform="matrix(1.5003761 0 0 -1.5003761 79.21484637132 64.59846895663)"/><path d="m0 0c-.947.043-1.754.623-2.124 1.442.467.278.781.789.781 1.373 0 .449-.185.854-.482 1.143.449.579 1.15.951 1.939.951.616 0 1.18-.227 1.611-.603.3355534.036744.7409786-.1956777.7409786-.2886777 0-.56.298967-.7905126.078021-1.2063223.0170004-.117.0260004-.237.0260004-.36 0-.214-.028-.422-.079-.621.2351165-.85501163-1.4170544-2.26850482-2.491-1.83" fill="#2e3192" transform="matrix(1.5003761 0 0 -1.5003761 55.29540047229 64.36816122528)"/><path d="m0 0c-.951 0-1.721.777-1.721 1.722 0 .954.77 1.724 1.721 1.724.949 0 1.72-.77 1.72-1.724 0-.945-.771-1.722-1.72-1.722" fill="#ec008c" transform="matrix(1.5003761 0 0 -1.5003761 18.33063449659 34.22980642936)"/><path d="m0 0c-.461 0-.888.152-1.231.409.033.098.052.204.052.314.002.504-.369.925-.855.994-.02.114-.03.232-.03.352 0 .53.199 1.013.527 1.379.1845.57125.462.8225 1.065.8225.669 0 1.2675.742 1.52525-.1185.146-.104.39675-.719.56275-.792.284-.354.453-.803.453-1.291 0-1.142-.924-2.069-2.069-2.069" fill="#ec008c" transform="matrix(1.5003761 0 0 -1.5003761 55.07589544886 74.45533978319)"/><path d="m0 0c-1.141 0-2.067.92-2.067 2.064 0 .981.685 1.803 1.602 2.014.142-.596.677-1.042 1.321-1.042.3 0 .578.098.802.263.258-.344.411-.772.411-1.235 0-1.144-.926-2.064-2.069-2.064" fill="#ec008c" transform="matrix(1.5003761 0 0 -1.5003761 46.75270907172 75.57732103077)"/><path d="m0 0c-.177 0-.35.018-.517.052v.014c0 1.128-.803 2.07-1.869 2.283.086.127.154.27.198.426.103.361.0643.7291609-.0827 1.0421609.072.133.1557.2588391.2487.3758391.096-.023.196-.035.298-.035.604 0 1.11.41 1.253.967.152.028.31.043.471.043 1.426 0 2.583-1.159 2.583-2.586 0-.027 0-.053-.001-.08-.28-.238-.459-.594-.459-.992 0-.115.016-.227.044-.334-.093-.143-.2-.277-.319-.398-.169.08-.358.126-.558.126-.576 0-1.064-.379-1.23-.903-.02-.001-.04-.001-.06-.001" fill="#bdbbbc" transform="matrix(1.5003761 0 0 -1.5003761 71.75122546187 59.23507451196)"/><path d="m0 0c-.713 0-1.29.581-1.29 1.292 0 .136.021.268.06.391.7.016 1.331.311 1.787.777.435-.208.736-.653.736-1.168 0-.711-.58-1.292-1.293-1.292" fill="#ec008c" transform="matrix(1.5003761 0 0 -1.5003761 73.68746081892 61.75990741304)"/><path d="m0 0c-.62425.17725-.87645433.76655452-.9025.83475-.04239674.11100757-.1179313.210403.0705 1.20225.612-.101 1.081-.635 1.081-1.276 0-.284-.093-.547-.249-.761" fill="#ec008c" transform="matrix(1.5003761 0 0 -1.5003761 82.78709182781 61.33680135284)"/><path d="m0 0c-.713 0-1.292.579-1.292 1.292s.579 1.294 1.292 1.294c.072 0 .142-.006.211-.018.515-.438.842-1.09.842-1.821 0-.072-.004-.145-.01-.216-.235-.322-.615-.531-1.043-.531" fill="#b00062" transform="matrix(1.5003761 0 0 -1.5003761 81.22234959312 62.13365109955)"/><path d="m0 0c-.026.08-.043.164-.053.251.443.245.743.718.743 1.259 0 .019 0 .037-.001.056.166.077.35.121.545.121.658 0 1.2-.493 1.281-1.13-.457-.22875-.648.386-1.047.386-.654 0-1.215-.387-1.468-.943" fill="#ec008c" transform="matrix(1.5003761 0 0 -1.5003761 41.89239073338 58.07618401232)"/><path d="m0 0c-.892 0-1.614.72-1.614 1.613 0 .895.722 1.616 1.614 1.616.049 0 .097-.002.145-.007.6905.43075 1.94675-.23325 1.458-1.403.008-.067.013-.136.013-.206 0-.893-.722-1.613-1.616-1.613" fill="#ec008c" transform="matrix(1.5003761 0 0 -1.5003761 19.52778458678 61.8328256915)"/><path d="m0 0c-.712 0-1.29.581-1.29 1.291 0 .222.055.43.152.612.435-.781 1.268-1.31 2.224-1.31-.23-.356-.631-.593-1.086-.593" fill="#40c2f3" transform="matrix(1.5003761 0 0 -1.5003761 26.82396352347 64.96741143962)"/><path d="m0 0c-.716 0-1.294.575-1.294 1.292 0 .716.578 1.29 1.294 1.29.282 0 .542-.089.754-.242-.006-.063-.008-.127-.008-.192 0-.505.166-.972.447-1.349-.193-.47-.653-.799-1.193-.799" fill="#ec008c" transform="matrix(1.5003761 0 0 -1.5003761 32.27017872886 55.67303161295)"/><path d="m0 0c-.713 0-1.292.577-1.292 1.289 0 .718.579 1.295 1.292 1.295.715 0 1.293-.577 1.293-1.295 0-.712-.578-1.289-1.293-1.289" fill="#2e3192" transform="matrix(1.5003761 0 0 -1.5003761 11.4680642528 66.79576975508)"/><path d="m0 0c-.712 0-1.291.581-1.291 1.294 0 .714.579 1.293 1.291 1.293.714 0 1.294-.579 1.294-1.293 0-.713-.58-1.294-1.294-1.294" fill="#ec008c" transform="matrix(1.5003761 0 0 -1.5003761 14.51637837517 56.78045921236)"/><path d="m0 0c-.569.134-.992.645-.992 1.256 0 .713.577 1.293 1.29 1.293.716 0 1.293-.58 1.293-1.293 0-.112-.014-.221-.041-.324-.624-.115-1.169-.455-1.55-.932" fill="#ec008c" transform="matrix(1.5003761 0 0 -1.5003761 68.7179151005 52.94429759988)"/><path d="m0 0c-.07 0-.139.006-.206.016-.4207767-.26955533-.9743612.19912622-.84.519-.155.213-.247.476-.247.76 0 .126.019.249.052.364-.128266.4337786.56728738 1.0614602.904.884.107.029.22.044.337.044.714 0 1.293-.579 1.293-1.292 0-.714-.579-1.295-1.293-1.295" fill="#2e3192" transform="matrix(1.5003761 0 0 -1.5003761 62.18842835091 62.69464172334)"/><path d="m0 0c-.371.327.08680506-1.6809658-.42625-1.63625-1.3625.11875-1.63125 1.3865-1.01775 2.15425.217.405.646.681 1.14.681.126 0 .248-.018.363-.052-.072-.213-.11-.441-.11-.679 0-.161.017-.317.051-.468" fill="#2e3192" transform="matrix(1.5003761 0 0 -1.5003761 39.00551707937 64.27423768142)"/><path d="m0 0c-.714 0-1.292.583-1.292 1.293 0 .713.578 1.293 1.292 1.293.716 0 1.294-.58 1.294-1.293 0-.71-.578-1.293-1.294-1.293" fill="#ec008c" transform="matrix(1.5003761 0 0 -1.5003761 32.4838322855 74.07184365203)"/><path d="m0 0c-.642 0-1.163.519-1.163 1.16 0 .299.113.572.3.779.314-.236.704-.376 1.126-.376.269 0 .525.057.757.159.092-.167.145-.358.145-.562 0-.641-.523-1.16-1.165-1.16" fill="#2e3192" transform="matrix(1.5003761 0 0 -1.5003761 65.2880553359 72.57476837945)"/><path d="m0 0c-.199.358-.581.601-1.02.601-.342 0-.65-.148-.863-.384-.457.343-.753.889-.753 1.504v.033c.121.267.199.558.227.863.132.242.315.452.536.615.29-.392.757-.646 1.284-.646.449 0 .854.184 1.144.48.242-.236.42-.536.507-.874-.064-.138-.1-.291-.1-.453 0-.167.038-.325.105-.466-.008-.033-.017-.066-.027-.099-.303-.218-.526-.54-.616-.915-.128-.104-.271-.191-.424-.259" fill="#bdbbbc" transform="matrix(1.5003761 0 0 -1.5003761 66.81768876985 69.99082066003)"/><path d="m0 0c-.439.124-.785.472-.903.914.25.384.4.838.415 1.327.227.193.52.309.84.309.72 0 1.303-.581 1.303-1.301 0-.112-.014-.22-.041-.323-.657-.08-1.232-.425-1.614-.926" fill="#ec008c" transform="matrix(1.5003761 0 0 -1.5003761 76.35813027692 58.8425761242)"/><path d="m0 0c-.5 0-.906.403-.906.902 0 .501.406.904.906.904s.903-.403.903-.904c0-.499-.403-.902-.903-.902" fill="#ec008c" transform="matrix(1.5003761 0 0 -1.5003761 32.27017872886 50.9565993426)"/><path d="m0 0c-.162 0-.318.03-.461.084-.087.593-.386 1.118-.818 1.494.125.593.65 1.039 1.279 1.039.13 0 .255-.019.374-.055-.022-.069-.034-.142-.034-.218 0-.401.329-.729.729-.729.068 0 .133.01.195.027.029-.107.043-.219.043-.335 0-.13-.019-.257-.055-.376-.434-.117-.777-.454-.903-.884-.111-.031-.228-.047-.349-.047" fill="#ec008c" transform="matrix(1.5003761 0 0 -1.5003761 59.80343050235 60.27573537492)"/><path d="m0 0c-.089.047-.172.102-.247.164.074.429-.151.857-.542 1.043-.013.169.004.344.053.518.186.653.781 1.078 1.428 1.078.136 0 .274-.019.412-.058.43-.122.762-.421.938-.797-.2-.367-.314-.788-.314-1.235 0-.069.0029-.13563906.0079-.20363906-.087.01-.1759.01563906-.2659.01563906-.558 0-1.069-.197-1.47-.525" fill="#ec008c" transform="matrix(1.5003761 0 0 -1.5003761 65.28010334257 56.43027143062)"/><path d="m0 0c-.72303588-.41891487-1.4883707.31305061-.89.921.093.294.371.508.695.508.146 0 .283-.043.397-.117-.02-.297.099-.583.312-.781-.062-.256-.26-.461-.514-.531" fill="#ec008c" transform="matrix(1.5003761 0 0 -1.5003761 61.70035600558 57.81241789394)"/><path d="m0 0c-.403 0-.73.323-.73.727 0 .39.306.707.69.728.19-.209.436-.366.714-.449.035-.086.055-.18.055-.279 0-.404-.326-.727-.729-.727" fill="#bdbbbc" transform="matrix(1.5003761 0 0 -1.5003761 68.06645179788 73.92945796014)"/><path d="m0 0c-.852 0-1.541.691-1.541 1.54 0 .648.402 1.206.972 1.433.244-.234.574-.377.939-.377.216 0 .42.05.602.14.348-.283.57-.714.57-1.196 0-.849-.689-1.54-1.542-1.54" fill="#2e3192" transform="matrix(1.5003761 0 0 -1.5003761 36.62517039672 62.70424413038)"/><path d="m0 0c-.524 0-.946.422-.946.946s.422.949.946.949c.522 0 .946-.425.946-.949s-.424-.946-.946-.946" fill="#ec008c" transform="matrix(1.5003761 0 0 -1.5003761 19.42485878632 68.01812616375)"/><path d="m0 0c-.226.065-.464.1-.711.1-.167 0-.33-.016-.488-.046-.071.111-.111.243-.111.386 0 .401.327.727.73.727.401 0 .727-.326.727-.727 0-.166-.055-.318-.147-.44" fill="#ec008c" transform="matrix(1.5003761 0 0 -1.5003761 29.52118963844 56.59231204942)"/><path d="m0 0c-.405 0-.731.33-.731.729 0 .405.326.731.731.731.402 0 .728-.326.728-.731 0-.399-.326-.729-.728-.729" fill="#ec008c" transform="matrix(1.5003761 0 0 -1.5003761 31.49433424755 22.52237172106)"/><path d="m0 0c-.90175.022125-1.251625.93075-1.196 1.766.04325.084875.314.195875.474.195875.596 0 1.190375-.664 1.190375-1.26 0-.306-.143625-.667375-.468375-.701875" fill="#2e3192" transform="matrix(1.5003761 0 0 -1.5003761 53.22758213127 19.18268456007)"/><path d="m0 0c-.516 0-.934.419-.934.935 0 .517.418.934.934.934s.934-.417.934-.934c0-.516-.418-.935-.934-.935" fill="#ec008c" transform="matrix(1.5003761 0 0 -1.5003761 53.54266111227 77.28804985999)"/><path d="m0 0c-1.04 0-1.909.725-2.131 1.696.582.257.986.84.986 1.515 0 .26-.059.505-.164.723.345.259.768.417 1.229.434.321-.906 1.174-1.561 2.183-1.59.053-.189.081-.388.081-.593 0-1.207-.978-2.185-2.184-2.185" fill="#ec008c" transform="matrix(1.5003761 0 0 -1.5003761 75.95287869231 68.76426319828)"/><path d="m0 0c-.338.33-.801.534-1.312.534-.417 0-.804-.137-1.116-.368-.195.263-.31.589-.31.941 0 .652.388 1.21.943 1.459.248.31125.59075.58325 1.25375.58325.125 0 .91675-.8775.79825-1.27725.124-.227.194-.487.194-.765 0-.431-.172-.821-.451-1.107" fill="#2e3192" transform="matrix(1.5003761 0 0 -1.5003761 67.65024746774 65.39006738699)"/><path d="m0 0c-.006 0-.012 0-.018 0-1.1105-.28225-.84025.5135-1.10425.6555.271.33.94025.7415.94025 1.2045 0 .457-.161.878-.429 1.208.188.078.394.12.611.12.431 0 .822-.171 1.109-.45.4645-.141.91-.764.91-1.332 0-.359-.6605-1.1885-1.209-1.184-.237-.141-.514-.222-.81-.222" fill="#2e3192" transform="matrix(1.5003761 0 0 -1.5003761 50.89254680684 62.53770238328)"/><path d="m0 0c-.534.115-.985.45-1.252.907.498.275.836.806.836 1.416 0 .398-.144.761-.383 1.041.329.266.749.426 1.207.426.598 0 1.133-.276 1.484-.708.4345-.15775.78475-.41325.78475-1.07925 0-.29-.51675-1.5245-1.2995-2.146-.504-.046-.9655-.143-1.37725.14325" fill="#2e3192" transform="matrix(1.5003761 0 0 -1.5003761 47.13680535332 62.55990794956)"/><path d="m0 0c-.166.284-.261.614-.261.968 0 .174.024.342.067.503.245.2.415.488.462.817.058.06.119.117.184.169.39525-.08.77775-.668.77775-1.065 0-.611-.613-1.52325-1.22975-1.392" fill="#2e3192" transform="matrix(1.5003761 0 0 -1.5003761 45.25878458895 61.19921686447)"/><path d="m0 0c.085.311.246.591.462.817-.047-.328-.217-.617-.462-.817" fill="#2e3192" transform="matrix(1.5003761 0 0 -1.5003761 44.96801170077 58.99276377181)"/><path d="m0 0c-1.249 0-2.262 1.012-2.262 2.264 0 1.247 1.013 2.257 2.262 2.257 1.248 0 2.261-1.01 2.261-2.257 0-1.252-1.013-2.264-2.261-2.264" fill="#2e3192" transform="matrix(1.5003761 0 0 -1.5003761 25.1920044395 54.09253542921)"/><path d="m0 0c-.868 0-1.572.704-1.572 1.572 0 .87.704 1.571 1.572 1.571s1.57-.701 1.57-1.571c0-.868-.702-1.572-1.57-1.572" fill="#2e3192" transform="matrix(1.5003761 0 0 -1.5003761 13.87031642651 49.1351427572)"/><path d="m0 0c-.727.026-1.307.623-1.307 1.358 0 .191.04.373.111.538.131-.028.268-.043.408-.043.426 0 .82.14 1.139.376.262-.196.586-.314.938-.318.076-.169.118-.356.118-.553 0-.26-.073-.503-.199-.71-.496-.023-.932-.273-1.208-.648" fill="#ec008c" transform="matrix(1.5003761 0 0 -1.5003761 48.93125516892 65.40462103516)"/><path d="m0 0c-.965 0-1.755.77-1.778 1.74-.02.983.759 1.796 1.742 1.822h.039c.964 0 1.758-.772 1.78-1.744.021-.983-.757-1.797-1.739-1.818-.015 0-.029 0-.044 0" fill="#bdbbbc" transform="matrix(1.5003761 0 0 -1.5003761 17.93978652254 40.46221871115)"/><path d="m0 0c-.377.505-.98.831-1.658.831-.16 0-.315-.018-.465-.052-.024.101-.036.207-.036.315 0 .748.604 1.356 1.357 1.356.1 0 .197-.011.291-.031.047-.645.476-1.183 1.063-1.389-.02-.422-.232-.794-.552-1.03" fill="#40c2f3" transform="matrix(1.5003761 0 0 -1.5003761 49.24063272074 70.62728020165)"/><path d="m0 0c-.265-.43023494-.52345049-.37536503-.89245049-.37536503-.20100001 0-.61839031.23942329-.64754951.61136503-.258.247-.418.594-.418.978 0 .294.091.565.248.786.26-.105.545-.162.843-.162.446 0 .862.129 1.212.352.013-.013.025-.025.037-.038-.019-.095.48365242-.0692563.48365242-.1702563 0-.368.08496699-.7128388-.14765242-1.0827437-.094-.394-.362-.722-.718-.899" fill="#2e3192" transform="matrix(1.5003761 0 0 -1.5003761 38.08308585309 58.59876500795)"/><path d="m0 0c-.749 0-1.355.608-1.355 1.357 0 .747.606 1.358 1.355 1.358.751 0 1.357-.611 1.357-1.358 0-.749-.606-1.357-1.357-1.357" fill="#2e3192" transform="matrix(1.5003761 0 0 -1.5003761 38.91159353551 75.09525018984)"/><path d="m0 0c-.88 0-1.594.715-1.594 1.59 0 .882.714 1.597 1.594 1.597.882 0 1.596-.715 1.596-1.597 0-.875-.714-1.59-1.596-1.59" fill="#ec008c" transform="matrix(1.5003761 0 0 -1.5003761 60.3113078122 76.00027705336)"/><path d="m0 0c-.184 0-.361.031-.525.089.001.021.001.042.001.063 0 .648-.455 1.192-1.064 1.325-.003.039-.005.078-.005.118 0 .353.115.68.31.944.016 0 .33825.65525.35525.65525.491 0 .595.2225.85275-.00625.025.001.05.001.075.001.881 0 1.592-.714 1.592-1.594 0-.063-.004-.126-.011-.188-.221-.229-.364-.532-.388-.869-.291-.33-.718-.538-1.193-.538" fill="#ec008c" transform="matrix(1.5003761 0 0 -1.5003761 50.85638774283 69.21452606589)"/><path d="m0 0c-.27.497-.796.833-1.402.833-.231 0-.452-.05-.65-.139-.397.417-.64.981-.64 1.603 0 .726.333 1.376.855 1.803.014.2905.20375.5765.30475.5475.3831016.141434 1.01360483.5129271 1.43115-.038439l.0281-.229061c.178-1.052.991-1.887 2.032-2.098-.007-1.155-.853-2.107-1.959-2.282" fill="#ec008c" transform="matrix(1.5003761 0 0 -1.5003761 68.03629423827 62.58136332779)"/><path d="m0 0c-.391 0-.764.083-1.1.232-.763129.33266301-1.3331992.9375916-1.562 1.943-.036.174-.054.355-.054.54 0 .308.051.604.146.88.038-.001.076-.002.114-.002 1.141 0 2.101.778 2.377 1.833.026 0 .052.001.079.001.345 0 .675-.065.978-.182.197-.271.496-.463.841-.518.549-.496.893-1.214.893-2.012 0-.084-.004-.168-.011-.25-.14-.258-.221-.551-.227-.864-.072-.161-.16-.313-.261-.456-.3228835-1.25129163-1.1111662-1.49334562-1.921-1.129-.096-.011-.194-.016-.292-.016" fill="#2e3192" transform="matrix(1.5003761 0 0 -1.5003761 59.15121701168 69.76231338)"/><path d="m0 0c-.022 0-.045 0-.068.001-.085.003-.169.012-.25.026-.095.749-.7 1.336-1.457 1.403-.031.142-.045.289-.04.441.036.976.838 1.746 1.807 1.746.021 0 .044-.001.065-.002.998-.033 1.781-.868 1.746-1.868-.033-.979-.835-1.747-1.803-1.747" fill="#ec008c" transform="matrix(1.5003761 0 0 -1.5003761 22.40970699966 59.14325149464)"/><path d="m0 0c-.919.086-1.638.863-1.638 1.805 0 .996.809 1.805 1.807 1.805.091 0 .181-.006.268-.019-.01-.059-.016-.12-.016-.182 0-.559.452-1.008 1.006-1.008.149 0 .29.032.417.089.087-.211.134-.442.134-.685 0-.606-.297-1.144-.754-1.473-.101.025-.207.039-.316.039-.354 0-.674-.141-.908-.371" fill="#ec008c" transform="matrix(1.5003761 0 0 -1.5003761 37.37595859716 13.86625188733)"/><path d="m0 0c-.097 0-.192.012-.282.036-.38442523-.01500194-.7926893.03786797-.7926893.16886797 0 .501-.6062311 1.26619803.2386893 1.44813203.077.112.133.238.164.375.187.14.42.223.672.223.622 0 1.127-.503 1.127-1.125s-.505-1.126-1.127-1.126" fill="#2e3192" transform="matrix(1.5003761 0 0 -1.5003761 72.46165354522 70.7780679997)"/><path d="m-.5347495-.8131728c-.248.163-.39473981.17403107-.7137398.17403107-.314 0-.4390622.30032815-.4675107.64414173-.011.02-.021.04-.031.06.035.143.053.294.053.448 0 .163-.02.32-.059.471.172.368.546.624.978.624.043 0 .087-.003.129-.008.44114835.2778674.72692359-.084295.698-.381.155-.187.249-.427.249-.689 0-.081-.009-.16-.026-.236.0952932-.15954951.0808427-.4098097.007843-.5238097" fill="#2e3192" transform="matrix(1.5003761 0 0 -1.5003761 71.04064734091 68.17776618079)"/><path d="m0 0c-.978 0-1.848.698-2.032 1.692-.207 1.123.535 2.202 1.657 2.412.1.018.2.029.3.032-.098-.181-.153-.388-.153-.608 0-.713.577-1.292 1.293-1.292.337 0 .645.129.876.341.026-.027.054-.053.082-.078.004-.018.007-.037.011-.055.206-1.123-.536-2.205-1.658-2.41-.126-.023-.252-.034-.376-.034" fill="#ec008c" transform="matrix(1.5003761 0 0 -1.5003761 36.95150219847 69.70259841122)"/><path d="m0 0c-.414 0-.782.295-.862.719-.087.477.23.937.708 1.024.054.01.108.015.161.015.414 0 .784-.296.86-.72.09-.479-.227-.938-.705-1.023-.055-.01-.109-.015-.162-.015" fill="#ec008c" transform="matrix(1.5003761 0 0 -1.5003761 7.88456597556 43.82111068622)"/><path d="m0 0c-.338 0-.639.243-.705.588-.069.388.188.763.577.837.042.008.085.012.127.012.339 0 .642-.244.706-.589.075-.391-.183-.766-.574-.836-.044-.008-.088-.012-.131-.012" fill="#40c2f3" transform="matrix(1.5003761 0 0 -1.5003761 13.70647535639 33.76033874767)"/><path d="m0 0c-.154 0-.304.023-.445.064-.109.264-.369.45-.673.45-.014 0-.027-.001-.04-.001-.256.28-.411.653-.411 1.062 0 .126.014.249.043.367.288.234.505.551.616.914.019.014.038.027.058.04.185-.328.538-.55.941-.55.234 0 .452.075.629.203-.021-.085-.031-.174-.031-.265 0-.524.358-.965.842-1.09-.17-.686-.789-1.194-1.529-1.194" fill="#ec008c" transform="matrix(1.5003761 0 0 -1.5003761 69.7441723529 72.5155035235)"/><path d="m-.09375-.1c-.805 0-1.98325.41525-1.88675 1.22475-.02625.5535.77525.8605 1.44175 1.06225.588-.198.97325-1.0565.97325-1.6525 0-.17-.052-.40275-.2395-.5255-.064-.006-.54775-.11525-.61375-.11525" fill="#ec008c" transform="matrix(1.5003761 0 0 -1.5003761 79.51237095195 18.14367411082)"/><path d="m0 0c-.3185-.0585-.61575-.01575-.89875-.01575-.265 0-.38375-.07125-.61625.03875-.1915.09575-.2685.355-.2685.408 0 .977 1.429 1.895 1.8535 1.759.6585-.249.44125-.9455.44125-1.3305 0-.431-.116-.84675-.51125-.8595" fill="#2e3192" transform="matrix(1.5003761 0 0 -1.5003761 78.69466597745 15.3121643349)"/><path d="m0 0c-.23 0-.451.04-.655.114-.15835911.53250299.0255059 1.2663062.6395.92275.36475-.1415.43975-.62325.2545-1.02175-.079-.01-.158-.015-.239-.015" fill="#2e3192" transform="matrix(1.5003761 0 0 -1.5003761 76.38918806219 16.46805408234)"/><path d="m0 0c-.12.237-.196.5-.217.778.22.116.47.181.735.181.283 0 .549-.074.78-.203-.304-.408-.768-.69-1.298-.756" fill="#2e3192" transform="matrix(1.5003761 0 0 -1.5003761 76.74717779965 16.44614859128)"/><path d="m-.59375-.25625c-.359 0-.32325.63825-.32325.63825.013.5465.454 1.01325 1.083 1.01325.206 0 1.005-.09775 1.093-.39025.2825-.53225-.70125-1.27375-1.31525-1.27375" fill="#161848" transform="matrix(1.5003761 0 0 -1.5003761 72.33202105018 18.97068141714)"/><path d="m0 0c-.40075-.0955-1.02225.798375-.767 1.029.361375.087625 1.000125-.611.767-1.029" fill="#2e3192" transform="matrix(1.5003761 0 0 -1.5003761 76.34972817076 19.48005910309)"/><path d="m0 0c-.022.02-.045.04-.069.058-.03448737.3621631.47564466.63648737.845.417.06868155-.26787184-.39319223-.64200388-.776-.475" fill="#ec008c" transform="matrix(1.5003761 0 0 -1.5003761 68.30051046948 20.82679669045)"/><path d="m0 0c-.53345243.22106214-.98771262.87493398-.98771262 1.540934 0 .078.0658719.2797437.22071262.338066.44819223.1872951 1.31706989-.3573185 1.31706989-.94731845 0-.232-.20342135-.87526407-.55006989-.93168155" fill="#2e3192" transform="matrix(1.5003761 0 0 -1.5003761 71.31071503891 23.00084165935)"/><path d="m0 0c-.712 0-1.29.578-1.29 1.286 0 .618.431 1.135 1.007 1.264.249-.333.584-.597.973-.759-.282-.236-.462-.59-.462-.986 0-.269.083-.518.223-.724-.14-.052-.292-.081-.451-.081" fill="#40c2f3" transform="matrix(1.5003761 0 0 -1.5003761 64.72421399752 23.46085697161)"/><path d="m0 0c-.71 0-1.287.576-1.287 1.289 0 .06.004.12.012.179.168.073.317.18.439.313.221-.176.5-.281.803-.281.441 0 .83.222 1.063.56.161-.215.257-.482.257-.771 0-.713-.577-1.289-1.287-1.289" fill="#ec008c" transform="matrix(1.5003761 0 0 -1.5003761 69.6781558045 26.23025117699)"/><path d="m-.34029514-.10606602c-.304 0-.39738447.16687185-.46270486.38706602.171.188.288.426.325.689.17367767.227099.38645243.318132.56845243.318132.421 0 .90106601-.55213394.97154757-.728132-.00661-.37335534-.52819223-.70142136-.96919223-.70142136" fill="#ec008c" transform="matrix(1.5003761 0 0 -1.5003761 69.62924354364 23.97968702699)"/><path d="m0 0c-.012 0-.025 0-.037.001-.169.09-.351.16-.541.206-.067.055-.125.119-.173.191.012.08.018.162.018.245 0 .208-.039.406-.111.588.132.336.46.575.844.575.5 0 .904-.404.904-.902 0-.503-.404-.904-.904-.904" fill="#ec008c" transform="matrix(1.5003761 0 0 -1.5003761 63.41468573744 4.04088895887)"/><path d="m0 0c-.148.473-.588.819-1.109.819-.422 0-.791-.227-.995-.564-.604.413-1 1.108-1 1.897 0 .46.136.889.369 1.248.217-.11.462-.172.721-.172.744 0 1.368.508 1.544 1.196.069-.01.137-.024.204-.04.148-.122.336-.198.541-.206.132-.071.257-.155.372-.249-.305-.209-.506-.56-.506-.96 0-.643.521-1.163 1.162-1.163.055 0 .109.004.162.011-.027-.188-.077-.369-.147-.539-.079-.104-.14-.221-.179-.348-.266-.423-.665-.752-1.139-.93" fill="#ec008c" transform="matrix(1.5003761 0 0 -1.5003761 62.94581820619 10.30765985335)"/><path d="m0 0v.034c0 .748-.607 1.355-1.357 1.355-.385 0-.731-.16-.978-.416-.28.392-.444.871-.444 1.388 0 1.32 1.071 2.39 2.392 2.39 1.32 0 2.389-1.07 2.389-2.39 0-1.188-.867-2.176-2.002-2.361" fill="#ec008c" transform="matrix(1.5003761 0 0 -1.5003761 54.20552727325 7.22828794571)"/><path d="m0 0c-.596 0-1.082.485-1.082 1.081 0 .436.26.815.633.986.11-.754.564-1.398 1.196-1.766-.194-.186-.457-.301-.747-.301" fill="#ec008c" transform="matrix(1.5003761 0 0 -1.5003761 52.10605099652 19.63399769095)"/><path d="m0 0c-.403 0-.728.326-.728.73 0 .054.006.107.017.158.362.057.675.263.875.553.324-.075.566-.366.566-.711 0-.404-.327-.73-.73-.73" fill="#ec008c" transform="matrix(1.5003761 0 0 -1.5003761 61.08715229351 21.61614455666)"/><path d="m0 0c-.556.249-.943.807-.943 1.454 0 .776.555 1.421 1.291 1.562.201-.194.474-.314.774-.314.144 0 .282.028.409.077.429-.285.711-.772.711-1.325 0-.276-.07-.536-.194-.763-.119.019-.241.029-.366.029-.661 0-1.258-.276-1.682-.72" fill="#ec008c" transform="matrix(1.5003761 0 0 -1.5003761 64.57222589859 15.14172160994)"/><path d="m0 0c-.159.397-.546.676-.999.676-.31 0-.589-.131-.785-.34-.273.283-.441.668-.441 1.095 0 .867.701 1.572 1.569 1.572.87 0 1.572-.705 1.572-1.572 0-.176-.028-.344-.081-.501-.037-.069-.068-.142-.092-.218-.16-.313-.422-.565-.743-.712" fill="#ec008c" transform="matrix(1.5003761 0 0 -1.5003761 70.34252234158 8.67540069416)"/><path d="m0 0c-.259.176-.562.29-.889.321-.206.228-.331.53-.331.861 0 .135.021.264.06.387.035.069.066.142.091.218.217.405.645.681 1.137.681.657 0 1.2-.49 1.279-1.126-.696-.1-1.245-.648-1.347-1.342" fill="#bdbbbc" transform="matrix(1.5003761 0 0 -1.5003761 73.19893836076 9.96092293664)"/><path d="m0 0c-1.059 0-1.916.858-1.916 1.919 0 .359.099.695.27.982.408.071.737.372.85.763.243.111.512.172.796.172.062 0 .123-.002.184-.008.219-.244.53-.404.877-.425-.003-.043-.005-.086-.005-.13 0-.464.198-.882.514-1.173-.183-.294-.289-.641-.289-1.013 0-.183.025-.359.072-.526-.216-.217-.484-.381-.784-.475-.025.002-.049.002-.074.002-.165 0-.323-.031-.468-.088-.009 0-.018 0-.027 0" fill="#2e3192" transform="matrix(1.5003761 0 0 -1.5003761 71.58918484307 15.22259188173)"/><path d="m0 0c-.4535-.084-.7015.659-.7015 1.124 0 .043.1885.136.1925.179.026-.002.053-.002.08-.002.024 0 .048 0 .071.002.599.02275.96675-.33525.631-.961-.103-.103-.195-.218-.273-.342" fill="#2e3192" transform="matrix(1.5003761 0 0 -1.5003761 73.94537547051 12.07195210934)"/><path d="m0 0c-.109.382-.332.715-.631.96.678.037 1.217.599 1.217 1.286 0 .055-.003.108-.01.161.075.011.151.016.229.016.879 0 1.594-.712 1.594-1.592 0-.184-.032-.362-.089-.526-.281.161-.608.253-.955.253-.529 0-1.008-.213-1.355-.558" fill="#ec008c" transform="matrix(1.5003761 0 0 -1.5003761 74.35572833386 11.55837337031)"/><path d="m0 0c.05.154.077.318.077.488 0 .595-.33 1.117-.817 1.39.238.32.379.716.379 1.147 0 .385-.113.744-.309 1.044.152.035.311.054.475.054 1.143 0 2.068-.923 2.068-2.064 0-1.079-.822-1.961-1.873-2.059" fill="#ec008c" transform="matrix(1.5003761 0 0 -1.5003761 79.80554444189 18.13017072592)"/><path d="m0 0c-.284 0-.552.075-.783.207-.144.418-.415.775-.767 1.028-.027.116-.041.236-.041.36 0 .264.065.514.18.733.204-.073.424-.114.655-.114.08 0 .16.005.238.015.341-.673 1.038-1.132 1.843-1.132.066 0 .131.003.196.009-.207-.641-.81-1.106-1.521-1.106" fill="#ec008c" transform="matrix(1.5003761 0 0 -1.5003761 77.52392250662 19.79033688057)"/><path d="m0 0c-.103.104-.189.226-.252.361.005.067.009.135.009.204 0 .228-.033.448-.094.655.101.41.398.744.786.896.188.003.371.033.542.086.679-.038 1.218-.606 1.218-1.291 0-.099-.011-.195-.032-.288-.188.054-.388.083-.594.083-.628 0-1.194-.272-1.583-.706" fill="#bdbbbc" transform="matrix(1.5003761 0 0 -1.5003761 70.95542597843 18.39723767172)"/><path d="m0 0c-.511 0-.979.18-1.346.479.108.189.169.408.169.641 0 .59-.396 1.086-.937 1.239.05.455.242.867.531 1.189.234-.236.558-.382.917-.382.615 0 1.129.428 1.26 1.005.237-.068.456-.176.651-.316.101-.44.385-.812.767-1.029.076-.219.117-.454.117-.7 0-1.178-.95-2.126-2.129-2.126" fill="#2e3192" transform="matrix(1.5003761 0 0 -1.5003761 73.33082141995 23.7202719993)"/><path d="m0 0c-.235.313-.609.516-1.03.516-.181 0-.354-.038-.511-.106.009.059.013.119.013.181 0 .376-.162.715-.42.95.29.107.553.269.776.475.036.003.073.005.11.005.122 0 .241-.017.353-.049-.008-.077-.013-.154-.013-.233 0-.665.304-1.257.78-1.647-.018-.031-.037-.062-.058-.092" fill="#ec008c" transform="matrix(1.5003761 0 0 -1.5003761 71.22324311228 23.1396264486)"/><path d="m0 0c-.547 0-1.004.375-1.129.882.793.085 1.483.511 1.922 1.13.227-.213.369-.515.369-.851 0-.642-.52-1.161-1.162-1.161" fill="#ec008c" transform="matrix(1.5003761 0 0 -1.5003761 61.28190111129 71.06208919543)"/><path d="m0 0c-.146 0-.287.019-.421.054-.172.207-.419.348-.698.382-.331.303-.538.738-.538 1.22 0 .918.742 1.655 1.657 1.655.658 0 1.223-.379 1.491-.932-.532-.398-.877-1.034-.877-1.75 0-.168.019-.331.055-.488-.204-.091-.43-.141-.669-.141" fill="#40c2f3" transform="matrix(1.5003761 0 0 -1.5003761 71.75122546187 66.43087828756)"/></svg>