<?xml version="1.0" encoding="UTF-8"?>
<svg xmlns="http://www.w3.org/2000/svg" width="139" height="76" viewBox="0 0 139 76" fill="none">
  <path d="M68.5919 13.7949C67.6786 11.3407 66.3702 9.21002 64.6642 7.40296C62.9596 5.59727 60.8984 4.18781 58.4848 3.17185C56.0697 2.15726 53.3599 1.64997 50.3565 1.64997H32.7602V42.0086H50.3565C53.3599 42.0086 56.0793 41.5013 58.5149 40.4867C60.9505 39.4722 63.0103 38.0627 64.6944 36.2556C66.3785 34.45 67.6772 32.3193 68.5905 29.8637C69.5039 27.4095 69.9605 24.7414 69.9605 21.8595C69.9605 18.9775 69.5039 16.2491 68.5905 13.7935L68.5919 13.7949ZM61.5594 27.2176C61.0314 28.8821 60.2593 30.3217 59.2459 31.5392C58.231 32.7567 56.9625 33.7205 55.4403 34.4308C53.918 35.141 52.1613 35.4961 50.1741 35.4961H40.1273V8.10357H50.1741C52.1627 8.10357 53.918 8.46005 55.4403 9.16889C56.9625 9.8791 58.231 10.8526 59.2459 12.0906C60.2607 13.3287 61.0314 14.7903 61.5594 16.4726C62.086 18.1576 62.3507 19.9523 62.3507 21.8595C62.3507 23.7666 62.086 25.5531 61.5594 27.2162V27.2176ZM138.069 74.7195H132.885V69.5369H138.069V74.7195ZM29.6842 64.0869C29.2632 66.0489 28.4445 67.8559 27.2253 69.5081C26.0061 71.1616 24.4085 72.486 22.4337 73.48C20.4575 74.4754 18.1947 74.9718 15.6439 74.9718C12.7283 74.9718 10.1584 74.3342 7.92984 73.0591C5.70134 71.784 3.97887 70.0058 2.7597 67.7216C1.54054 65.4388 0.931641 62.8255 0.931641 59.8832C0.931641 56.9409 1.54054 54.329 2.7597 52.0448C3.97887 49.762 5.69448 47.9755 7.90927 46.6867C10.1227 45.3979 12.6872 44.7535 15.6028 44.7535C19.2178 44.7535 22.217 45.6433 24.5991 47.423C26.9812 49.2026 28.5089 51.6047 29.1809 54.6307H22.9589C22.3706 53.2856 21.438 52.2135 20.164 51.4155C18.8886 50.6175 17.3828 50.2172 15.6453 50.2172C13.9077 50.2172 12.4225 50.6093 11.1046 51.3936C9.78671 52.1778 8.76502 53.2993 8.03544 54.7554C7.30586 56.2129 6.94244 57.9226 6.94244 59.8832C6.94244 62.9928 7.77625 65.4168 9.44386 67.154C11.1115 68.8911 13.388 69.759 16.2748 69.759C18.4045 69.759 20.2326 69.1283 21.7603 67.8683C23.288 66.6069 24.2754 64.8574 24.7239 62.6144H14.6771V58.3695H29.6842V64.0869ZM47.3888 62.868C49.7435 62.3635 51.5428 61.3544 52.7907 59.8421C54.0373 58.3284 54.6613 56.4528 54.6613 54.2097C54.6613 51.4649 53.7576 49.2506 51.9501 47.5697C50.1426 45.8887 47.515 45.0483 44.0687 45.0483H32.7602V74.7195H38.6874V63.1614H41.293L48.2295 74.7195H54.7875L47.3888 62.868ZM38.6874 50.0513H43.564C45.3016 50.0513 46.5838 50.4503 47.4108 51.2496C48.2364 52.0476 48.6505 53.1622 48.6505 54.5909C48.6505 57.5894 46.9541 59.088 43.564 59.088H38.6874V50.0513ZM84.2175 51.9626C82.9147 49.6509 81.1346 47.8507 78.8787 46.5619C76.6228 45.2731 74.1076 44.6287 71.3333 44.6287C68.559 44.6287 66.0425 45.2731 63.7879 46.5619C61.532 47.8507 59.7519 49.6509 58.4491 51.9626C57.1463 54.2742 56.4949 56.8874 56.4949 59.8009C56.4949 62.7145 57.1463 65.3346 58.4491 67.6599C59.7519 69.9852 61.532 71.7936 63.7879 73.0811C66.0439 74.3699 68.559 75.0143 71.3333 75.0143C74.1076 75.0143 76.6228 74.3699 78.8787 73.0811C81.1346 71.7923 82.9147 69.9852 84.2175 67.6599C85.5203 65.3346 86.1717 62.7145 86.1717 59.8009C86.1717 56.8874 85.5203 54.2742 84.2175 51.9626ZM79.0049 64.9493C78.2616 66.4204 77.2317 67.5488 75.9151 68.3331C74.5972 69.1173 73.0709 69.5095 71.3333 69.5095C69.5958 69.5095 68.068 69.1173 66.7515 68.3331C65.4336 67.5488 64.4037 66.4204 63.6618 64.9493C62.9185 63.4781 62.5482 61.7629 62.5482 59.8009C62.5482 57.8389 62.9198 56.1237 63.6618 54.6526C64.4037 53.1814 65.4336 52.0544 66.7515 51.2688C68.068 50.4846 69.5958 50.0924 71.3333 50.0924C73.0709 50.0924 74.5972 50.4846 75.9151 51.2688C77.2317 52.053 78.2616 53.1814 79.0049 54.6526C79.7468 56.1237 80.1184 57.8403 80.1184 59.8009C80.1184 61.7616 79.7468 63.4781 79.0049 64.9493ZM112.596 45.0483V62.4471C112.596 65.1933 112.084 67.5118 111.061 69.4025C110.038 71.2932 108.623 72.7013 106.815 73.6267C105.008 74.5508 102.955 75.0143 100.656 75.0143C97.0976 75.0143 94.252 73.9503 92.1222 71.8197C89.9924 69.6904 88.9269 66.5658 88.9269 62.4471V45.0483H94.8115V62.4471C94.8115 64.7724 95.323 66.5178 96.3461 67.6791C97.3691 68.8417 98.8475 69.4231 100.781 69.4231C102.715 69.4231 104.151 68.8417 105.174 67.6791C106.197 66.5164 106.708 64.7724 106.708 62.4471V45.0483H112.596ZM134.528 47.571C132.748 45.8901 130.107 45.0497 126.604 45.0497H115.801V74.7209H121.728V63.7098H126.604C129.995 63.7098 132.608 62.8694 134.445 61.1885C136.28 59.5075 137.198 57.2521 137.198 54.4222C137.198 51.5924 136.308 49.2533 134.528 47.5724V47.571ZM125.974 58.9605H121.728V49.8402H125.974C127.824 49.8402 129.154 50.2323 129.967 51.0165C130.78 51.8008 131.186 52.936 131.186 54.4209C131.186 57.4468 129.449 58.9605 125.974 58.9605ZM108.547 42.0045L102.918 35.991C105.881 32.9665 107.648 28.6997 107.648 24.4535C107.648 22.4504 107.648 18.6992 107.648 18.6992H100.408C100.408 18.6992 100.408 23.0358 100.408 24.6194C100.408 26.9242 99.6388 29.0877 98.1371 30.8838L89.8032 21.9815C91.2678 21.1712 92.4363 20.5172 92.7297 20.3321C93.8488 19.6315 95.1516 18.669 96.224 17.1608C97.6955 15.0919 98.4073 12.3127 98.0932 9.77078C97.6379 6.09222 95.4643 4.31806 95.2133 4.12337C94.2095 3.22121 92.993 2.50003 91.5983 1.98177C90.2023 1.4635 88.6581 1.19615 87.011 1.18655C85.2461 1.17695 83.621 1.42374 82.1632 1.92281C80.6972 2.42599 79.4094 3.1554 78.3342 4.09184C77.2495 5.03787 76.402 6.18545 75.8164 7.50304C75.2308 8.82064 74.9277 10.2808 74.9195 11.8438C74.9113 13.3712 75.2363 14.8684 75.8849 16.2943C76.4637 17.5653 77.4387 18.9555 78.7854 20.4308C77.7322 20.9916 76.775 21.6168 75.9302 22.2927C74.9236 23.1003 74.0637 23.9695 73.3739 24.8772C72.6745 25.7958 72.1342 26.7843 71.7694 27.814C71.4032 28.8478 71.214 29.957 71.2085 31.1142C71.1989 32.7677 71.5555 34.3211 72.2672 35.7305C72.9762 37.1345 73.9856 38.3602 75.2692 39.3734C76.5405 40.3784 78.0778 41.1709 79.8387 41.7289C81.5886 42.2828 83.5387 42.5708 85.6342 42.5831C85.6808 42.5831 85.7288 42.5831 85.7754 42.5831C88.8103 42.6146 91.8562 42.154 94.7745 41.1174C95.5987 40.824 96.4078 40.484 97.1963 40.0987L98.9764 42.0004H108.549L108.547 42.0045ZM83.9309 15.6718C83.5428 15.2386 83.2109 14.7807 82.9435 14.3118C82.6788 13.8483 82.469 13.3685 82.3223 12.8845C82.181 12.4211 82.1097 11.9001 82.1124 11.3365C82.1152 10.7017 82.2235 10.1108 82.4347 9.57746C82.6418 9.05235 82.9476 8.60264 83.3426 8.24205C83.754 7.86638 84.2573 7.56063 84.8388 7.33577C85.4106 7.11366 86.0332 7.00124 86.6888 7.00124C86.7011 7.00124 86.7148 7.00124 86.7272 7.00124C87.982 7.00946 88.9927 7.39473 89.7332 8.14745C90.4642 8.89193 90.8166 9.85305 90.8112 11.0829C90.8057 12.3004 90.3079 13.3191 89.293 14.198C88.2535 15.0974 86.8382 16.0201 85.0829 16.9428C84.666 16.4904 84.2833 16.0667 83.9323 15.6732L83.9309 15.6718ZM85.8495 36.0664C83.9611 36.0664 81.9396 35.5331 80.5737 34.5733C79.2161 33.6191 78.5605 32.4674 78.5688 31.0538C78.5729 30.2984 78.7388 29.6252 79.0638 29.0521C79.4039 28.4502 79.8277 27.9141 80.3255 27.4561C80.8316 26.99 81.3897 26.5924 81.9822 26.2729C82.0932 26.2126 82.6624 25.9027 83.4852 25.453L92.2868 34.8558C90.2571 35.6195 87.8887 36.0664 85.8508 36.0664H85.8495ZM138.069 8.44908H123.294V42.0086H115.821V8.44908H100.442V1.64997H138.069V8.44908Z" fill="#051D2E"></path>
</svg>
