<svg clip-rule="evenodd" fill-rule="evenodd" stroke-linejoin="round" stroke-miterlimit="2" viewBox="0 0 560 400" xmlns="http://www.w3.org/2000/svg"><g fill-rule="nonzero" transform="matrix(.71623 0 0 .70775 30 164.022)"><path d="m42.7 36.1c0 3.5-3.1 6.6-6.6 6.6h-29.5c-3.5 0-6.6-3.1-6.6-6.6v-29.5c0-3.5 3.1-6.6 6.6-6.6h29.5c3.5 0 6.6 3.1 6.6 6.6z" fill="#fab622"/><path d="m102.4 36.1c0 3.5-3.1 6.6-6.6 6.6h-29.4c-3.5 0-6.6-3.1-6.6-6.6v-29.5c0-3.5 3.1-6.6 6.6-6.6h29.5c3.5 0 6.6 3.1 6.6 6.6v29.5z" fill="#fab622"/><path d="m42.7 94.7c0 3.5-2.7 6.6-6.6 6.6h-29.5c-3.5 0-6.6-3.1-6.6-6.6v-29.5c0-3.5 3.1-6.6 6.6-6.6h29.5c3.5 0 6.6 3.1 6.6 6.6z" fill="#fab622"/><path d="m102.4 94.7c0 3.5-3.1 6.6-6.6 6.6h-29.4c-3.5 0-6.6-3.1-6.6-6.6v-29.5c0-3.5 3.1-6.6 6.6-6.6h29.5c3.5 0 6.6 3.1 6.6 6.6v29.5z" fill="#fab622"/><g fill="#035690"><path d="m232.8 92c-12.4 6.6-26 9.7-40 9.7-29.5 0-50.8-20.2-50.8-50.4 0-31 21.3-51.2 50.8-51.2 14.7 0 27.9 3.1 38 12l-12.8 12.8c-6.6-5.8-15.5-9.3-24.8-9.3-19.8 0-33 15.1-33 34.5 0 20.6 13.2 35.7 33 35.7 7.8.4 15.5-1.6 22.5-5v-22.6h-19.7v-15.5h36.9v49.3z"/><path d="m283.7 43.5c9.7 0 21-.8 21-13.2 0-11.6-10.5-12.8-19.4-12.8h-14.7v26zm-30.7-40.8h33.4c18.6 0 36.1 5.8 36.1 27.6.8 13.2-8.9 24.8-22.5 26l25.6 42.7h-20.6l-22.1-40.7h-12.4v40.7h-17.1v-96.3z"/><path d="m341.1 2.7h64v15.6h-46.5v23.6h44.2v15.6h-44.2v26h48.9v15.5h-66.4z"/><path d="m510.7 92c-12.4 6.6-26 9.7-40 9.7-29.9 0-50.8-20.2-50.8-50.4 0-31 21.3-51.2 50.8-51.2 14.7 0 27.9 3.1 38 12l-12.8 12.8c-7-5.8-15.9-9.3-25.2-9.3-19.8 0-33 15.1-33 34.5 0 20.6 13.2 35.7 33 35.7 7.8.4 15.5-1.6 22.5-5v-22.6h-19.8v-15.5h36.9v49.3z"/><path d="m617.4 92c-12.4 6.6-26 9.7-40 9.7-29.9 0-50.8-20.2-50.8-50.4 0-31 21.3-51.2 50.8-51.2 14.7 0 27.9 3.1 38 12l-12.8 12.8c-7-6.2-15.9-9.7-25.2-9.3-19.8 0-33 15.1-33 34.5 0 20.6 13.2 35.7 33 35.7 7.8.4 15.5-1.6 22.5-5v-22.6h-19.8v-15.5h36.9z"/><path d="m685.3 23.3c-4.3-5-10.5-7.8-17.1-7.8-7.8 0-15.9 3.5-15.9 12.4 0 19.4 45.8 8.1 45.8 42.7 0 20.6-16.3 30.7-35.3 30.7-12 .8-23.7-4.3-31.4-13.2l12.8-12.4c4.3 6.2 11.3 10.1 19 10.1 7.8 0 16.7-4.3 16.7-13.2 0-21-45.8-8.9-45.8-43.5 0-19.8 17.8-29.1 35.7-29.1 10.1-.4 20.2 3.1 27.6 10.1z"/></g></g></svg>