<svg xmlns="http://www.w3.org/2000/svg" xml:space="preserve" id="Layer_1" width="226.8" height="38.3" x="0" y="0" style="enable-background:new 0 0 226.8 38.3" version="1.1">
  <style>
    .st0{fill:#29384e}
  </style>
  <path d="M123.3 10.1c.4 1.8 1.2 2.4 2 2.4 1.2 0 .5-1.7-.3-2.1-.9-.4-1.7-.3-1.7-.3m7.5 9.9c0-.2 0-.3.1-.5.5-1 1.4-1.7 2.6-1.7 1.6 0 2.9 1.4 2.9 3.2 0 1.6-1.1 3-2.6 3.2h-.4c-2.1 0-4.8-1.8-4.8-5.8 0-3.4 3-5.3 5.7-5.3 2.6 0 7.5 1.4 7.2 8-.2 4.6-5 10.3-12.6 10.3s-14.3-4.5-14.3-11.8 5.7-9.3 5.7-9.3-.1-.7 0-1.5c.3-3.4 2.3-8.4 7.2-8.4 2.8 0 7.2 1.4 7.2 5.5 0 3.5-2.7 4.8-4 4.8s-3.8-1.1-3.8-3.6c0-1.7.9-2.7 1.8-2.7s1 .3 1.1.5c.2.4-1.4-.1-1.4 1.7s.9 2.6 2.3 2.6 3-1 3-3.3-2.3-4.6-4.9-4.6c-2.7 0-5.8 3.2-5.8 6.8 0 .5 0 1 .1 1.4 0 0 4.8-.1 4.8 3.5 0 2-1.8 2.9-2.7 2.9-3.6 0-4.7-4.4-4.7-4.4s-2.8 1.2-2.8 5.5 3.4 12.1 13.6 12.1c8.2 0 9.2-6.9 9.2-8.5s-.5-6.3-6.5-6.3c-3 0-4.4 2.7-4.4 4.6s.7 5.1 3.6 5.1c.2 0 .5 0 .7-.1 1-.2 1.7-1.1 1.7-2.6-.1-1.4-.9-2.7-2-2.7-.3 0-.6.1-.8.2.5.2.8.7.8 1.2 0 .8-.6 1.4-1.4 1.4-.7-.1-1.4-.7-1.4-1.4M41.5 29.8c5.1-11.6 10.4-16.7 11.9-16.7.4 0 .6.3.6.7 0 .5-.3 1.3-.9 2.7l-2.8 6.2-.3.6c-1.3 3-2.1 4.7-2.1 5.7 0 .5.1.9.4 1.2s.7.5 1.2.5c1.7 0 3.9-1.7 6.5-5.3l.1-.1-.8-.6h-.1c-1.5 1.8-3 3.6-3.8 3.6 0 0-.1 0-.1-.3s.3-1 .7-1.9l3.7-8.1.1-.1c.9-2 1.5-3.5 1.5-4.7 0-1.3-.7-2-2.1-2-2.6 0-5.8 3-9.4 8.4l1.4-3.4c.4-1.1.8-2 .8-3 0-1.3-.7-2-2.1-2-.9 0-4.4.6-9.1 7.9l.9-2.3c.6-1.6 1-3 1-3.9 0-1.1-.5-1.6-1.6-1.6-1.8 0-4.1 2.1-6.7 6.3l.1.1.8.5.3-.3c2-2.8 3.2-4.3 3.9-4.3.1 0 .2 0 .2.4 0 .3-.1.8-.5 1.5l-6.7 15.3H32v-.1c4.4-9.1 10.7-17.6 12-17.6.4 0 .6.3.6.7 0 .5-.2 1.1-.5 1.9L38 30.9h3.1l.4-1.1zM13.4 22l5.3-18c.3-1 .9-1.7 1.9-1.7l1.9-.1V.9H11v1.3l1.6.1c1.5.1 1.7.4 1.7 1 0 .3-.1.7-.3 1.5L8.4 24.3c-1.2 4.2-2 5.7-3.1 5.7-.6 0-.8-.2-.9-.6-.1-.2-.1-.4-.2-.8 0-.1 0-.3-.1-.4 0-.2-.1-.6-.1-.8-.3-1.3-.9-2-1.9-2-1.2 0-2 .9-2 2 0 2.2 2.3 4 5.2 4 3.7-.4 6.2-3.2 8.1-9.4M64.6 5.2c1.1 0 2.1-1.1 2.1-2.2 0-1.2-.9-2.2-2.1-2.2-1.2 0-2.1.9-2.1 2.2-.1 1.2.8 2.2 2.1 2.2" class="st0"/>
  <path d="m29.9 25.1-.7-.9-.3.4c-.9 1.1-1.7 2-2.2 2.8-.5.6-.9.9-1.1.9 0 0-.1-.1-.1-.3 0-.6.7-2.3 2.2-5.7l4.9-10.8h-1.8l-1.6 1.6c-.6-1.1-1.4-1.6-2.7-1.6-2.7 0-5.9 2.3-9.1 6.7-2.7 3.5-4.2 6.8-4.2 9.2 0 2.2 1.2 3.7 3.3 3.7 2.2 0 4.4-1.5 6.5-4.7-.1.3-.2.6-.3 1-.3.9-.4 1.5-.4 2 0 1 .6 1.7 1.5 1.7 1.2-.2 3.3-2.1 6.1-6m-12.5 4c-.9 0-1.3-.5-1.3-1.6 0-1.8 1.4-5.1 3.8-8.9 2.6-4 4.5-5.9 6.1-5.9.8 0 1.3.5 1.3 1.3 0 1.3-1.1 3.9-3.6 8.5-2.7 4.8-5 6.6-6.3 6.6M113.1 25.7l.1-.2-.5-.4-.2-.2-.3-.2-.1.2c-1.7 2.3-2.9 3.5-3.5 3.6v-.1c0-.2.1-.6.3-1l3.8-9 .2-.5c.4-.8.7-1.6.9-2.2.3-.9.5-1.5.5-2.1 0-1.4-.8-2.2-2.2-2.2-2.2 0-5 2.4-7.9 6.7l.3-.9c.7-1.6 1-2.9 1-3.8 0-1.3-.5-1.9-1.6-1.9-1.5 0-3.4 1.6-5.5 4.9-.3-3.1-1.9-5-4.2-5-2.1 0-4.5 1.7-6.3 4.6-1.8 3-2.9 6.3-2.9 9.4 0 3.7 1.6 6 4.3 6 2.2 0 4.5-1.5 6.2-4.3 1.6-2.6 2.7-5.6 3-8.6 2-2.9 3.1-4.4 3.8-4.4 0 0 .1.1.1.3s-.1.5-.2.9-.3.9-.6 1.5l-5.4 13.9h1.7c1.5 0 1.5-.1 1.6-.1 4.6-11.9 9.7-17 10.9-17 .3 0 .4.2.4.6 0 .3-.1 1-.5 1.9l-3 6.8-.4.9c-.5 1.2-1 2.2-1.3 3.1-.5 1.1-.6 1.9-.6 2.4 0 1.1.7 1.8 1.7 1.8 1.8 0 3.9-1.8 6.4-5.4m-20.9 1c-1.2 2.1-2.1 3.1-3.3 3.1-1 0-1.6-.9-1.6-2.6 0-1.4.7-5.1 2.9-9.2 1.9-3.9 3.2-5.4 4.4-5.4 1.1 0 1.7.9 1.7 2.6 0 2.1-1.3 6.5-4.1 11.5" class="st0"/>
  <path d="M84.2 25.3c0-1.3-.3-2.6-1-3.8l-1.9-3.3c-.5-.8-.7-1.5-.7-2.4 0-1.9.9-2.8 1.8-2.8.4 0 .7.1 1 .5.1.2.3.3.4.6l.1.1c.1.2.3.4.4.6.3.4.8.7 1.4.7 1 0 1.7-.7 1.7-1.7 0-1.5-1.8-2.6-3.5-2.6-3.3 0-6.1 3.1-6.1 6.5 0 1.2.3 2.4 1 3.6l1.4 2.4c.7 1.2 1.1 2.2 1.1 3.3 0 1.7-1 3-2.6 3-1 0-1.6-.5-2.1-1.8l-.1-.2c-.1-.2-.1-.3-.2-.4L76 27c-.3-.4-.7-.6-1.2-.6-1 0-1.7.8-1.7 1.8 0 1.7 2.3 3.1 5.3 3.1 3.6-.2 5.8-2.4 5.8-6M74 25.3l.1-.2-.8-.6-.1.2c-2.2 3.4-3.9 4.9-5.4 4.9-.8 0-1.4-.6-1.4-1.5 0-1.4.3-3.1.9-4.8 6.5-3.1 10.2-6.3 10.2-9 0-1.8-1.1-2.9-3-2.9-2.3 0-5 1.9-7.7 5.6-1.9 2.7-3.2 5.4-3.7 7.9-1.7 2.6-3.1 3.8-3.6 3.8v-.2c0-.1.1-.4.3-.9L64 17.2l.2-.5c.3-.7.5-1.2.7-1.7.2-.7.4-1.2.4-1.6 0-.8-.3-1.3-.8-1.5-.3-.2-.6-.3-1.1-.3-1.8 0-4.1 2.1-6.7 6.3v-.2l.8.5.3-.3c2-2.8 3.2-4.3 3.9-4.3.1 0 .2 0 .2.4 0 .2-.1.5-.2.9-.1.2-.2.5-.4.9l-.1.2-.2.3-3.7 8.9c-.8 1.9-1.2 3.2-1.2 4.1 0 1 .6 1.7 1.6 1.7 1.4 0 3.2-1.3 5.2-3.9.2 2.3 1.7 3.9 4.1 3.9 2.5.1 4.7-1.8 7-5.7m.3-12.8c.4 0 .7.3.7.9 0 1.8-2.2 5.1-7 8 2.1-6.1 4.9-8.9 6.3-8.9M158.9 27.2l.2-.2s.5-.5 1-1.4c.8-1.2 1.5-2.4 2-3.7l-.9-1.1-.2.3c-2.4 5.2-6 8.3-9.4 8.3-3.1 0-4.9-2.4-4.9-6.6 0-4.8 2-10.2 5.5-15.1 3.1-4.2 6-6.3 8.6-6.3 2.1 0 3.2 1.1 3.3 3.8l.2 4.9h1l2.3-8.9-.5-.2-.1-.2-.3.1c-.3.6-.6.8-.9.8l-.3-.2c-.3-.2-.6-.4-1-.6-1.1-.6-2.6-.9-4-.9-3.7 0-7.7 1.9-11 5.5-2.1 2.2-3.8 4.7-4.9 7.3-.3.7-.6 1.4-.8 2-.1.4-.3.8-.4 1.2 0 0-.8 2.6-.9 5.5.1 5.4 3.5 9.3 8.1 9.3 3.2.2 5.8-.9 8.3-3.6M165 30.7c2.2 0 4.3-1.5 6.5-4.7-.1.4-.2.7-.3.9-.3.9-.4 1.5-.4 2 0 1 .6 1.7 1.4 1.7 1.4 0 3.6-2 6.2-5.7v-.1l-.7-.8-.3.4c-.9 1.1-1.6 2-2.2 2.7-.5.6-.9.9-1.1.9 0 0-.1-.1-.1-.3 0-.6.7-2.3 2.1-5.7l4.8-10.6H179l-1.6 1.5c-.6-1.1-1.4-1.6-2.7-1.6-2.7 0-5.8 2.3-9.1 6.6-2.7 3.5-4.1 6.8-4.1 9.1.3 2.3 1.5 3.7 3.5 3.7m3.7-12.2c2.6-3.9 4.5-5.8 6-5.8.8 0 1.3.5 1.3 1.3 0 1.3-1.1 3.9-3.6 8.4-2.8 4.9-5.1 6.6-6.2 6.6-.8 0-1.2-.5-1.2-1.6 0-2 1.3-5.3 3.7-8.9" class="st0"/>
  <path d="m179.1 17.5.7.6.3-.4c2-2.8 3.2-4.3 4-4.3.1 0 .2 0 .2.4 0 .1 0 .4-.1.7 0 .1 0 .2-.1.3v.1c-.1.2-.1.4-.2.6l-5.5 15h3.1v-.1c4.1-10.7 7.5-17.1 9.5-17.1.5 0 .7.2.8.3s.1.3.2.4c0 .1 0 .1.1.2 0 .1.1.2.1.3.3.7.6 1.1 1.4 1.1 1 0 1.8-.9 1.8-2.1 0-1.5-1-2.6-2.7-2.6-1.8 0-3.6 1.1-5.4 3.7.2-.8.3-1.4.3-1.8 0-.5-.1-.8-.3-1.1-.2-.5-.7-.7-1.4-.7-1.9.1-4.1 2.3-6.8 6.5M194 17.5l.7.6.3-.4c2-2.8 3.2-4.3 4-4.3.1 0 .2 0 .2.4 0 .1 0 .4-.1.7 0 .1 0 .2-.1.3v.1c-.1.2-.1.4-.2.6l-5.6 15.1h3.1v-.1c4.1-10.7 7.5-17.1 9.5-17.1.5 0 .7.2.8.3s.1.3.2.4c0 .1 0 .1.1.2 0 .1.1.2.1.3.3.7.6 1.1 1.4 1.1 1 0 1.8-.9 1.8-2.1 0-1.5-1-2.6-2.7-2.6-1.8 0-3.6 1.1-5.4 3.7.2-.8.3-1.4.3-1.8 0-.5-.1-.8-.3-1.1-.2-.5-.7-.7-1.4-.7-1.8.1-4.1 2.3-6.7 6.4M220.4 25.8s1.3-2.6 2.8-5.4c1.4-3.1 2.8-6.3 3.3-8l.3-1H223.5v.1c-4.7 11.8-9.7 16.9-10.9 16.9-.2 0-.4-.2-.4-.6 0-.3.1-1 .5-1.8l3-6.7.4-.9c.5-1.2.9-2.1 1.3-3.1.2-.7.3-1.1.4-1.5v-.4c0-.4-.1-.7-.2-1-.1-.3-.2-.5-.3-.6l-.1-.1c-.3-.2-.6-.3-1.1-.3-1.9 0-4.3 2.1-7.1 6.3l-.1.1.8.5.3-.3c2.1-2.8 3.3-4.2 4.2-4.2.1 0 .2 0 .2.3 0 .1-.1.3-.1.6 0 .1 0 .2-.1.4l-3.7 8.6-.2.5c-.3.8-.6 1.6-.9 2.2-.3.9-.4 1.5-.4 2.1 0 1.4.7 2.1 2.1 2.1 1.1 0 2.4-.7 3.9-2-2.7 4.8-5 7.5-6.4 7.4-.5 0-.7-.2-.8-.4-.1-.1-.1-.2-.2-.4V35c0-.1-.1-.2-.1-.3-.2-.7-.5-1.1-1.3-1.2-.4 0-.9.1-1.2.4-.4.4-.7.9-.7 1.6-.1 1.5.9 2.6 2.4 2.7h.3c.3 0 .5 0 .8-.1 0 0 .2 0 .4-.1.3-.1.6-.1.7-.2 2.8-.8 5.6-3.2 8.4-6.8 1.8-2.6 3.1-5.2 3.1-5.2" class="st0"/>
</svg>