<?xml version="1.0" encoding="utf-8"?>
<!-- Generator: Adobe Illustrator 24.2.1, SVG Export Plug-In . SVG Version: 6.00 Build 0)  -->
<svg version="1.1" id="Layer_1" xmlns="http://www.w3.org/2000/svg" xmlns:xlink="http://www.w3.org/1999/xlink" x="0px" y="0px"
	 viewBox="0 0 579.1 168.41" style="enable-background:new 0 0 579.1 168.41;" xml:space="preserve">
<style type="text/css">
	.st0{fill:#48AC35;}
</style>
<path class="st0" d="M459.67,2.14c2.65-2.85,5.04-2.85,7.68-0.01l11.91,12.81c2.78,2.99,3.17,5.41,0.26,8.55l-12.17,13.09
	c-2.65,2.85-5.04,2.85-7.68,0.01l-11.91-12.81c-2.78-2.99-3.18-5.41-0.26-8.55L459.67,2.14z"/>
<path class="st0" d="M479.56,60.16v98.58c0,4.61-1.93,6.68-6.2,6.68H454.1c-4.5,0-6.63-1.61-6.63-6.68V60.16
	c0-4.13,0.22-6.84,4.48-6.84h21.61C478.42,53.31,479.56,54.05,479.56,60.16"/>
<path class="st0" d="M84.98,165.42H6.85c-4.49,0-6.85-1.15-6.85-7.38V12.67c0-4.14,1.93-6.43,5.99-6.43h21.61
	c4.69,0,6.41,1.6,6.41,6.89v121.44h43.46c5.08,0,5.97,2.72,7.41,6.68c1.46,4.01,5.03,13.38,6.5,17.48
	C92.86,162.8,88.61,165.42,84.98,165.42"/>
<path class="st0" d="M145.66,77.25c-15.84,0-20.97,14.73-20.97,31.54c0,17.03,4.5,32.46,20.32,32.46c15.84,0,20.97-15.2,20.97-32
	C165.99,92.22,161.49,77.25,145.66,77.25 M144.59,168.4c-36.15,0-53.05-25.09-53.05-59.38c0-33.84,19.89-58.93,54.55-58.93
	c36.15,0,53.06,25.09,53.06,59.38C199.15,143.32,179.24,168.4,144.59,168.4"/>
<path class="st0" d="M304.49,165.42h-19.68c-4.49,0-6.21-2.54-6.21-6.91V97.28c0-9.67-2.35-16.11-12.19-16.11
	c-7.05,0-15.83,3.45-21.81,8.97v68.59c0,4.38-1.71,6.68-6,6.68h-20.11c-3.63,0-5.99-2.08-5.99-6.23V60c0-4.38,1.5-6.68,6.2-6.68
	h17.54c3.2,0,5.56,0.93,5.99,4.83l0.44,4.84c9.84-8.3,21.6-12.89,34.22-12.89c23.54,0,33.81,15.87,33.81,40.96v67.44
	C310.7,163.11,309.21,165.42,304.49,165.42"/>
<path class="st0" d="M394.87,85.08c-3.84-3.92-10.69-7.38-16.89-7.38c-15.61,0-20.54,17.73-20.54,31.54
	c0,14.27,3.63,31.08,19.89,31.08c6.21,0,14.13-4.38,17.54-8.29V85.08z M421.18,165.42h-17.96c-3.64,0-5.36-2.08-5.57-4.62
	l-0.44-4.83c-5.35,6.2-16.89,12.43-27.16,12.43c-31.01,0-46-25.78-46-57.08c0-30.62,15.19-61.46,46.85-61.46
	c9.42,0,18.18,3.45,23.95,9.21V11.05c0-4.13,1.07-6.43,5.14-7.12l20.97-3c0.42,0,1.28-0.23,1.71-0.23c2.99,0,4.27,1.85,4.27,5.07
	v153.19C426.96,163.58,424.39,165.42,421.18,165.42"/>
<path class="st0" d="M536.1,168.41c-11.34,0-23.96-3.22-35.73-8.52c-2.35-0.92-2.99-2.53-2.99-4.13c0-0.93,0.22-1.85,0.43-2.77
	l4.28-14.51c0.85-2.98,1.71-4.14,3.2-4.14c0.86,0,1.93,0.23,3.43,0.92c10.48,4.61,20.53,7.13,28.24,7.13
	c6.85,0,11.55-2.99,11.55-8.06c0-4.37-2.14-6.67-10.05-9.91l-19.04-7.58c-11.55-4.61-21.82-15.66-21.82-32.23
	c0-24.63,21.82-34.53,40.86-34.53c11.12,0,22.24,1.85,33.58,7.36c1.93,0.92,3,2.09,3,3.92c0,0.7-0.22,1.62-0.43,2.54L570.11,80
	c-0.43,1.85-1.93,2.77-3.63,2.77c-0.65,0-1.51-0.23-2.36-0.47c-8.12-3.22-16.9-5.52-23.75-5.52c-7.06,0-10.28,4.14-10.28,7.38
	c0,2.76,0.87,5.75,8.13,8.74l21.6,9.21c10.91,4.61,19.26,14.28,19.26,29.7C579.1,158.26,557.28,168.41,536.1,168.41"/>
</svg>
