<?xml version="1.0" encoding="utf-8"?>
<!-- Generator: Adobe Illustrator 15.1.0, SVG Export Plug-In . SVG Version: 6.00 Build 0)  -->
<!DOCTYPE svg PUBLIC "-//W3C//DTD SVG 1.1//EN" "http://www.w3.org/Graphics/SVG/1.1/DTD/svg11.dtd">
<svg version="1.1" xmlns="http://www.w3.org/2000/svg" xmlns:xlink="http://www.w3.org/1999/xlink" x="0px" y="0px" width="200px"
	 height="200px" viewBox="0 0 200 200" enable-background="new 0 0 200 200" xml:space="preserve">
<g id="Logo">
	<g id="_x32_px_Stroke" display="none">
		<path display="inline" fill="#A9A9A9" d="M198,2v196H2V2H198 M200,0H0v200h200V0L200,0z"/>
	</g>
	<g display="none">
		<rect x="0" y="0" display="inline" fill="#F6F7FB" width="200" height="200"/>
		
			<text transform="matrix(1 0 0 1 34.1855 109.8926)" display="inline" fill="#A3A3A3" font-family="'PTSans-Caption'" font-size="32.0585">Eurostar</text>
	</g>
	<g>
		<path fill="#0739AF" d="M24.231,104.95c-1.332,1.371-3.257,2.058-5.776,2.058s-4.444-0.687-5.775-2.058
			C10.894,103.269,10,100.845,10,97.68c0-3.229,0.893-5.652,2.679-7.271c1.331-1.371,3.256-2.057,5.775-2.057
			s4.444,0.686,5.776,2.057c1.777,1.618,2.667,4.041,2.667,7.271C26.898,100.845,26.009,103.269,24.231,104.95z M21.929,102.271
			c0.857-1.075,1.286-2.606,1.286-4.591c0-1.977-0.429-3.505-1.286-4.586c-0.857-1.08-2.015-1.62-3.474-1.62
			s-2.623,0.538-3.492,1.614c-0.869,1.076-1.304,2.606-1.304,4.592s0.435,3.516,1.304,4.591c0.869,1.076,2.033,1.614,3.492,1.614
			S21.072,103.348,21.929,102.271z"/>
		<path fill="#0739AF" d="M40.247,94.881c1.063,1.124,1.595,2.775,1.595,4.951c0,2.296-0.52,4.047-1.559,5.25
			c-1.039,1.204-2.377,1.806-4.014,1.806c-1.043,0-1.91-0.259-2.6-0.776c-0.377-0.288-0.746-0.706-1.106-1.257v6.793H29.19V93.482
			h3.265v1.926c0.369-0.566,0.762-1.013,1.179-1.34c0.762-0.582,1.668-0.873,2.72-0.873C37.887,93.195,39.184,93.757,40.247,94.881z
			 M37.632,97.333c-0.463-0.773-1.214-1.16-2.253-1.16c-1.248,0-2.106,0.586-2.573,1.758c-0.241,0.622-0.362,1.411-0.362,2.368
			c0,1.515,0.407,2.579,1.219,3.193c0.483,0.358,1.055,0.538,1.716,0.538c0.959,0,1.689-0.367,2.193-1.101
			c0.503-0.733,0.755-1.71,0.755-2.93C38.327,98.996,38.095,98.106,37.632,97.333z"/>
		<path fill="#0739AF" d="M42.76,96.029v-2.427h1.818v-3.636h3.372v3.636h2.117v2.427h-2.117v6.888c0,0.535,0.068,0.868,0.204,0.999
			c0.135,0.132,0.55,0.197,1.244,0.197c0.104,0,0.213-0.002,0.329-0.006c0.116-0.004,0.229-0.01,0.341-0.019v2.548l-1.614,0.061
			c-1.61,0.055-2.711-0.225-3.301-0.838c-0.383-0.391-0.574-0.992-0.574-1.806v-8.024H42.76z"/>
		<path fill="#0739AF" d="M55.611,91.928h-3.456v-3.145h3.456V91.928z M52.156,93.482h3.456v13.034h-3.456V93.482z"/>
		<path fill="#0739AF" d="M66.562,98.159c-0.064-0.487-0.228-0.925-0.492-1.316c-0.384-0.526-0.979-0.789-1.786-0.789
			c-1.15,0-1.938,0.57-2.361,1.71c-0.224,0.604-0.335,1.407-0.335,2.409c0,0.954,0.112,1.722,0.335,2.303
			c0.408,1.084,1.175,1.626,2.302,1.626c0.799,0,1.367-0.216,1.703-0.646c0.335-0.43,0.539-0.988,0.611-1.673h3.48
			c-0.08,1.036-0.455,2.017-1.125,2.941c-1.07,1.49-2.654,2.236-4.752,2.236c-2.099,0-3.643-0.623-4.633-1.865
			c-0.989-1.244-1.485-2.856-1.485-4.839c0-2.235,0.547-3.975,1.64-5.219c1.093-1.243,2.602-1.866,4.525-1.866
			c1.636,0,2.975,0.367,4.016,1.1c1.042,0.734,1.658,2.029,1.849,3.887H66.562z"/>
		<path fill="#0739AF" d="M77.4,98.589c0.635-0.081,1.089-0.179,1.361-0.299c0.491-0.208,0.735-0.531,0.735-0.969
			c0-0.534-0.188-0.903-0.564-1.106c-0.375-0.204-0.927-0.305-1.654-0.305c-0.816,0-1.394,0.199-1.733,0.598
			c-0.243,0.295-0.404,0.693-0.485,1.196h-3.289c0.072-1.14,0.393-2.077,0.96-2.81c0.905-1.148,2.458-1.723,4.66-1.723
			c1.434,0,2.706,0.284,3.819,0.849c1.113,0.566,1.669,1.635,1.669,3.205v5.979c0,0.414,0.008,0.917,0.024,1.507
			c0.024,0.446,0.092,0.749,0.204,0.908c0.111,0.159,0.279,0.291,0.502,0.396v0.501h-3.708c-0.104-0.263-0.175-0.51-0.215-0.741
			c-0.041-0.23-0.072-0.494-0.096-0.789c-0.473,0.511-1.018,0.945-1.635,1.304c-0.738,0.423-1.572,0.633-2.502,0.633
			c-1.187,0-2.167-0.336-2.941-1.01s-1.161-1.628-1.161-2.864c0-1.602,0.623-2.762,1.868-3.479c0.682-0.391,1.687-0.669,3.012-0.837
			L77.4,98.589z M79.485,100.18c-0.218,0.135-0.438,0.244-0.661,0.328c-0.222,0.084-0.527,0.162-0.915,0.233l-0.775,0.144
			c-0.727,0.128-1.25,0.283-1.567,0.467c-0.537,0.311-0.805,0.793-0.805,1.447c0,0.581,0.164,1.002,0.492,1.262
			c0.328,0.258,0.727,0.388,1.197,0.388c0.745,0,1.43-0.215,2.058-0.646s0.953-1.216,0.978-2.355V100.18z"/>
		<path fill="#0739AF" d="M89.191,106.517h-3.408V88.89h3.408V106.517z"/>
		<path fill="#0739AF" d="M112.336,92.012h-9.327v3.742h8.562v3.061h-8.562v4.532h9.759v3.169H99.409V88.89h12.927V92.012z"/>
		<path fill="#0739AF" d="M113.916,106.517l4.449-6.6l-4.257-6.41h4.174l2.177,3.775l2.128-3.775h4.055l-4.281,6.35l4.447,6.661
			h-4.245l-2.242-3.918l-2.266,3.918H113.916z"/>
		<path fill="#0739AF" d="M139.649,94.881c1.063,1.124,1.596,2.775,1.596,4.951c0,2.296-0.52,4.047-1.56,5.25
			c-1.039,1.204-2.377,1.806-4.014,1.806c-1.043,0-1.909-0.259-2.6-0.776c-0.377-0.288-0.746-0.706-1.107-1.257v6.793h-3.372V93.482
			h3.264v1.926c0.369-0.566,0.764-1.013,1.181-1.34c0.762-0.582,1.668-0.873,2.719-0.873
			C137.289,93.195,138.586,93.757,139.649,94.881z M137.034,97.333c-0.463-0.773-1.214-1.16-2.253-1.16
			c-1.248,0-2.106,0.586-2.573,1.758c-0.242,0.622-0.363,1.411-0.363,2.368c0,1.515,0.407,2.579,1.219,3.193
			c0.484,0.358,1.056,0.538,1.717,0.538c0.959,0,1.689-0.367,2.193-1.101c0.503-0.733,0.755-1.71,0.755-2.93
			C137.729,98.996,137.497,98.106,137.034,97.333z"/>
		<path fill="#0739AF" d="M150.741,93.178c0.044,0.004,0.142,0.009,0.294,0.018v3.492c-0.216-0.024-0.406-0.04-0.574-0.048
			s-0.304-0.012-0.406-0.012c-1.371,0-2.293,0.446-2.763,1.339c-0.264,0.502-0.395,1.276-0.395,2.32v6.229h-3.432V93.482h3.252
			v2.272c0.526-0.869,0.985-1.463,1.375-1.781c0.639-0.535,1.467-0.802,2.488-0.802C150.644,93.171,150.697,93.174,150.741,93.178z"
			/>
		<path fill="#0739AF" d="M161.379,93.746c0.909,0.408,1.66,1.051,2.252,1.929c0.534,0.774,0.88,1.673,1.038,2.694
			c0.092,0.599,0.13,1.461,0.113,2.587h-9.494c0.054,1.308,0.508,2.226,1.363,2.751c0.521,0.327,1.146,0.489,1.879,0.489
			c0.777,0,1.407-0.198,1.894-0.597c0.265-0.215,0.498-0.515,0.7-0.897h3.48c-0.092,0.774-0.513,1.56-1.264,2.355
			c-1.168,1.269-2.803,1.902-4.904,1.902c-1.735,0-3.265-0.535-4.591-1.604c-1.325-1.07-1.988-2.81-1.988-5.219
			c0-2.258,0.598-3.989,1.795-5.195c1.197-1.204,2.751-1.807,4.661-1.807C159.447,93.136,160.47,93.339,161.379,93.746z
			 M156.28,96.69c-0.482,0.497-0.784,1.169-0.907,2.018h5.87c-0.062-0.905-0.364-1.591-0.907-2.059
			c-0.543-0.469-1.218-0.703-2.021-0.703C157.439,95.946,156.762,96.194,156.28,96.69z"/>
		<path fill="#0739AF" d="M169.002,102.355c0.071,0.605,0.228,1.036,0.468,1.292c0.426,0.454,1.21,0.682,2.354,0.682
			c0.674,0,1.208-0.1,1.605-0.299c0.396-0.199,0.595-0.499,0.595-0.897c0-0.382-0.161-0.673-0.479-0.872
			c-0.319-0.2-1.508-0.542-3.566-1.029c-1.48-0.367-2.523-0.825-3.13-1.375c-0.604-0.542-0.909-1.323-0.909-2.344
			c0-1.203,0.474-2.238,1.42-3.103c0.946-0.864,2.279-1.297,3.998-1.297c1.629,0,2.958,0.324,3.983,0.975
			c1.027,0.65,1.616,1.771,1.768,3.366h-3.407c-0.048-0.438-0.172-0.785-0.371-1.041c-0.377-0.462-1.016-0.693-1.919-0.693
			c-0.744,0-1.274,0.116-1.589,0.347c-0.317,0.23-0.474,0.501-0.474,0.813c0,0.39,0.167,0.673,0.503,0.849
			c0.336,0.184,1.522,0.499,3.56,0.945c1.357,0.319,2.375,0.801,3.053,1.447c0.67,0.653,1.004,1.47,1.004,2.451
			c0,1.291-0.481,2.346-1.443,3.162c-0.964,0.817-2.451,1.227-4.463,1.227c-2.055,0-3.57-0.433-4.548-1.298
			c-0.979-0.865-1.469-1.967-1.469-3.307H169.002z"/>
		<path fill="#0739AF" d="M182.475,102.355c0.072,0.605,0.229,1.036,0.469,1.292c0.424,0.454,1.209,0.682,2.355,0.682
			c0.672,0,1.207-0.1,1.604-0.299c0.397-0.199,0.595-0.499,0.595-0.897c0-0.382-0.16-0.673-0.479-0.872
			c-0.318-0.2-1.508-0.542-3.564-1.029c-1.481-0.367-2.525-0.825-3.131-1.375c-0.605-0.542-0.909-1.323-0.909-2.344
			c0-1.203,0.473-2.238,1.421-3.103c0.946-0.864,2.278-1.297,3.996-1.297c1.63,0,2.958,0.324,3.984,0.975
			c1.027,0.65,1.616,1.771,1.769,3.366h-3.409c-0.048-0.438-0.172-0.785-0.371-1.041c-0.376-0.462-1.016-0.693-1.919-0.693
			c-0.744,0-1.272,0.116-1.588,0.347c-0.316,0.23-0.475,0.501-0.475,0.813c0,0.39,0.168,0.673,0.503,0.849
			c0.336,0.184,1.522,0.499,3.56,0.945c1.357,0.319,2.375,0.801,3.053,1.447c0.67,0.653,1.005,1.47,1.005,2.451
			c0,1.291-0.481,2.346-1.444,3.162c-0.962,0.817-2.45,1.227-4.464,1.227c-2.053,0-3.567-0.433-4.547-1.298
			c-0.978-0.865-1.468-1.967-1.468-3.307H182.475z"/>
	</g>
</g>
<g id="Guides">
	<g>
		<g>
		</g>
		<g>
		</g>
	</g>
</g>
</svg>
