<?xml version="1.0" encoding="UTF-8"?>
<svg xmlns="http://www.w3.org/2000/svg" version="1.1" viewBox="0 0 400 400">
  <defs>
    <style>
      .cls-1 {
        display: none;
        fill: #f04c3d;
      }

      .cls-2 {
        fill: #62bb46;
      }

      .cls-3 {
        fill: #004833;
      }
    </style>
  </defs>
  <!-- Generator: Adobe Illustrator 28.7.1, SVG Export Plug-In . SVG Version: 1.2.0 Build 142)  -->
  <g>
    <g id="Layer_1">
      <path id="path95" class="cls-1" d="M286.6,236.8v3.7c0,23.9-40.5,44.2-90.3,44.2-9.9.3-19.7-.3-29.5-1.8,13.8,3.8,28.1,5.6,42.4,5.5,46.1,0,84.7-16.6,84.7-36.8-.5-5.7-3.2-10.9-7.4-14.7M282.9,220.2c.2-2.6-.4-5.2-1.8-7.4-11.1,18.4-46.1,33.2-88.4,33.2-24.3,0-48.3-5.7-70-16.6,22.1,16.9,49.6,25.4,77.4,23.9,47.9,1.8,81.1-16.6,82.9-33.2M301.3,271.8c0,23.9-40.5,42.4-90.3,42.4s-90.3-18.4-90.3-42.4v-9.2c-7.6-4.9-12.4-13.1-12.9-22.1v-16.6c-5.4-5.7-9.2-12.7-11.1-20.3v-5.5c-9.6-5.2-15.9-14.9-16.6-25.8v-23.9c.7-10.9,7-20.6,16.6-25.8,1.8-27.6,42.4-47.9,95.8-47.9s95.8,20.3,95.8,47.9-1.8,22.1-1.8,23.9c.4,6.4-2.4,12.6-7.4,16.6,2.3,4.6,3.6,9.6,3.7,14.7v27.6c3.7,3.3,5.7,8,5.5,12.9v7.4c7.6,4.9,12.4,13.1,12.9,22.1,1.8,7.9,1.8,16.1,0,23.9M200,32.3c-92.6,0-167.7,75.1-167.7,167.7,0,92.6,75.1,167.7,167.7,167.7,92.6,0,167.7-75.1,167.7-167.7,0-92.6-75.1-167.7-167.7-167.7h0M100.5,150.2c-1.5-6-2.2-12.2-1.8-18.4-5.6,5.3-8.9,12.6-9.2,20.3,0,16.6,25.8,31.3,60.8,36.8-27.6-9.2-46.1-23.9-49.7-38.7M222.1,118.9c2.6.2,5.2-.4,7.4-1.8,1.8,0,1.8-1.8,3.7-1.8v-1.8c0-1.8-3.7-3.7-5.5-3.7h-11.1l1.8,11.1q1.8-1.8,3.7-1.8M168.7,122.6c2.6.2,5.2-.4,7.4-1.8,1.8,0,1.8-1.8,3.7-1.8v-1.8c0-1.8-3.7-3.7-5.5-3.7h-11.1l1.8,11.1c0-1.8,1.8-1.8,3.7-1.8M266.3,172.3c-1.8,22.1-40.5,42.4-90.3,42.4h-5.5c7.3,1.5,14.7,2.2,22.1,1.8,46.1,0,84.7-16.6,84.7-38.7-.4-3.9-1.6-7.7-3.7-11.1-1.8,1.8-5.5,3.7-7.4,5.5M157.6,104.2h11.1c4.4-.3,8.8.3,12.9,1.8,6.1.4,11.7,3.9,14.7,9.2,0,1.8,0,5.5-1.8,5.5s-5.5,3.7-9.2,5.5c-2.2,1.3-4.8,1.9-7.4,1.8-3.8-.3-7.6.3-11.1,1.8v1.8l1.8,9.2h-16.6l-3.7-16.6v-5.5l-3.7-12.9c1.8-1.8,9.2-1.8,12.9-1.8M198.1,102.3h23.9c4.4-.3,8.8.3,12.9,1.8,6.1.4,11.7,3.9,14.7,9.2,0,1.8,0,5.5-1.8,5.5s-5.5,3.7-9.2,5.5c-2.2,1.3-4.8,1.9-7.4,1.8-3.8-.3-7.6.3-11.1,1.8v1.8l1.8,9.2h-16.6l-3.7-16.6v-5.5l-3.7-14.7ZM194.5,163.1c47.9,0,86.6-18.4,86.6-40.5s-38.7-40.5-86.6-40.5-86.6,18.4-86.6,40.5,38.7,40.5,86.6,40.5"/>
      <g id="g30">
        <path id="path26" class="cls-3" d="M39.5,195l-7.1-86.5v-.6c11.4-2,23-3.6,34.6-4.6,9.5-.9,19.1-1.3,28.6-1.2,12.6.2,25,2.8,36.5,7.6,22.3,9.9,37.1,31.4,38.5,55.7,1.2,12.6-.7,25.4-5.7,37-5.1,11.5-13.4,21.4-23.9,28.4-6.9,4.4-14.4,7.9-22.2,10.3-9.3,2.9-18.9,4.8-28.6,5.7l.6,7.7,5.5,55.7v.6l-24.9,2.2-21.5,1.9v-.5l-8.1-92.6-2.3-26.8h0ZM123.4,169.9c-.6-9.5-6-18-14.3-22.7-6-3.1-12.8-4.3-19.5-3.6-2.1,0-4.7.4-7.9.9l5.3,60.8c2.8-.2,5.7-.5,8.4-1,6.5-.9,12.7-3.3,18-7.2,3.7-3,6.5-6.9,8.1-11.3,1.8-5,2.4-10.3,1.9-15.5v-.4h0ZM187.8,181.9l-7.5-86.5v-.5c6.8-1.4,22.6-3.6,34.6-4.7,9.5-.9,19.1-1.3,28.6-1.1,12.7.1,25.2,2.7,36.9,7.7,22.3,9.8,37.2,31.4,38.4,55.7,1.3,12.6-.7,25.4-5.6,37-5.1,11.4-13.4,21.2-23.7,28.3-6.9,4.4-14.5,7.9-22.3,10.3-9.2,2.8-18.7,4.7-28.3,5.7l.5,7.7,4.9,55.7v.6l-24.8,2.2-21.5,1.9v-.8l-8.1-92.5-2.1-26.7h0ZM271.5,156.9c-.7-9.5-6-18-14.3-22.7-6-3.1-12.8-4.3-19.5-3.6-2.1,0-4.7.4-7.9.9l5.2,60.8c1.4,0,6.4-.6,8.4-1,6.5-.9,12.7-3.3,18-7.2,3.6-3,6.4-6.8,8.1-11.2,1.9-5.1,2.5-10.6,1.9-16h0Z"/>
        <path id="path27" class="cls-2" d="M362.8,280.4c0,15.3-12.4,27.7-27.7,27.7-15.3,0-27.6-12.5-27.6-27.8h0c0-15.3,12.3-27.7,27.6-27.8,7.4,0,14.4,2.9,19.6,8.1,5.2,5.2,8.1,12.3,8,19.7Z"/>
      </g>
    </g>
  </g>
</svg>