<?xml version="1.0" encoding="UTF-8" standalone="no"?>
<svg
   width="781.13098"
   height="163.474"
   viewBox="0 0 781.13098 163.474"
   version="1.1"
   id="svg1"
   sodipodi:docname="Poundland_logo_2024.svg"
   inkscape:version="1.3.2 (091e20e, 2023-11-25, custom)"
   xmlns:inkscape="http://www.inkscape.org/namespaces/inkscape"
   xmlns:sodipodi="http://sodipodi.sourceforge.net/DTD/sodipodi-0.dtd"
   xmlns="http://www.w3.org/2000/svg"
   xmlns:svg="http://www.w3.org/2000/svg">
  <defs
     id="defs1" />
  <sodipodi:namedview
     id="namedview1"
     pagecolor="#ffffff"
     bordercolor="#000000"
     borderopacity="0.25"
     inkscape:showpageshadow="2"
     inkscape:pageopacity="0.0"
     inkscape:pagecheckerboard="0"
     inkscape:deskcolor="#d1d1d1"
     showgrid="false"
     inkscape:zoom="0.70710678"
     inkscape:cx="335.16861"
     inkscape:cy="116.67262"
     inkscape:window-width="1360"
     inkscape:window-height="697"
     inkscape:window-x="-8"
     inkscape:window-y="-8"
     inkscape:window-maximized="1"
     inkscape:current-layer="svg1" />
  <g
     inkscape:groupmode="layer"
     id="layer2"
     inkscape:label="Layer 1"
     transform="translate(0,0.01386118)">
    <rect
       style="fill:#017782;fill-opacity:1;stroke:#017782;stroke-width:5.57335"
       id="rect2"
       width="775.51349"
       height="158.3132"
       x="2.7807832"
       y="2.7767215" />
  </g>
  <path
     d="M 51.656854,29.085929 V 129.87593 h 20 V 93.604929 h 13.88 a 73.56,73.56 0 0 0 11,-0.83 48.39,48.39 0 0 0 10.729996,-2.96 25.29,25.29 0 0 0 7.55,-5 31.61,31.61 0 0 0 5.59,-7.11 34.19,34.19 0 0 0 3.48,-8.53 35.8,35.8 0 0 0 1.21,-9.12 33.47,33.47 0 0 0 -3.63,-15.33 23.42,23.42 0 0 0 -11.33,-10.79 43,43 0 0 0 -12.469996,-3.85 96.12,96.12 0 0 0 -14.28,-1 z m 380.479996,0 v 28.27 a 43.74,43.74 0 0 0 -13,-2.11 36.72,36.72 0 0 0 -16,3.25 33.46,33.46 0 0 0 -11.34,8.61 36.65,36.65 0 0 0 -6.8,12.16 43.76,43.76 0 0 0 -2.26,13.91 49.53,49.53 0 0 0 2.09,14.480001 36.94,36.94 0 0 0 6.27,12.24 31,31 0 0 0 10.28,8.46 29.88,29.88 0 0 0 14,3.18 23.08,23.08 0 0 0 10.42,-2.19 25.18,25.18 0 0 0 7.1,-5.06 l 0.91,5.59 h 17.97 V 29.084929 Z m 37.03,0 V 129.87593 h 19.79 V 29.084929 Z m 242.96,0 v 28.27 a 43.79,43.79 0 0 0 -13,-2.11 36.79,36.79 0 0 0 -16,3.25 33.52,33.52 0 0 0 -11.33,8.61 36.65,36.65 0 0 0 -6.8,12.16 43.76,43.76 0 0 0 -2.26,13.91 49.53,49.53 0 0 0 2.08,14.480001 36.94,36.94 0 0 0 6.27,12.24 31,31 0 0 0 10.28,8.46 29.87,29.87 0 0 0 14,3.18 23.09,23.09 0 0 0 10.43,-2.19 25.18,25.18 0 0 0 7.1,-5.06 l 0.91,5.59 h 17.96 V 29.084929 Z m -640.469996,17.37 h 12.04 a 49.31,49.31 0 0 1 7.4,0.46 30.07,30.07 0 0 1 5.44,1.36 11.24,11.24 0 0 1 6.419996,5.14 16.1,16.1 0 0 1 0.23,15.26 12.34,12.34 0 0 1 -6.199996,5.44 20.5,20.5 0 0 1 -6.12,1.66 63.5,63.5 0 0 1 -7.93,0.45 h -11.28 z m 271.179996,8.72 a 37.07,37.07 0 0 0 -11.78,2 33.61,33.61 0 0 0 -10.4,5.6 l -0.92,-5.74 h -18 v 72.840001 h 19.8 V 78.175929 a 35.48,35.48 0 0 1 6.8,-5 16.67,16.67 0 0 1 8.44,-2.24 c 4.326,0.006 7.7,1.52 10.12,4.54 2.42,3.02 3.63,7.3 3.63,12.84 v 41.560001 h 19.8 V 86.804929 a 45.62,45.62 0 0 0 -2,-14.509 25.94,25.94 0 0 0 -5.67,-9.82 21.61,21.61 0 0 0 -8.71,-5.56 34,34 0 0 0 -11.11,-1.741 z m 280,0 a 37,37 0 0 0 -11.78,2 33.61,33.61 0 0 0 -10.4,5.6 l -0.92,-5.74 h -18 v 72.840001 h 19.8 V 78.175929 a 35.48,35.48 0 0 1 6.8,-5 16.67,16.67 0 0 1 8.44,-2.24 c 4.326,0.006 7.7,1.52 10.12,4.54 2.42,3.02 3.63,7.3 3.63,12.84 v 41.560001 h 19.8 V 86.804929 a 45.91,45.91 0 0 0 -2,-14.509 26.07,26.07 0 0 0 -5.67,-9.82 21.61,21.61 0 0 0 -8.71,-5.56 34,34 0 0 0 -11.11,-1.741 z m -455.88,0.05 a 37.25,37.25 0 0 0 -16.1,3.25 34.12,34.12 0 0 0 -11.48,8.63 35.82,35.82 0 0 0 -6.88,12.16 43.76,43.76 0 0 0 -2.26,13.91 44.36,44.36 0 0 0 2.26,14.000001 36.44,36.44 0 0 0 6.88,12.24 34.49,34.49 0 0 0 11.41,8.76 37,37 0 0 0 16.17,3.33 36.55,36.55 0 0 0 16.09,-3.33 34.36,34.36 0 0 0 11.47,-8.68 36.61,36.61 0 0 0 6.88,-12.32 44.36,44.36 0 0 0 2.26,-14.000001 43.76,43.76 0 0 0 -2.25,-13.93 36,36 0 0 0 -6.88,-12.16 34.12,34.12 0 0 0 -11.48,-8.61 37.27,37.27 0 0 0 -16.09,-3.25 z m 368.97,0.05 a 50.67,50.67 0 0 0 -6.95,0.53 38.93,38.93 0 0 0 -7.64,1.89 35.26,35.26 0 0 0 -7.55,3.77 27.65,27.65 0 0 0 -6.57,6 l 13.44,9.37 a 19.5,19.5 0 0 1 7.62,-5.12 20.64,20.64 0 0 1 6.5,-1.36 10.29,10.29 0 0 1 7.1,2.72 9.11,9.11 0 0 1 3,7.1 v 2.4 c -2.013,0.207 -4.53,0.433 -7.55,0.68 a 73.7,73.7 0 0 0 -8.31,1.13 57.26,57.26 0 0 0 -10.36,2.72 33.07,33.07 0 0 0 -8.69,4.71 21.83,21.83 0 0 0 -6.05,7 19.76,19.76 0 0 0 -2.26,9.600001 21.78,21.78 0 0 0 2.08,9.74 22.16,22.16 0 0 0 5.59,7.26 25,25 0 0 0 8.09,4.53 28.74,28.74 0 0 0 9.44,1.59 29.8,29.8 0 0 0 10.8,-1.89 21.87,21.87 0 0 0 8.09,-5.21 l 0.91,5.44 h 18.16 V 83.084929 a 33.62,33.62 0 0 0 -2.12,-12.62 22.65,22.65 0 0 0 -6,-8.61 24,24 0 0 0 -9.14,-5 40.63,40.63 0 0 0 -11.63,-1.58 z m -271.36,1.74 v 52.000001 a 44.59,44.59 0 0 1 -6.35,4.16 19.61,19.61 0 0 1 -9.67,2.19 c -4.633,0.006 -7.906,-1.554 -9.82,-4.68 -1.913,-3.127 -2.87,-7.207 -2.87,-12.240001 v -41.411 h -19.76 v 43.370001 c 0.006,10.374 2.372,18.13 7.1,23.27 4.726,5.14 11.526,7.71 20.4,7.71 a 42.51,42.51 0 0 0 11,-1.51 30,30 0 0 0 10.88,-5.75 l 0.75,5.75 h 18.14 V 57.014929 Z m 157,14.04 a 30,30 0 0 1 10.58,2.12 v 36.000001 a 13.34,13.34 0 0 1 -5.44,4.49 16.5,16.5 0 0 1 -7.41,1.89 15.23,15.23 0 0 1 -7.78,-1.89 16.38,16.38 0 0 1 -5.36,-5 22.86,22.86 0 0 1 -3.18,-7.26 35.3,35.3 0 0 1 -1.05,-8.690001 26.21,26.21 0 0 1 1.21,-7.93 21.74,21.74 0 0 1 3.62,-7 17.31,17.31 0 0 1 6.12,-4.91 19.55,19.55 0 0 1 8.69,-1.82 z m 280,0 a 30,30 0 0 1 10.58,2.12 v 36.000001 a 13.41,13.41 0 0 1 -5.44,4.49 16.5,16.5 0 0 1 -7.41,1.89 15.23,15.23 0 0 1 -7.78,-1.89 16.38,16.38 0 0 1 -5.36,-5 22.64,22.64 0 0 1 -3.18,-7.26 35.3,35.3 0 0 1 -1.05,-8.690001 26.51,26.51 0 0 1 1.2,-7.93 22,22 0 0 1 3.63,-7 17.31,17.31 0 0 1 6.12,-4.91 19.55,19.55 0 0 1 8.69,-1.82 z m -536.191,0.1 a 16.93,16.93 0 0 1 9.05,1.68 16.17,16.17 0 0 1 5.442,4.69 21.15,21.15 0 0 1 3.328,7 33.71,33.71 0 0 1 0,17.310001 22.14,22.14 0 0 1 -3.328,7 15.36,15.36 0 0 1 -12.91,6.5 16,16 0 0 1 -7.64,-1.74 15.13,15.13 0 0 1 -5.36,-4.76 v 0.03 a 23.14,23.14 0 0 1 -3.301,-7.031 33.71,33.71 0 0 1 0,-17.310001 21,21 0 0 1 3.33,-7 16.07,16.07 0 0 1 5.44,-4.69 16.93,16.93 0 0 1 5.949,-1.68 z m 379.611,24.72 v 14.830001 a 22.19,22.19 0 0 1 -6.12,3.77 18.47,18.47 0 0 1 -7.33,1.51 c -3.526,0 -6.192,-0.729 -8,-2.189 a 7.07,7.07 0 0 1 -2.72,-5.81 9.77,9.77 0 0 1 2.49,-6.43 c 1.667,-1.967001 4.614,-3.350001 8.84,-4.150001 2,-0.414 4.14,-0.747 6.42,-1 2.28,-0.254 4.42,-0.432 6.42,-0.532 z"
     fill="#017782"
     id="path1"
     style="fill:#ffffff" />
</svg>
