<?xml version="1.0" encoding="UTF-8" standalone="no"?>
<svg
   xmlns:dc="http://purl.org/dc/elements/1.1/"
   xmlns:cc="http://creativecommons.org/ns#"
   xmlns:rdf="http://www.w3.org/1999/02/22-rdf-syntax-ns#"
   xmlns:svg="http://www.w3.org/2000/svg"
   xmlns="http://www.w3.org/2000/svg"
   xmlns:sodipodi="http://sodipodi.sourceforge.net/DTD/sodipodi-0.dtd"
   xmlns:inkscape="http://www.inkscape.org/namespaces/inkscape"
   width="501"
   height="192.17511"
   version="1.1"
   xml:space="preserve"
   style="clip-rule:evenodd;fill-rule:evenodd;stroke-linejoin:round;stroke-miterlimit:2"
   id="svg28"
   sodipodi:docname="Specsavers logo.svg"
   inkscape:version="1.0.2 (e86c870879, 2021-01-15, custom)"><metadata
   id="metadata34"><rdf:RDF><cc:Work
       rdf:about=""><dc:format>image/svg+xml</dc:format><dc:type
         rdf:resource="http://purl.org/dc/dcmitype/StillImage" /><dc:title></dc:title></cc:Work></rdf:RDF></metadata><defs
   id="defs32" /><sodipodi:namedview
   pagecolor="#ffffff"
   bordercolor="#666666"
   borderopacity="1"
   objecttolerance="10"
   gridtolerance="10"
   guidetolerance="10"
   inkscape:pageopacity="0"
   inkscape:pageshadow="2"
   inkscape:window-width="1920"
   inkscape:window-height="1001"
   id="namedview30"
   showgrid="false"
   fit-margin-top="0.5"
   fit-margin-left="0.5"
   fit-margin-right="0.5"
   fit-margin-bottom="0.5"
   inkscape:zoom="0.97355769"
   inkscape:cx="-171.89766"
   inkscape:cy="251.3201"
   inkscape:window-x="-9"
   inkscape:window-y="-9"
   inkscape:window-maximized="1"
   inkscape:current-layer="svg28" />
    <g
   transform="matrix(1.6396507,0,0,1.643033,-47.605712,-49.311831)"
   id="g26">
        <path
   d="m 334.282,88.494 c 0,32.131 -38.612,58.178 -86.244,58.178 -47.63,0 -86.243,-26.047 -86.243,-58.178 0,-32.131 38.613,-58.177 86.243,-58.177 47.632,0 86.244,26.046 86.244,58.177 z"
   style="fill:#18995d;fill-rule:nonzero"
   id="path2" />
        <path
   d="m 201.827,88.494 c 0,32.131 -38.612,58.178 -86.244,58.178 -47.632,0 -86.244,-26.047 -86.244,-58.178 0,-32.131 38.612,-58.177 86.244,-58.177 47.632,0 86.244,26.046 86.244,58.177 z"
   style="fill:#18995d;fill-rule:nonzero"
   id="path4" />
        <path
   d="M 73.18,81.915 C 68.056,80.53 64.946,79.5 64.946,76.869 c 0,-2.184 2.182,-3.595 5.558,-3.595 3.371,0 6.779,1.274 9.594,3.587 l 0.077,0.062 0.332,-6.454 0.002,-0.031 -0.028,-0.015 c -2.701,-1.49 -5.407,-2.482 -9.837,-2.482 -3.205,0 -6.124,0.822 -8.218,2.316 -2.299,1.64 -3.514,3.991 -3.514,6.799 0,5.55 4.62,7.918 8.494,8.927 5.178,1.39 8.843,2.623 8.843,5.84 0,2.708 -2.398,4.391 -6.259,4.391 -3.87,0 -7.809,-1.665 -10.807,-4.566 l -0.075,-0.072 -0.616,6.878 -0.003,0.029 0.025,0.016 c 3.077,2.086 6.964,3.187 11.243,3.187 3.612,0 6.705,-0.883 8.943,-2.557 2.405,-1.797 3.676,-4.436 3.676,-7.633 0,-4.884 -3.008,-8.017 -9.196,-9.581 z"
   style="fill:#ffffff;fill-rule:nonzero"
   id="path6" />
        <path
   d="m 105.314,88.5 c 0,-4.808 -2.904,-7.997 -7.045,-7.997 -2.476,0 -4.856,1.095 -6.569,3.617 v 9.092 c 1.713,2.19 4.045,3.284 6.617,3.284 4.093,0 6.997,-3.189 6.997,-7.996 z m 5.95,0 c 0,8.615 -5.569,13.137 -12.091,13.137 -3.141,0 -5.617,-1.142 -7.473,-2.761 v 10.059 H 85.798 V 75.838 H 91.7 v 2.761 c 1.951,-1.905 4.617,-3.237 7.901,-3.237 6.379,0 11.663,4.522 11.663,13.138 z"
   style="fill:#ffffff;fill-rule:nonzero"
   id="path8" />
        <path
   d="m 133.258,85.644 c 0,-3.095 -1.952,-5.475 -5.57,-5.475 -3.427,0 -6.378,2.333 -7.139,6.189 h 12.613 c 0.048,-0.239 0.096,-0.429 0.096,-0.714 z m 5.045,4.759 h -17.85 c 0.667,3.952 3.57,6.093 7.569,6.093 3.427,0 5.855,-0.808 8.568,-2.38 l 0.333,5.189 c -2.38,1.333 -5.427,2.332 -9.329,2.332 -7.236,0 -13.186,-4.522 -13.186,-13.042 0,-7.902 5.998,-13.233 13.138,-13.233 7.425,0 11.281,4.474 11.281,10.996 0,1.333 -0.143,2.618 -0.524,4.045 z"
   style="fill:#ffffff;fill-rule:nonzero"
   id="path10" />
        <path
   d="m 166.535,98.972 0.619,-5.712 c 2.38,2.047 5.712,3.236 9.187,3.236 2.476,0 4.189,-1.047 4.189,-2.808 0,-4.712 -13.614,-2.286 -13.614,-10.758 0,-5.093 4.38,-7.568 9.616,-7.568 3.666,0 6.473,0.904 8.616,2.237 l -0.286,5.283 c -2.523,-1.713 -5.57,-2.57 -8.283,-2.57 -2.094,0 -3.808,0.809 -3.808,2.428 0,3.951 13.662,2.047 13.662,10.757 0,5.379 -4.713,8.14 -10.187,8.14 -4.046,0 -7.33,-1.047 -9.711,-2.665 z"
   style="fill:#ffffff;fill-rule:nonzero"
   id="path12" />
        <path
   d="m 206.237,94.307 v -3.808 c -2.143,-0.666 -4.141,-1.095 -6.237,-1.095 -3.046,0 -4.854,1.571 -4.854,3.856 0,2.332 2,3.809 4.617,3.809 2.476,0 4.426,-0.858 6.474,-2.762 z m 5.854,-8.854 v 15.708 h -5.854 v -2.57 c -1.953,1.856 -4.57,3.046 -7.617,3.046 -5.664,0 -9.138,-3.427 -9.138,-8.188 0,-5.092 3.95,-8.186 9.852,-8.186 2.238,0 4.38,0.381 6.903,1.142 v -0.761 c 0,-3.856 -2.904,-5.57 -6.522,-5.57 -2.713,0 -5.807,1 -7.997,2.761 l -0.237,-5.141 c 1.903,-1.285 5.427,-2.332 9.281,-2.332 6.569,0 11.329,3.046 11.329,10.091 z"
   style="fill:#ffffff;fill-rule:nonzero"
   id="path14" />
        <path
   d="m 212.616,75.838 h 6.417 l 7.273,15.993 7.226,-15.993 h 6.417 l -12.027,25.323 h -3.28 z"
   style="fill:#ffffff;fill-rule:nonzero"
   id="path16" />
        <path
   d="m 257.997,85.644 c 0,-3.095 -1.952,-5.475 -5.569,-5.475 -3.428,0 -6.378,2.333 -7.14,6.189 h 12.615 c 0.046,-0.239 0.094,-0.429 0.094,-0.714 z m 5.045,4.759 h -17.849 c 0.667,3.952 3.57,6.093 7.568,6.093 3.426,0 5.855,-0.808 8.568,-2.38 l 0.332,5.189 c -2.379,1.333 -5.425,2.332 -9.328,2.332 -7.235,0 -13.185,-4.522 -13.185,-13.042 0,-7.902 5.997,-13.233 13.137,-13.233 7.426,0 11.282,4.474 11.282,10.996 0,1.333 -0.144,2.618 -0.525,4.045 z"
   style="fill:#ffffff;fill-rule:nonzero"
   id="path18" />
        <path
   d="m 285.234,76.457 -0.81,5.426 c -1.429,-0.762 -2.761,-1.047 -4.236,-1.047 -2.618,0 -4.998,1.333 -6.712,4.093 v 16.232 h -5.902 V 75.838 h 5.902 v 3.427 c 1.666,-2.333 4.094,-3.903 7.426,-3.903 1.619,0 2.998,0.38 4.332,1.095 z"
   style="fill:#ffffff;fill-rule:nonzero"
   id="path20" />
        <path
   d="m 286.933,98.972 0.617,-5.712 c 2.381,2.047 5.713,3.236 9.188,3.236 2.475,0 4.188,-1.047 4.188,-2.808 0,-4.712 -13.612,-2.286 -13.612,-10.758 0,-5.093 4.378,-7.568 9.614,-7.568 3.665,0 6.474,0.904 8.616,2.237 l -0.286,5.283 c -2.523,-1.713 -5.569,-2.57 -8.282,-2.57 -2.095,0 -3.808,0.809 -3.808,2.428 0,3.951 13.66,2.047 13.66,10.757 0,5.379 -4.712,8.14 -10.186,8.14 -4.045,0 -7.33,-1.047 -9.709,-2.665 z"
   style="fill:#ffffff;fill-rule:nonzero"
   id="path22" />
        <path
   d="m 162.216,94.228 c -2.039,1.469 -4.11,2.268 -6.536,2.268 -4.093,0 -7.663,-2.855 -7.663,-7.996 0,-5.141 3.57,-7.997 7.663,-7.997 2.427,0 4.498,0.799 6.539,2.234 0.257,-1.77 0.646,-3.513 1.133,-5.232 -2.111,-1.237 -4.671,-2.144 -8.29,-2.144 -7.236,0 -13.091,4.904 -13.091,13.139 0,8.235 5.855,13.137 13.091,13.137 3.639,0 6.179,-1.008 8.25,-2.304 -0.469,-1.679 -0.846,-3.379 -1.096,-5.105 z"
   style="fill:#ffffff;fill-rule:nonzero"
   id="path24" />
    </g>
</svg>
