<?xml version="1.0" encoding="UTF-8"?>
<svg xmlns="http://www.w3.org/2000/svg" id="Layer_1" data-name="Layer 1" viewBox="0 0 181.42 130.39">
  <defs>
    <style>
      .cls-1 {
        fill: #3aaa35;
      }

      .cls-1, .cls-2 {
        stroke-width: 0px;
      }

      .cls-2 {
        fill: #000;
      }
    </style>
  </defs>
  <path class="cls-2" d="M88.91,25.88c0-.55.22-1.08.6-1.47.38-.39.9-.61,1.44-.61h22.57c3.01,0,5.99.59,8.77,1.77,2.78,1.17,5.31,2.9,7.44,5.07,2.13,2.17,3.82,4.76,4.98,7.6,1.16,2.84,1.75,5.89,1.76,8.97,0,3.08-.58,6.13-1.72,8.98s-2.83,5.44-4.95,7.62c-2.12,2.18-4.64,3.92-7.42,5.1-2.78,1.18-5.75,1.8-8.76,1.8h-16.9v24.64c0,.55-.21,1.08-.59,1.47-.38.39-.9.61-1.44.62h-3.73c-.54,0-1.06-.22-1.44-.61-.38-.39-.6-.92-.6-1.48V25.88ZM113.04,62.94c4.15-.02,8.13-1.73,11.05-4.74,2.93-3.02,4.57-7.1,4.56-11.35,0-8.52-7.19-15.05-15.61-15.05h-16.33v31.14h16.33Z"></path>
  <path class="cls-2" d="M168.77,31.17h-32.45c-.54,0-1.06-.22-1.44-.62-.38-.39-.6-.92-.6-1.48v-3.19c0-.55.22-1.08.6-1.47.38-.39.9-.61,1.44-.61h41.27c.43,0,.85.11,1.22.33.37.22.67.54.88.92.21.38.31.82.29,1.25-.01.44-.14.86-.37,1.23l-37.7,62.55h33.86c.54,0,1.06.22,1.44.61.38.39.6.92.6,1.47v3.19c0,.56-.21,1.09-.6,1.48-.38.39-.9.61-1.44.61h-42.46c-.42,0-.84-.12-1.2-.34-.37-.22-.66-.53-.87-.91-.21-.38-.31-.81-.3-1.24,0-.43.13-.86.35-1.22l37.48-62.57Z"></path>
  <path class="cls-2" d="M84.81,25.19c-.46-.33-.96-.6-1.48-.8-.51-.25-1.05-.43-1.6-.54-.73-.13-1.07,0-1.3.44-.15,1.23-.44,2.44-.85,3.6-1.07,2.62-2.15,2.61-4.3,7.71-2.25,5.41-3.56,6.51-4.47,8.71-3.49,8.42-16.87,41.4-16.87,41.4,0,0-13.38-33.03-16.86-41.4-.91-2.2-2.24-3.3-4.47-8.71-2.15-5.1-3.22-5.09-4.3-7.71-.41-1.17-.71-2.37-.87-3.6-.18-.43-.56-.57-1.29-.44-.55.11-1.09.29-1.6.54-.52.21-1.02.48-1.48.8-.61.44-.77.83-.6,1.27.75.97,1.4,2.02,1.92,3.14,1.07,2.62.3,3.43,2.42,8.53,2.24,5.41,2.1,7.14,3.01,9.35,3.48,8.41,7.03,16.45,10.66,24.79,1.7,4.01,8.69,19.51,11.97,24.63.12.18.23.33.34.48.13.17.3.31.5.41.19.1.41.14.62.14s.43-.05.62-.14c.19-.1.36-.23.5-.41.12-.15.24-.32.34-.48,3.29-5.11,10.28-20.61,12.04-24.62,3.63-8.34,7.17-16.38,10.66-24.79.91-2.2.76-3.94,3.01-9.35,2.15-5.1,1.33-5.91,2.41-8.53.53-1.13,1.17-2.19,1.92-3.17.18-.42.02-.8-.59-1.24Z"></path>
  <path class="cls-1" d="M93.69,18.07c-6.96-7.84-15.97-13.47-25.96-16.2-9.99-2.73-20.54-2.46-30.39.79-9.85,3.25-18.57,9.33-25.13,17.52C5.65,28.37,1.54,38.32.35,48.85c-1.18,10.53.62,21.18,5.19,30.68,4.57,9.5,11.72,17.46,20.59,22.91,8.87,5.45,19.08,8.17,29.42,7.84,10.34-.34,20.36-3.72,28.87-9.74.17-.12.32-.29.42-.48.1-.19.16-.4.16-.62v-4.84c0-.19-.05-.38-.15-.55-.1-.16-.24-.3-.41-.38-.17-.08-.36-.12-.55-.1-.19.02-.37.09-.52.21-7.2,5.78-15.87,9.32-24.98,10.21-9.11.89-18.27-.92-26.41-5.21-8.14-4.29-14.9-10.88-19.49-18.99-4.59-8.11-6.81-17.39-6.41-26.76.41-9.36,3.43-18.41,8.7-26.07,5.27-7.66,12.58-13.61,21.06-17.14,8.47-3.53,17.76-4.5,26.76-2.79,9,1.71,17.32,6.03,24,12.44.25.24.58.38.92.37h5.37c.21.02.42-.02.61-.13.18-.11.33-.27.42-.47.09-.2.11-.42.07-.63-.04-.21-.15-.41-.3-.55Z"></path>
  <path class="cls-2" d="M21.21,130.28v-8.04h-3.14v-1.14h7.58v1.14h-3.14v8.04h-1.3Z"></path>
  <path class="cls-2" d="M33.65,121.09h1.31v9.19h-1.31v-9.19ZM28.38,130.28h-1.31v-9.19h1.31v9.19ZM33.77,126.19h-5.51v-1.14h5.51v1.14Z"></path>
  <path class="cls-2" d="M38.89,125.06h4.71v1.12h-4.71v-1.12ZM39.01,129.14h5.34v1.14h-6.65v-9.19h6.47v1.14h-5.16v6.9Z"></path>
  <path class="cls-2" d="M52.63,130.28l-4.03-9.19h1.41l3.7,8.48h-.81l3.73-8.48h1.31l-4.02,9.19h-1.3Z"></path>
  <path class="cls-2" d="M57.43,130.28l4.15-9.19h1.3l4.16,9.19h-1.37l-3.7-8.45h.52l-3.7,8.45h-1.35ZM59.2,127.98l.35-1.05h5.16l.38,1.05h-5.89Z"></path>
  <path class="cls-2" d="M68.41,130.28v-9.19h3.57c.8,0,1.49.13,2.06.38.57.25,1,.62,1.31,1.1.31.48.46,1.05.46,1.72s-.15,1.24-.46,1.72c-.31.47-.74.84-1.31,1.1-.57.25-1.25.38-2.06.38h-2.85l.59-.62v3.4h-1.31ZM69.72,127.01l-.59-.66h2.81c.84,0,1.47-.18,1.9-.54.44-.36.65-.87.65-1.52s-.22-1.16-.65-1.52c-.43-.36-1.06-.54-1.9-.54h-2.81l.59-.66v5.43Z"></path>
  <path class="cls-2" d="M77.73,130.28v-9.19h1.31v9.19h-1.31Z"></path>
  <path class="cls-2" d="M81.78,130.28v-9.19h1.07l6.06,7.55h-.56v-7.55h1.31v9.19h-1.07l-6.06-7.55h.56v7.55h-1.31Z"></path>
  <path class="cls-2" d="M96.54,130.39c-.71,0-1.36-.11-1.95-.34-.59-.24-1.11-.56-1.54-.98-.44-.43-.78-.93-1.02-1.5-.24-.57-.37-1.19-.37-1.88s.12-1.31.37-1.88c.24-.57.58-1.06,1.02-1.48.45-.43.96-.76,1.56-.98.59-.24,1.25-.35,1.96-.35s1.39.12,1.99.35c.6.24,1.11.59,1.53,1.06l-.81.81c-.38-.37-.79-.63-1.23-.8-.44-.17-.91-.26-1.43-.26s-1.01.09-1.47.26c-.45.17-.83.42-1.17.74-.32.32-.58.69-.76,1.13-.17.43-.26.9-.26,1.4s.09.97.26,1.4c.18.43.44.8.76,1.13.33.32.72.56,1.17.74.45.17.93.26,1.45.26.49,0,.96-.07,1.4-.22.45-.16.87-.42,1.26-.77l.75,1c-.45.39-.99.68-1.6.88-.6.19-1.23.29-1.87.29ZM98.75,129.05v-3.41h1.26v3.58l-1.26-.17Z"></path>
  <path class="cls-2" d="M108.7,130.39c-.7,0-1.37-.1-2-.32-.64-.22-1.14-.5-1.5-.84l.48-1.02c.35.31.79.56,1.34.76.54.2,1.1.3,1.69.3.53,0,.96-.06,1.3-.18.33-.12.58-.29.73-.5.16-.22.24-.46.24-.74,0-.32-.1-.57-.31-.76-.2-.19-.47-.35-.8-.46-.32-.12-.68-.23-1.07-.31-.39-.09-.79-.19-1.19-.3-.39-.12-.76-.28-1.09-.46-.32-.18-.58-.43-.79-.73-.2-.32-.3-.72-.3-1.21s.12-.91.37-1.3c.25-.4.64-.72,1.15-.96.52-.25,1.19-.37,1.99-.37.53,0,1.06.07,1.58.21.52.14.98.34,1.36.6l-.43,1.05c-.39-.26-.81-.45-1.24-.56-.44-.12-.86-.18-1.27-.18-.51,0-.94.07-1.27.2-.33.13-.58.31-.73.52-.15.22-.22.46-.22.74,0,.32.1.58.3.77.21.19.48.35.8.46.33.11.69.22,1.09.32.39.09.79.19,1.18.3.4.11.76.26,1.09.45.33.18.6.43.8.74.2.31.3.7.3,1.18s-.13.9-.38,1.3c-.25.39-.65.71-1.18.96-.52.24-1.19.35-1.99.35Z"></path>
  <path class="cls-2" d="M114.16,130.28v-9.19h3.57c.8,0,1.49.13,2.05.38s1,.62,1.31,1.1c.31.48.46,1.05.46,1.72s-.15,1.24-.46,1.72c-.31.47-.74.84-1.31,1.1-.57.25-1.25.38-2.05.38h-2.85l.59-.62v3.4h-1.31ZM115.47,127.01l-.59-.66h2.81c.84,0,1.47-.18,1.9-.54.44-.36.65-.87.65-1.52s-.22-1.16-.65-1.52c-.43-.36-1.06-.54-1.9-.54h-2.81l.59-.66v5.43Z"></path>
  <path class="cls-2" d="M124.67,125.06h4.71v1.12h-4.71v-1.12ZM124.79,129.14h5.34v1.14h-6.65v-9.19h6.47v1.14h-5.16v6.9Z"></path>
  <path class="cls-2" d="M136.34,130.39c-.7,0-1.34-.11-1.94-.34-.58-.24-1.1-.56-1.53-.98-.43-.43-.76-.93-1.01-1.5-.24-.57-.37-1.19-.37-1.88s.12-1.31.37-1.88c.24-.57.58-1.06,1.02-1.48.44-.43.95-.76,1.53-.98.59-.24,1.24-.35,1.94-.35s1.36.12,1.95.37c.6.24,1.11.59,1.53,1.06l-.85.83c-.35-.37-.74-.64-1.18-.81-.44-.18-.9-.28-1.4-.28s-1,.09-1.44.26c-.44.17-.82.42-1.14.74-.32.32-.58.69-.76,1.13-.17.43-.26.9-.26,1.4s.09.98.26,1.42c.18.43.44.8.76,1.12.32.32.7.56,1.14.74.44.17.93.26,1.44.26s.96-.09,1.4-.26c.44-.18.83-.46,1.18-.84l.85.83c-.42.47-.93.83-1.53,1.08-.59.25-1.25.37-1.96.37Z"></path>
  <path class="cls-2" d="M141.7,130.28v-9.19h1.31v9.19h-1.31Z"></path>
  <path class="cls-2" d="M144.36,130.28l4.15-9.19h1.3l4.16,9.19h-1.37l-3.71-8.45h.52l-3.71,8.45h-1.35ZM146.13,127.98l.35-1.05h5.16l.38,1.05h-5.89Z"></path>
  <path class="cls-2" d="M155.34,130.28v-9.19h1.31v8.04h4.96v1.14h-6.27Z"></path>
  <path class="cls-2" d="M163.11,130.28v-9.19h1.31v9.19h-1.31Z"></path>
  <path class="cls-2" d="M169.84,130.39c-.7,0-1.37-.1-2-.32-.64-.22-1.14-.5-1.51-.84l.48-1.02c.35.31.79.56,1.34.76.54.2,1.1.3,1.69.3.53,0,.96-.06,1.3-.18.33-.12.58-.29.73-.5.16-.22.24-.46.24-.74,0-.32-.1-.57-.31-.76-.2-.19-.47-.35-.8-.46-.32-.12-.68-.23-1.07-.31-.39-.09-.79-.19-1.19-.3-.39-.12-.75-.28-1.09-.46-.32-.18-.58-.43-.79-.73-.2-.32-.3-.72-.3-1.21s.12-.91.37-1.3c.25-.4.64-.72,1.15-.96.52-.25,1.19-.37,1.99-.37.53,0,1.06.07,1.58.21.52.14.98.34,1.36.6l-.43,1.05c-.39-.26-.81-.45-1.24-.56-.44-.12-.86-.18-1.27-.18-.51,0-.94.07-1.27.2-.33.13-.58.31-.73.52-.15.22-.22.46-.22.74,0,.32.1.58.3.77.21.19.48.35.8.46.33.11.69.22,1.09.32.39.09.79.19,1.18.3.4.11.76.26,1.09.45.33.18.6.43.8.74.2.31.3.7.3,1.18s-.13.9-.38,1.3c-.25.39-.65.71-1.18.96-.52.24-1.19.35-1.99.35Z"></path>
  <path class="cls-2" d="M176.99,130.28v-8.04h-3.14v-1.14h7.58v1.14h-3.14v8.04h-1.3Z"></path>
</svg>
